<svg width="128" height="65" viewBox="0 0 128 65" fill="none" xmlns="http://www.w3.org/2000/svg">
<path d="M57.7416 62.4054L57.7746 62.4227C57.7309 62.4338 57.6883 62.4454 57.644 62.456L57.7416 62.4054ZM127.5 33.2582C127.5 48.5454 107.121 61.3858 79.563 65C105.586 61.4201 120.126 49.5099 120.126 34.8474C120.126 17.2376 94.3285 2.96196 62.5054 2.96196C53.0616 2.96196 44.1489 4.21889 36.2836 6.44751C18.5877 12.1722 12.3517 22.9127 12.3499 28.9124C12.3449 45.6721 38.0631 48.7456 58.9714 44.7975C62.6928 44.0944 65.3084 43.1975 67.8007 42.2234C74.7229 39.5209 73.6741 45.2113 72.3651 45.9447C68.6387 48.0295 64.4072 48.0516 66.3189 54.2852C67.3307 57.5857 64.7261 60.076 60.2934 61.6639L60.1256 60.6935L62.5075 58.3963L59.2148 57.9221L57.7414 54.9702L56.2692 57.9221L52.9752 58.3963L55.3584 60.6935L54.9562 63.0107C51.5831 63.5832 47.762 63.8041 43.9015 63.6526L43.7513 62.7864L45.3441 61.2512L43.1439 60.9344L42.1573 58.9623L41.174 60.9344L38.9715 61.2512L40.5644 62.7864C40.5644 62.7864 40.5077 63.1016 40.4442 63.4146C37.674 63.1255 35.0036 62.5013 32.4749 61.8077C13.091 56.1888 0 45.5101 0 33.2582C0 15.1658 28.5421 0.5 63.7497 0.5C98.9573 0.5 127.5 15.1658 127.5 33.2582ZM45.6618 57.2398L46.8918 58.4258L46.6024 60.1017L48.1229 59.3113L49.644 60.1017L49.3547 58.4258L50.5852 57.2398L48.8848 56.9946L48.1231 55.4707L47.3632 56.9946L45.6618 57.2398ZM73.6966 51.9714L72.475 49.5249L71.2546 51.9714L68.5253 52.3631L70.4995 54.2663L70.034 56.9552L72.4749 55.6859L74.9169 56.9552L74.4503 54.2663L76.4245 52.3631L73.6966 51.9714ZM36.1014 19.3176L35.1856 17.4897L34.2759 19.32L32.2354 19.6155L33.714 21.0374L33.3678 23.0474L35.1912 22.0964L37.0186 23.0427L36.6669 21.0334L38.1418 19.6083L36.1014 19.3176ZM82.8219 41.9207L86.4911 38.3854L81.4243 37.6558L79.154 33.1136L76.8904 37.6558L71.8213 38.3854L75.4883 41.9207L74.6234 46.9116L79.1541 44.5545L83.6882 46.9116L82.8219 41.9207ZM18.749 36.3422V36.4088H24.9509C29.3745 36.4088 32.0212 33.4207 32.0212 28.4537C32.0212 23.196 29.3352 20.3646 24.9509 20.3646H18.749V33.513C19.6969 32.0262 21.1972 31.5515 22.4832 31.437L22.5073 23.9603H24.2848C27.1333 24.0274 28.2634 25.2632 28.2634 28.4766C28.2634 31.4205 26.8702 32.8134 24.2848 32.8134H22.6398L22.6571 32.8195C22.6138 32.8179 22.5073 32.8374 22.5073 32.8374V32.8275C21.2195 32.9223 19.3339 34.6945 18.749 36.3422ZM85.6397 24.4097C89.3975 24.4097 91.2752 27.5546 91.1138 31.5104H83.4176C83.4782 33.1269 84.3059 34.162 85.7597 34.162C86.5886 34.162 87.3963 33.7572 87.7204 32.88H90.933C90.2858 35.5767 88.0637 36.7461 85.7192 36.7461C83.8145 36.7461 82.2487 36.0297 81.237 34.7185L80.3048 32.8528C80.0983 32.1628 79.9817 31.3938 79.9817 30.5435C79.9817 26.9697 82.5482 24.4097 85.6397 24.4097ZM83.4176 29.3753H87.6801C87.6196 28.0501 86.7905 26.9931 85.6397 26.9931C84.4272 26.9931 83.6396 27.9367 83.4176 29.3753ZM42.3444 34.2741C41.8587 34.2741 41.3944 34.1376 41.0719 33.8687C40.7292 33.5774 40.5053 33.1725 40.5053 32.5661H37.2321C37.333 35.8246 39.8592 36.745 42.364 36.745C44.728 36.745 47.3944 35.7121 47.3944 32.5882C47.3944 31.6225 46.829 29.9145 44.728 29.4424C43.152 29.0828 40.8486 28.8349 40.8486 27.757C40.8486 26.9477 41.7583 26.8811 42.3236 26.8811C42.788 26.8811 43.1518 26.9698 43.4144 27.1736C43.7179 27.3749 43.8586 27.7122 43.8586 28.1842H47.0302C46.9298 25.1509 44.484 24.4097 42.2029 24.4097C40.1413 24.4097 37.4137 25.1958 37.4137 27.9816C37.4137 31.1282 40.122 31.1958 42.2826 31.8022C42.8697 31.9819 43.9595 32.1167 43.9595 33.0381C43.9595 33.9368 42.9905 34.2741 42.3444 34.2741ZM76.2307 36.4088L78.1241 32.611L78.5539 31.749L80.7648 24.3921H77.1527L75.1539 32.4535H75.1134L73.0484 24.3921H69.5655L73.1943 36.409L76.2307 36.4088ZM32.8169 27.697L32.8101 36.4088H36.2444V24.3996C35.2623 24.3996 32.8169 25.5752 32.8169 27.697ZM53.6394 36.7449C56.4481 36.7449 58.5889 34.9703 58.9122 31.8243H55.5794C55.4168 33.083 54.8312 33.824 53.6187 33.824C52.1638 33.824 51.5782 32.2742 51.5782 30.7685C51.5782 29.1506 51.8817 27.3292 53.801 27.3292C54.6681 27.3292 55.4774 28.0267 55.4774 29.0157H58.8101C58.5481 25.9597 56.2655 24.4097 53.6395 24.4097C50.266 24.4097 48.1443 27.0615 48.1443 30.7687C48.1443 34.3641 50.4875 36.7449 53.6394 36.7449ZM98.1287 27.9334C98.5942 27.9334 98.823 27.9318 98.823 27.9318L98.8264 24.4286C98.8264 24.4286 97.6699 24.1845 96.1925 24.7443C92.1096 26.2953 92.1096 29.895 92.1096 29.895V36.409H95.5431V30.6985C95.5431 29.2379 96.4328 27.9334 98.1287 27.9334ZM59.2933 30.5883C59.2933 27.0829 61.557 24.4095 64.8091 24.4095C68.0613 24.4095 70.3438 27.0829 70.3438 30.5883C70.3438 34.0937 68.0622 36.7449 64.8091 36.7449C61.5561 36.7449 59.2933 34.0937 59.2933 30.5883ZM62.727 30.5883C62.727 32.0933 63.2121 33.824 64.8091 33.824C66.4245 33.824 66.9101 32.0933 66.9101 30.5883C66.9101 29.1049 66.4244 27.3292 64.8091 27.3292C63.2122 27.3292 62.727 29.1049 62.727 30.5883ZM101.922 37.2175H100.731V40.3185H102.346C104.652 40.3185 105.922 40.0036 106.731 37.4415L110.978 24.3964H107.404L105.377 32.3414H105.338L103.277 24.3964H99.6428L102.427 32.8583C102.63 33.4864 103.296 35.2844 103.296 35.9138C103.296 36.7232 102.711 37.2175 101.922 37.2175ZM81.3816 13.7413C82.0378 14.4007 82.3698 15.1698 82.3698 16.0473C82.3687 16.7352 81.9493 17.0792 81.1056 17.0792L77.2525 17.0786C77.2895 18.0373 77.7842 18.517 78.7342 18.517C79.091 18.517 79.4522 18.4165 79.8178 18.2179C79.9995 18.1004 80.188 17.9871 80.3788 17.8795C80.6076 17.7525 80.832 17.688 81.0528 17.688C81.3267 17.688 81.5464 17.7652 81.7146 17.9188C81.8851 18.0724 81.9715 18.2682 81.9715 18.503C81.9715 19.0083 81.6552 19.4296 81.0235 19.764C80.3652 20.1256 79.5014 20.3069 78.4313 20.3069C77.1794 20.3069 76.1855 19.9619 75.4552 19.2756C74.7238 18.5884 74.3582 17.6659 74.3582 16.5086C74.3582 15.2965 74.7306 14.3395 75.4755 13.6383C76.2213 12.9381 77.2445 12.5871 78.5412 12.5871C79.6763 12.5871 80.6233 12.9719 81.3816 13.7413ZM79.8313 15.6403C79.7764 14.7443 79.3377 14.2977 78.5132 14.2977C77.718 14.2977 77.2962 14.7443 77.2525 15.6403H79.8313ZM47.4257 20.3066C46.374 20.3066 45.5496 19.9683 44.9568 19.296C44.3624 18.6227 44.0651 17.6838 44.0651 16.4801C44.0651 15.3064 44.3533 14.372 44.9288 13.6802C45.5065 12.9879 46.2731 12.6418 47.2333 12.6418C48.0487 12.6418 48.7432 12.9625 49.3174 13.6047V11.6115C49.3174 11.1672 49.4463 10.8149 49.7022 10.5524C49.9585 10.2907 50.3018 10.159 50.7307 10.159C51.1614 10.159 51.5042 10.2929 51.7594 10.559C52.0169 10.8255 52.1442 11.1898 52.143 11.6508V18.841C52.143 19.8178 51.7173 20.3064 50.8677 20.3064C50.1094 20.3064 49.6741 19.9182 49.5637 19.1405C49.0902 19.9183 48.377 20.3066 47.4257 20.3066ZM48.1521 18.1898C48.5172 18.1898 48.8088 18.0454 49.0231 17.7554C49.2379 17.4663 49.345 17.0553 49.345 16.5211C49.345 15.4089 48.9474 14.8525 48.1521 14.8525C47.3662 14.8525 46.9726 15.4091 46.9726 16.5211C46.9726 17.634 47.3653 18.1898 48.1521 18.1898ZM71.5767 19.7708C71.838 20.0377 72.1847 20.1714 72.612 20.1714C73.0518 20.1714 73.3983 20.0404 73.6553 19.7776C73.911 19.5159 74.04 19.1634 74.04 18.7191V15.1387C74.04 14.3515 73.8044 13.7388 73.3345 13.2999C72.8623 12.8627 72.1983 12.6425 71.3378 12.6425C70.3047 12.6425 69.4444 13.0624 68.759 13.9036C68.3203 13.0725 67.5891 12.6564 66.5649 12.6564C65.5676 12.6564 64.7533 13.0723 64.1237 13.9036C64.0682 13.1076 63.6295 12.7097 62.8068 12.7097C61.9283 12.7097 61.4898 13.1718 61.4898 14.0937V18.6782C61.4898 19.1409 61.6171 19.5035 61.8741 19.7705C62.1298 20.038 62.4731 20.1717 62.9026 20.1717C63.3317 20.1717 63.68 20.038 63.9453 19.7712C64.21 19.5037 64.343 19.1549 64.343 18.7194V16.182C64.343 15.3327 64.6713 14.9071 65.3299 14.9071C65.6967 14.9071 65.957 15.0168 66.1128 15.234C66.2687 15.4498 66.345 15.8031 66.345 16.2923V18.6789C66.345 19.1409 66.4741 19.5037 66.7286 19.7712C66.9866 20.038 67.3287 20.1717 67.7583 20.1717C68.2059 20.1717 68.5569 20.0458 68.8082 19.7917C69.0595 19.5388 69.1839 19.1816 69.1839 18.7194V16.2241C69.1839 15.3461 69.5181 14.9073 70.1856 14.9073C70.8541 14.9073 71.1872 15.3383 71.1872 16.1964V18.679C71.1872 19.1398 71.3176 19.5039 71.5767 19.7708ZM85.2662 19.7708C85.5298 19.5045 85.6621 19.1552 85.6621 18.72V11.6122C85.6621 11.1684 85.5341 10.8151 85.2717 10.5537C85.0126 10.2912 84.6581 10.1603 84.2094 10.1603C83.7619 10.1603 83.4063 10.2929 83.1393 10.5602C82.8745 10.8259 82.7422 11.1903 82.7422 11.6503L82.7411 18.6784C82.7411 19.1483 82.8711 19.5156 83.1315 19.7773C83.3928 20.0402 83.7517 20.1716 84.2085 20.1716C84.6492 20.1716 85.0004 20.0378 85.2662 19.7708ZM60.7192 18.7867V14.2034C60.7192 13.7413 60.5913 13.3774 60.3351 13.1101C60.0782 12.8433 59.7278 12.7096 59.2796 12.7096C58.8398 12.7096 58.4882 12.8433 58.2235 13.1101C57.9576 13.3774 57.8265 13.7276 57.8265 14.1608L57.8253 16.5491C57.8253 17.5264 57.4641 18.0142 56.7412 18.0142C56.3583 18.0142 56.0924 17.897 55.946 17.6619C55.8176 17.4545 55.7536 17.0879 55.7536 16.5625V14.3102C55.7536 13.2434 55.2651 12.7097 54.2864 12.7097C53.3353 12.7097 52.8602 13.2434 52.8602 14.3102V16.5769C52.8602 17.707 52.9706 18.4985 53.1894 18.9512C53.6005 19.8006 54.3734 20.2249 55.5069 20.2249C56.6403 20.2249 57.4972 19.7689 58.0722 18.8557C58.0902 19.7316 58.5294 20.1717 59.3892 20.1717C60.2748 20.1717 60.7192 19.7098 60.7192 18.7867Z" fill="black"/>
</svg>
