<svg width="114" height="52" viewBox="0 0 114 52" fill="none" xmlns="http://www.w3.org/2000/svg">
<path fill-rule="evenodd" clip-rule="evenodd" d="M38.0653 30.8427C40.6369 31.4783 42.6333 31.9733 48.5441 30.3554C50.2659 29.917 51.9292 30.1759 53.5845 30.7642C54.9566 31.2517 56.3629 31.3533 57.745 30.7281C59.3516 30.0015 60.5722 27.6447 58.7921 25.8106C58.3737 25.3795 57.9636 24.9395 57.5265 24.5283C56.4904 23.5537 56.1914 22.3393 56.4536 20.9969C56.8934 18.7449 57.0546 15.9322 56.6683 12.5254C56.1766 8.18951 52.4653 3.86106 48.8423 1.94103C45.4135 0.123829 41.8126 -0.108435 38.1075 0.78873C34.7133 1.61063 31.9443 3.44477 29.9168 6.29528C26.372 11.2789 26.1516 16.7382 28.1966 22.2605C30.0164 27.1745 33.7792 29.7835 38.0653 30.8427ZM36.0973 12.0801C36.9924 9.50214 39.1977 7.8785 41.6628 7.82989C44.4662 7.77446 46.6751 9.22569 47.7767 11.8493C48.33 13.1671 48.5486 14.5482 48.5423 15.9712C48.5245 18.0268 48.1148 19.9789 46.803 21.6175C43.8716 25.2786 38.6204 24.7151 36.5948 20.4922C35.2956 17.7836 35.1067 14.9328 36.0973 12.0801ZM59.6005 12.7678C59.6005 10.2931 59.5688 7.81809 59.6195 5.34467C59.635 4.58381 59.8096 3.80789 60.0258 3.07262C60.6417 0.977971 62.1912 0.0366794 64.4557 0.318974C64.8798 0.371829 65.3092 0.42443 65.7201 0.536197C67.6083 1.0502 69.7385 1.67645 69.7385 6.35203C69.7385 11.0276 65.0838 12.2744 65.0838 18.8718C65.0838 22.3452 67.8767 26.3014 72.8417 26.3014C77.4964 26.3014 80.5997 22.5609 80.5997 18.8718C80.5997 12.8979 75.945 10.7159 75.945 6.04034C75.945 1.36476 78.5869 0.586503 80.233 0.460955C81.0632 0.397499 81.9229 0.392945 82.7384 0.537121C84.5565 0.858641 85.3423 2.2016 85.621 3.87144C85.8069 4.98548 85.9153 6.12462 85.9264 7.25364C85.9637 11.0186 85.9558 14.7842 85.937 18.5494C85.9251 20.9286 85.5495 23.2383 84.3957 25.361C82.9253 28.0659 80.6379 29.7821 77.7639 30.7311C73.833 32.029 69.9121 32.0022 66.1546 30.1863C62.1508 28.2511 59.9643 24.9808 59.7202 20.4985C59.5801 17.925 59.5462 12.7687 59.6005 12.7678ZM69.7954 10.7751C67.1008 17.7838 70.7231 19.4455 72.5441 20.3602C73.8338 21.0079 74.0919 22.6084 73.4561 23.5664C72.5441 24.9405 71.1761 24.4825 70.2795 24.1275C68.0523 23.2456 66.8276 20.4989 66.8276 18.0055C66.8276 16.0214 68.3141 12.7717 69.5759 10.6634C69.6543 10.5324 69.8503 10.6325 69.7954 10.7751ZM113.783 26.4733C111.035 19.462 108.358 12.4222 105.629 5.40328C104.438 2.33847 102.737 1.13171 99.7309 1.05402C99.2068 1.1255 98.6707 1.1487 98.1609 1.27697C96.2385 1.76084 95.1101 3.11566 94.4398 4.88546C91.9548 11.4468 89.5028 18.0207 87.0181 24.5821C86.5945 25.7008 86.2144 26.8077 86.3413 28.0296C86.4454 29.0315 86.9034 29.7952 87.8248 30.219C89.1764 30.8405 90.5478 30.7869 91.917 30.255C93.2237 29.7474 94.1627 28.7591 95.0958 27.7757C95.7149 27.1233 96.4689 26.6832 97.323 26.5981C98.8515 26.4459 100.393 26.4087 101.931 26.374C103.011 26.3495 103.928 26.7984 104.696 27.5504C105.273 28.1147 105.825 28.7043 106.417 29.2521C107.957 30.6793 109.761 30.998 111.716 30.3602C113.299 29.8439 114.513 28.3361 113.783 26.4733ZM102.386 18.7075C102.1 19.9098 100.959 20.5683 99.5884 20.4624C98.5637 20.3834 97.6575 19.439 97.4543 18.217C97.4051 17.922 97.4075 17.6182 97.4015 17.5319C97.3866 16.1302 97.7278 15.0566 98.5062 14.1584C99.3252 13.2135 100.386 13.1799 101.235 14.0983C102.448 15.4112 102.793 16.9955 102.386 18.7075ZM23.5375 30.6438C24.9724 30.6742 26.1436 30.2823 27.0517 29.2702C27.7445 28.4982 27.8937 27.6035 27.5207 26.633C25.9636 22.582 24.4075 18.5305 22.842 14.4828C21.586 11.2349 20.3661 7.97163 19.0401 4.75235C17.7116 1.52686 13.9746 0.127979 10.9044 1.62139C9.45788 2.325 8.62985 3.56463 8.0815 5.01912C5.62441 11.5357 3.17741 18.0559 0.720768 24.5725C0.338264 25.5872 -0.0371541 26.5944 0.00295069 27.709C0.0530063 29.1012 0.744135 30.0505 2.08237 30.4406C3.28913 30.7923 4.47916 30.719 5.6517 30.2419C6.88273 29.7412 7.7967 28.835 8.67327 27.8915C9.43828 27.0681 10.3806 26.5934 11.4616 26.5068C12.8752 26.3938 14.2991 26.3893 15.7189 26.3798C16.7437 26.3728 17.6144 26.8017 18.3464 27.5066C18.8902 28.0303 19.4135 28.5752 19.9515 29.1051C20.9743 30.1122 22.1811 30.6809 23.5375 30.6438ZM13.8619 20.289C12.3604 20.4093 11.3074 19.3782 11.202 17.5942C11.1343 16.4485 11.4401 15.3747 12.1452 14.4494C12.9838 13.3489 14.1515 13.3213 15.0364 14.3878C15.7757 15.2789 16.1112 16.3289 16.1365 17.3622C16.142 19.1264 15.2924 20.1747 13.8619 20.289ZM82.6918 30.7412C81.0535 30.7412 80.0753 31.5217 79.4239 32.0483C78.7317 32.6079 78.2082 34.1256 78.1857 35.5144C76.8363 35.0785 76.5636 34.5183 74.0062 34.5183C71.5306 34.5183 69.4898 35.2185 67.9326 36.6027C67.8168 36.4717 67.701 36.3531 67.5884 36.2463C66.429 35.1563 64.8741 34.6037 62.9672 34.6037C61.5855 34.6037 60.3112 34.9642 59.1919 35.6616C58.212 34.9831 57.0109 34.6255 55.6529 34.6255C54.4776 34.6255 53.3907 34.8952 52.4211 35.4203C51.7335 34.9605 50.8742 34.7082 49.8936 34.7082C48.8176 34.7082 47.8985 35.0037 47.1888 35.5405C46.5776 35.0946 45.6986 34.7082 44.4887 34.7082C43.2 34.7082 42.076 35.1616 41.2396 36.0184C41.0261 36.2363 40.8387 36.4734 40.6772 36.7266C39.9163 35.4513 38.5694 34.7082 36.8366 34.7082C36.4783 34.7082 36.1372 34.7407 35.8143 34.8043C35.6882 33.4669 35.1117 32.5905 34.6233 32.0771C33.7962 31.2021 32.6778 30.7396 31.3884 30.7396C30.11 30.7396 28.9971 31.1926 28.1653 32.0551C27.6808 32.5602 27.1161 33.4038 26.9719 34.6695C26.6639 34.6253 26.3497 34.603 26.0292 34.603C23.8828 34.603 22.0514 35.4504 20.7312 37.057C19.5081 38.5516 18.8873 40.5081 18.8873 42.8726C18.8873 45.3098 19.5371 47.2926 20.817 48.7642C22.1577 50.3082 24.0615 51.1243 26.3236 51.1243C27.376 51.1243 28.3439 50.8962 29.1914 50.459C29.8586 50.8906 30.6745 51.1243 31.5984 51.1243C32.9335 51.1243 34.0237 50.6421 34.7642 49.7899C35.8063 50.5791 37.146 50.9966 38.7072 50.9966C39.9715 50.9966 41.1096 50.7208 42.095 50.1844C42.785 50.6556 43.6538 50.9139 44.6565 50.9139C45.7387 50.9139 46.6635 50.6176 47.3764 50.08C48.12 50.6279 49.0273 50.9139 50.0411 50.9139C51.314 50.9139 52.43 50.4609 53.2706 49.6021C53.4604 49.4079 53.6297 49.1989 53.7778 48.977C53.9321 49.2143 54.0951 49.4146 54.2512 49.5812C55.0813 50.4529 56.1982 50.9139 57.4822 50.9139C59.1299 50.9139 60.1555 50.2171 60.7234 49.6341C60.8873 49.4663 61.0605 49.2591 61.2235 49.0086C61.3763 49.2376 61.537 49.4307 61.6906 49.5908C62.5247 50.4565 63.6408 50.9137 64.9199 50.9137C66.5575 50.9137 67.5878 50.1985 68.1619 49.6008C68.2147 49.5454 68.2692 49.4855 68.3242 49.4222C69.7931 50.5529 71.6434 51.125 73.8378 51.125C75.8613 51.125 77.5713 50.7435 78.8891 50.0082C79.0946 49.898 79.2844 49.7828 79.4602 49.6649C80.0502 50.2474 81.0772 50.9147 82.6904 50.9147C83.9767 50.9147 85.1007 50.4621 85.9444 49.6012C86.7691 48.7565 87.2046 47.6351 87.2046 46.3589V35.2968C87.2046 33.6532 86.5177 32.614 85.957 32.0462C85.3781 31.4509 84.342 30.7412 82.6918 30.7412ZM33.5334 46.5266C33.5334 48.0441 32.8827 48.8033 31.5816 48.8033C30.4208 48.8033 29.7554 48.1986 29.5881 46.9904C28.8612 48.1988 27.7692 48.8033 26.3147 48.8033C24.7058 48.8033 23.4463 48.2792 22.5376 47.2326C21.6271 46.1853 21.1736 44.7277 21.1736 42.8586C21.1736 41.0321 21.6145 39.5811 22.4951 38.506C23.3767 37.4313 24.5521 36.8934 26.0206 36.8934C27.2665 36.8934 28.3295 37.3924 29.2102 38.3904V35.2918C29.2102 34.6029 29.4062 34.0551 29.7976 33.6476C30.1901 33.24 30.7151 33.0362 31.3721 33.0362C32.0292 33.0362 32.5546 33.2435 32.9456 33.6581C33.3374 34.072 33.5334 34.6379 33.5334 35.3547V46.5266ZM46.6527 46.4421C46.6527 47.8754 45.9744 48.5921 44.6176 48.5921C43.3029 48.5921 42.6309 47.9102 42.6036 46.5469C41.7216 47.967 40.4137 48.6768 38.6791 48.6768C36.9444 48.6768 35.7624 48.0161 35.1323 46.6952C34.797 45.9925 34.6291 44.7627 34.6291 43.0061V39.4858C34.6291 37.8278 35.3562 36.9984 36.8113 36.9984C38.3089 36.9984 39.056 37.8278 39.056 39.4858V42.985C39.056 43.7998 39.1537 44.369 39.3497 44.6927C39.5746 45.0576 39.98 45.2404 40.5671 45.2404C41.6727 45.2404 42.2252 44.4822 42.2252 42.9639V39.2541C42.2252 38.5798 42.4279 38.0348 42.8335 37.6203C43.2394 37.2058 43.7775 36.9984 44.4496 36.9984C45.1358 36.9984 45.6733 37.2056 46.0662 37.6203C46.4567 38.0346 46.6527 38.6011 46.6527 39.3168V46.4421ZM67.0337 46.3371C67.0337 47.0254 66.8374 47.5736 66.4459 47.9809C66.054 48.3882 65.5227 48.5923 64.8512 48.5923C64.1935 48.5923 63.6649 48.3846 63.2663 47.971C62.8684 47.5554 62.669 46.9904 62.669 46.2731V42.416C62.669 41.0814 62.1574 40.4137 61.1361 40.4137C60.1157 40.4137 59.6041 41.0956 59.6041 42.4581V46.3373C59.6041 47.0538 59.4132 47.6087 59.0274 48.0018C58.6431 48.3956 58.1077 48.5923 57.4226 48.5923C56.7645 48.5923 56.2404 48.3846 55.8481 47.971C55.457 47.5554 55.2612 46.9904 55.2612 46.2731V42.5642C55.2612 41.8046 55.1425 41.2568 54.904 40.9196C54.6665 40.5825 54.2673 40.4137 53.7075 40.4137C52.7 40.4137 52.1968 41.0743 52.1968 42.3951V46.3373C52.1968 47.012 51.994 47.5555 51.5881 47.971C51.1825 48.3846 50.6508 48.5923 49.9933 48.5923C49.3362 48.5923 48.8111 48.3846 48.4201 47.971C48.0278 47.5554 47.8323 46.9904 47.8323 46.2731V39.1493C47.8323 37.7156 48.5035 36.9987 49.8461 36.9987C51.1061 36.9987 51.7773 37.6173 51.8615 38.8537C52.8264 37.5614 54.0713 36.9146 55.5965 36.9146C57.1631 36.9146 58.2829 37.5613 58.954 38.8537C60.0027 37.5466 61.3187 36.8934 62.9001 36.8934C64.2145 36.8934 65.2317 37.2345 65.953 37.9159C66.6727 38.5974 67.0336 39.5497 67.0336 40.7717L67.0337 46.3371ZM77.8446 43.7861H71.9478C72.0043 45.2761 72.7604 46.0206 74.2146 46.0206C74.7602 46.0206 75.3131 45.8662 75.8726 45.5569C76.152 45.3741 76.4389 45.1982 76.7328 45.0297C77.0829 44.8333 77.4256 44.7346 77.7613 44.7346C78.1806 44.7346 78.5199 44.8542 78.7783 45.0929C79.037 45.3314 79.1666 45.6338 79.1666 45.9997C79.1666 46.7862 78.6846 47.4398 77.7193 47.9599C76.7118 48.5217 75.39 48.8033 73.7528 48.8033C71.8361 48.8033 70.3177 48.2692 69.1994 47.2008C68.0805 46.1331 67.5207 44.6993 67.5207 42.9009C67.5207 41.018 68.0909 39.5316 69.2309 38.4427C70.371 37.3534 71.935 36.8089 73.9214 36.8089C75.656 36.8089 77.1043 37.4063 78.2649 38.6014C79.2723 39.6264 79.775 40.821 79.775 42.1842C79.775 43.2522 79.1326 43.7861 77.8446 43.7861ZM84.8158 46.3371C84.8158 47.0118 84.6132 47.5554 84.207 47.9708C83.8025 48.3844 83.2635 48.5921 82.5914 48.5921C81.8921 48.5921 81.3429 48.388 80.9439 47.9808C80.5459 47.5734 80.3464 47.0032 80.3464 46.2727V35.3543C80.3464 34.6375 80.5491 34.0717 80.9549 33.6577C81.3609 33.2432 81.9066 33.0362 82.5915 33.0362C83.2781 33.0362 83.8197 33.2399 84.218 33.6474C84.6173 34.0549 84.8158 34.6027 84.8158 35.2916V46.3371ZM75.8936 41.5517H71.9478C72.0179 40.161 72.6614 39.4651 73.8787 39.4651C75.1375 39.4651 75.8093 40.161 75.8936 41.5517ZM29.2517 42.9216C29.2517 43.7509 29.0878 44.39 28.7588 44.8396C28.4303 45.2897 27.9858 45.5142 27.4256 45.5142C26.2232 45.5142 25.6216 44.6505 25.6216 42.9216C25.6216 41.1927 26.223 40.3293 27.4256 40.3293C28.6443 40.3293 29.2517 41.1932 29.2517 42.9216Z" fill="black"/>
</svg>
