<svg width="123" height="47" viewBox="0 0 123 47" fill="none" xmlns="http://www.w3.org/2000/svg">
<path d="M32.875 17.0228L36.4743 22.3719L32.8885 28.046L32.8725 28.0218L21.1131 46.4413H13.0309L28.9804 22.7453L20.5033 9.53508H27.8416L32.7327 16.8105L32.8723 17.028L32.875 17.0228ZM36.9497 34.1125L38.6607 36.8448H46.4742L40.6725 28.218L36.9497 34.1125ZM20.3529 35.5099H7.07222V27.8826H18.5737V22.3428H7.07222V15.5671H20.0644V9.55981H0V41.5173H16.3054L20.3529 35.5099ZM48.3345 15.5671H55.9171V41.5173H62.9893V15.5671H72.1486V9.55981H52.1487L48.3345 15.5671ZM76.4946 41.5173H96.5589V35.5099H83.5668V27.8826H95.0682V22.3428H83.5668V15.5671H96.5589V9.55981H76.4946V41.5173ZM109.256 35.5099V9.55981H102.184V41.5173H122.036V35.5099H109.256ZM43.4687 0.5L36.8853 11.0344L40.5033 16.4157L40.7612 16.7972L47.084 6.83789L51.1076 0.5H43.4687Z" fill="#12100B"/>
</svg>
