<svg width="135" height="37" viewBox="0 0 135 37" fill="none" xmlns="http://www.w3.org/2000/svg">
<path d="M27.5192 1.76013L33.5847 3.94038V26.2868L17.0424 36.6424L0.5 26.2868V3.94038L6.56561 1.76013V23.0165L17.0424 29.0118L27.5192 23.0165V1.76013ZM19.7992 0.125H13.734V12.1152H19.7992V0.125ZM73.2818 29.6864H67.798C66.6231 29.6864 65.6568 29.3794 64.8997 28.7656C64.142 28.1523 63.5417 27.3494 63.0979 26.3566L59.1811 17.5411H56.635V28.5113L59.3769 29.0988V29.6864H47.8222V29.0988L50.1722 28.5113V3.43754L47.8222 2.85005V2.26189H58.2016C60.5517 2.26189 62.5229 2.45204 64.116 2.82993C65.7083 3.20904 66.9949 3.73118 67.9741 4.39755C68.9533 5.06338 69.6584 5.86664 70.0891 6.80705C70.5201 7.74745 70.7356 8.77949 70.7356 9.90222C70.7356 10.7899 70.6045 11.567 70.3438 12.2328C70.0825 12.8987 69.7368 13.4869 69.3058 13.9956C68.8751 14.5055 68.3787 14.9304 67.8176 15.2692C67.2556 15.6092 66.6877 15.8832 66.1137 16.0921C64.7557 16.6143 63.2282 16.9016 61.5309 16.9536V17.1499C62.4182 17.1756 63.2672 17.3199 64.0768 17.5803C64.7557 17.79 65.4476 18.1361 66.1527 18.619C66.8578 19.1021 67.406 19.7881 67.7976 20.6753L71.3228 28.5113L73.2814 29.0988L73.2818 29.6864ZM62.4714 14.8577C63.5417 13.7216 64.0772 12.0701 64.0772 9.90205C64.0772 7.73398 63.5417 6.08199 62.4714 4.94589C61.4002 3.80925 59.9774 3.24127 58.2019 3.24127H56.6352V16.5617H58.2019C59.9773 16.5617 61.4002 15.9937 62.4714 14.8577ZM97.2315 29.6864C95.7693 29.6864 94.6201 29.3533 93.7851 28.6873C92.9489 28.0215 92.3486 27.2443 91.983 26.3566L89.9859 21.6547H80.6246L78.0395 27.9237L80.977 29.0988V29.6864H73.731V29.0988L76.8644 27.9237L87.6358 1.87034H88.8112L99.9737 28.5111L101.932 29.0986V29.6863L97.2315 29.6864ZM89.5942 20.6753L85.2857 10.3717L81.0162 20.6753H89.5942ZM134.885 2.84988V2.26173H127.639V2.84988L130.576 4.02504L124.936 20.6753L119.022 5.59208C118.656 4.70489 118.055 3.92722 117.22 3.26138C116.384 2.59488 115.222 2.26173 113.734 2.26173H109.034V2.84988L111.188 3.24127L114.086 10.568L110.639 20.6754L104.725 5.59224C104.385 4.70505 103.791 3.92738 102.943 3.26155C102.094 2.59504 100.926 2.26189 99.4377 2.26189H94.737V2.85005L96.8918 3.24144L107.467 30.0785H108.642L114.713 12.1742L121.763 30.0785H122.938L131.752 4.0252L134.885 2.84988Z" fill="black"/>
</svg>
