<svg width="95" height="68" viewBox="0 0 95 68" fill="none" xmlns="http://www.w3.org/2000/svg">
<path d="M32.222 51.4846C32.0957 50.9725 31.9693 50.4603 31.8404 49.9486C31.4921 48.5651 31.1422 47.182 30.7936 45.7985C30.7477 45.6167 30.6815 45.5722 30.411 45.5598C30.0577 45.5437 29.7041 45.5307 29.3506 45.5163C29.3506 45.5134 29.3506 45.5103 29.3505 45.5074C29.0948 45.5074 28.839 45.505 28.5834 45.5081C28.3499 45.5108 28.2796 45.555 28.2421 45.7115C28.0838 46.3728 27.9266 47.0343 27.7678 47.6954C27.4635 48.9617 27.1583 50.2279 26.8537 51.494C26.821 51.6297 26.8463 51.6488 27.0574 51.649C27.4558 51.6494 27.8539 51.6494 28.2523 51.649C28.4453 51.649 28.4775 51.6274 28.4948 51.4917C28.5411 51.1311 28.5799 50.7701 28.6367 50.4102C28.6686 50.2076 28.7266 50.0067 28.78 49.8059C28.8015 49.7254 28.867 49.6554 28.9982 49.6505C29.3359 49.6379 29.6742 49.6264 30.012 49.6295C30.165 49.6308 30.2708 49.6949 30.2922 49.813C30.3963 50.3882 30.5092 50.9624 30.6091 51.5378C30.6249 51.6291 30.6846 51.6499 30.7985 51.6495C31.2069 51.6485 31.6152 51.6502 32.0235 51.6487C32.2239 51.6478 32.2557 51.6209 32.222 51.4846ZM29.8042 48.5903C29.7208 48.5903 29.6376 48.5836 29.5542 48.58L29.5537 48.5833C29.4072 48.5749 29.259 48.5732 29.1144 48.5566C28.9451 48.537 28.8976 48.4911 28.9251 48.3736C29.0524 47.8318 29.1851 47.2905 29.3144 46.749C29.3286 46.689 29.3714 46.6611 29.4627 46.6639C29.5525 46.6667 29.6185 46.6741 29.6398 46.7516C29.7765 47.2479 29.9209 47.7433 30.061 48.239C30.0749 48.288 30.0792 48.3385 30.0844 48.3885C30.1024 48.566 30.07 48.5901 29.8042 48.5903ZM20.6082 45.8033C20.5892 47.4298 20.5737 49.0561 20.5586 50.6825C20.5567 50.877 20.5623 51.0715 20.5629 51.2662C20.5635 51.5473 20.5104 51.5844 20.0925 51.5801C19.8073 51.5771 19.5221 51.5621 19.237 51.563C19.0268 51.5635 18.9154 51.498 18.8516 51.3661C18.6422 50.9333 18.4204 50.5034 18.2115 50.0706C17.9413 49.5104 17.6791 48.9485 17.4131 48.3874C17.3987 48.3568 17.3801 48.3271 17.3634 48.297C17.3445 48.2986 17.3258 48.3002 17.3069 48.3017C17.3069 48.6534 17.3175 49.0053 17.3045 49.3566C17.2808 49.9935 17.2429 50.6303 17.2111 51.267C17.2111 51.2704 17.2108 51.2737 17.2104 51.2772C17.1905 51.5817 17.1042 51.6382 16.6591 51.6382C16.4475 51.6382 16.236 51.6372 16.0244 51.6377C15.9054 51.638 15.8396 51.6008 15.8337 51.5186C15.8296 51.4584 15.8227 51.398 15.8237 51.3378C15.8514 49.7483 15.8808 48.1588 15.908 46.5693C15.9128 46.2877 15.913 46.0058 15.908 45.7242C15.9063 45.6257 15.9515 45.5745 16.1072 45.5727C16.4906 45.5683 16.874 45.5552 17.2574 45.5514C17.4731 45.5492 17.4955 45.5648 17.5565 45.7048C17.7553 46.1608 17.9507 46.6174 18.1513 47.0731C18.4228 47.6892 18.6979 48.3044 18.9717 48.92C18.9797 48.9377 18.9907 48.9548 19.0312 48.9703C19.0312 48.9223 19.0295 48.8742 19.0314 48.8262C19.0734 47.834 19.1151 46.8419 19.1586 45.8497C19.165 45.7035 19.259 45.6401 19.4701 45.6413C19.7847 45.643 20.0995 45.6489 20.4141 45.6549C20.552 45.6575 20.6093 45.7046 20.6082 45.8033ZM8.34133 46.8753C8.33548 47.3345 8.32947 47.794 8.325 48.2533C8.32328 48.419 8.3948 48.4808 8.63789 48.4939C8.84797 48.5051 9.0603 48.4982 9.27176 48.4982C9.50282 48.4982 9.5635 48.5344 9.5647 48.6921C9.56625 48.8999 9.56229 49.1078 9.55387 49.3157C9.54785 49.4622 9.52275 49.4836 9.30613 49.4963C9.05651 49.5109 8.80534 49.5148 8.55468 49.5208C8.3513 49.5258 8.30213 49.5564 8.29921 49.6941C8.28683 50.2473 8.27548 50.8005 8.26362 51.3538C8.26362 51.3605 8.26362 51.3672 8.26345 51.3739C8.25881 51.615 8.22374 51.641 7.87354 51.6381C7.5787 51.6357 7.28317 51.6335 6.98936 51.6186C6.79475 51.6088 6.75796 51.5727 6.73372 51.4415C6.7289 51.415 6.72753 51.3881 6.72753 51.3612C6.72719 50.4324 6.72718 49.5036 6.72718 48.649C6.70999 47.6828 6.69555 46.7911 6.67733 45.8992C6.67097 45.5871 6.67836 45.5751 7.14151 45.5832C7.99234 45.598 8.84281 45.6188 9.69347 45.6353C9.82602 45.6379 9.90098 45.6757 9.89651 45.7678C9.88516 46.002 9.88309 46.2373 9.85129 46.4703C9.82533 46.661 9.75863 46.6865 9.47823 46.6797C9.20299 46.6732 8.92757 46.6662 8.65216 46.6655C8.41474 46.665 8.34339 46.7164 8.34133 46.8753ZM34.2288 47.7501C34.0279 48.3174 34.0581 48.8852 34.3827 49.4292C34.7446 50.036 35.3745 50.4506 36.3333 50.6063C36.6354 50.6553 36.6544 50.6732 36.6838 50.8794C36.7105 51.066 36.7399 51.2527 36.7535 51.44C36.7626 51.5646 36.7034 51.605 36.5227 51.6124C35.0735 51.6712 33.8996 51.3325 33.0861 50.4903C32.6334 50.0215 32.4495 49.4926 32.3886 48.9407C32.375 48.8174 32.3866 48.6929 32.3866 48.5687C32.367 48.0433 32.4737 47.5314 32.8193 47.0553C33.3759 46.2882 34.2986 45.8452 35.5158 45.6836C35.8662 45.637 36.2279 45.6271 36.5853 45.6083C36.7899 45.5977 36.8437 45.6374 36.8429 45.7739C36.8415 45.9784 36.8408 46.1831 36.8298 46.3874C36.821 46.5488 36.7751 46.57 36.5415 46.5934C36.2601 46.6214 35.9733 46.6425 35.7024 46.6974C34.9222 46.8552 34.4195 47.2118 34.2288 47.7501ZM52.1202 48.9572C52.3007 48.8487 52.4876 48.7419 52.6427 48.6174C53.3892 48.018 53.6054 47.307 53.525 46.5443C53.4756 46.0766 53.1244 45.7328 52.4943 45.5428C52.2409 45.4663 51.9657 45.4145 51.6927 45.3794C50.922 45.2805 50.1418 45.3566 49.3661 45.3414C49.178 45.3378 49.0933 45.3913 49.0709 45.5218C49.0365 45.7216 49.0169 45.9233 49.0106 46.1245C48.981 47.0556 48.9535 47.9867 48.9348 48.9178C48.9201 49.6439 48.9184 50.3703 48.9143 51.0965C48.9133 51.2849 48.9676 51.3323 49.2401 51.3516C49.5476 51.3734 49.8576 51.3825 50.1669 51.3899C50.4176 51.3959 50.4397 51.3803 50.4332 51.2077C50.4133 50.6767 50.3866 50.1459 50.3663 49.6149C50.3627 49.5231 50.3768 49.431 50.3827 49.339C50.4 49.3371 50.4174 49.3351 50.4347 49.3332C50.4812 49.3757 50.5346 49.4154 50.5725 49.4611C50.7325 49.6539 50.9008 49.8441 51.0426 50.0431C51.3375 50.4566 51.6172 50.8753 51.9041 51.2916C51.9456 51.3516 51.9777 51.4193 52.1053 51.4179C52.5086 51.4134 52.9121 51.4144 53.3151 51.4046C53.5035 51.3999 53.5401 51.3534 53.4655 51.2353C53.3311 51.0224 53.1949 50.8103 53.0512 50.6004C52.7242 50.1227 52.395 49.6457 52.0604 49.1706C51.9714 49.0441 51.9659 49.05 52.1202 48.9572ZM51.6873 47.8851C51.5018 48.1724 51.0509 48.2966 50.6247 48.1948C50.5186 48.1695 50.5104 48.1112 50.5106 48.0481C50.5109 47.7728 50.5106 47.4976 50.5106 47.2223H50.5448C50.5448 46.9505 50.5443 46.6787 50.5449 46.4069C50.5453 46.2843 50.5872 46.2336 50.766 46.2238C50.973 46.2123 51.1903 46.2088 51.3906 46.2399C51.7128 46.2898 51.8804 46.4601 51.9258 46.6742C52.0142 47.0915 51.9366 47.4989 51.6873 47.8851ZM47.0412 51.4849C46.914 50.9695 46.7861 50.4542 46.6572 49.9391C46.4454 49.0938 46.2325 48.2484 46.02 47.4031C45.8813 46.8516 45.7403 46.3006 45.6054 45.7486C45.5794 45.6427 45.4941 45.5869 45.348 45.5718C45.2316 45.5598 45.1137 45.5531 44.9959 45.5496C44.4702 45.5343 43.9445 45.5177 43.4184 45.5084C43.1731 45.5041 43.1004 45.5517 43.062 45.711C42.9635 46.1209 42.8671 46.5311 42.7686 46.9411C42.4027 48.4618 42.0362 49.9827 41.67 51.5034C41.6411 51.6233 41.6667 51.6473 41.8474 51.6482C42.2653 51.6502 42.6833 51.6482 43.1012 51.6494C43.2403 51.6499 43.3042 51.6087 43.3146 51.5121C43.3486 51.1945 43.3808 50.8765 43.4323 50.5603C43.4734 50.3078 43.5387 50.057 43.6001 49.8063C43.6199 49.7257 43.6866 49.6555 43.8176 49.6507C44.1552 49.6379 44.4936 49.6265 44.8314 49.6295C44.9846 49.6308 45.0908 49.695 45.1121 49.8128C45.2167 50.3878 45.3289 50.9622 45.4297 51.5378C45.4443 51.6208 45.4907 51.6501 45.6031 51.6495C45.8146 51.6485 46.0262 51.6492 46.2377 51.6492C46.4394 51.6492 46.641 51.6506 46.8427 51.6489C47.0433 51.6472 47.0749 51.6212 47.0412 51.4849ZM44.6724 48.5878C44.4324 48.5875 44.1912 48.5775 43.9531 48.5582C43.7638 48.5428 43.7165 48.4933 43.7464 48.3669C43.8738 47.8284 44.0058 47.2904 44.1343 46.7521C44.1484 46.6931 44.1879 46.653 44.2777 46.6669C44.3399 46.6766 44.4387 46.7019 44.4468 46.7301C44.6062 47.2812 44.7546 47.8337 44.9052 48.386C44.9069 48.3926 44.9062 48.3994 44.9067 48.4061C44.9193 48.5606 44.8942 48.5882 44.6724 48.5878ZM12.0266 48.0435C12.0039 48.597 12.0032 49.1504 12.1614 49.6965C12.199 49.8269 12.264 49.9553 12.3384 50.0784C12.3819 50.1505 12.4564 50.2195 12.5394 50.2736C12.7339 50.4009 13.0115 50.3899 13.1475 50.233C13.2702 50.0915 13.3682 49.9322 13.4227 49.7721C13.6493 49.1049 13.6837 48.4249 13.6772 47.7431C13.6712 47.1127 13.6641 46.4823 13.6586 45.8521C13.6571 45.6784 13.6794 45.6633 13.938 45.666C14.3019 45.67 14.6659 45.6783 15.0298 45.6813C15.1624 45.6825 15.2241 45.7111 15.2196 45.8115C15.1694 46.9206 15.1386 48.0302 15.0723 49.1387C15.0389 49.6946 14.9415 50.2489 14.609 50.7684C14.5423 50.8728 14.4706 50.9758 14.3944 51.077C13.9852 51.6225 13.2713 51.7959 12.4744 51.7252C11.7562 51.6614 11.2813 51.3786 11.0074 50.9263C10.7609 50.5188 10.6275 50.0932 10.5967 49.6561C10.5481 48.9668 10.5259 48.2766 10.503 47.8056C10.552 46.9591 10.5874 46.3328 10.6249 45.7063C10.6328 45.5739 10.7037 45.5271 10.9003 45.534C11.2486 45.5462 11.5966 45.5643 11.9447 45.5806C12.0814 45.587 12.137 45.6322 12.132 45.7311C12.0929 46.5018 12.058 47.2728 12.0266 48.0435ZM26.5509 47.021C26.3201 46.5233 25.8574 46.1449 25.1398 45.9327C24.9194 45.8675 24.6925 45.8098 24.4618 45.7648C23.606 45.5977 22.7254 45.5853 21.844 45.5835C21.8051 45.5835 21.7663 45.5913 21.7273 45.5944C21.5753 45.6062 21.4836 45.6641 21.4606 45.7658C21.4367 45.8716 21.4104 45.9782 21.4058 46.0848C21.3678 46.9358 21.3346 47.7869 21.2999 48.6379C21.3086 48.6379 21.3174 48.6383 21.326 48.6384C21.31 49.0539 21.2911 49.4694 21.2785 49.885C21.2648 50.3441 21.2454 50.8032 21.2507 51.2622C21.2536 51.5094 21.3578 51.5782 21.7118 51.6314C22.1727 51.7005 22.6391 51.7128 23.1048 51.6638C24.0865 51.5605 24.8857 51.2223 25.5313 50.7248C26.9491 49.6326 27.1795 48.3764 26.5509 47.021ZM24.4331 49.7877C24.1776 50.0424 23.8621 50.2482 23.4069 50.3285C22.9524 50.4088 22.8824 50.3725 22.8826 50.0601C22.8831 49.6347 22.8826 49.2091 22.8826 48.9149C22.9489 48.1409 23.0031 47.4989 23.0598 46.857C23.0754 46.6794 23.1392 46.641 23.4007 46.6475C23.8929 46.6597 24.29 46.7995 24.5871 47.068C24.8892 47.341 25.036 47.6545 25.0792 47.9905C25.1624 48.6384 24.9779 49.2445 24.4331 49.7877ZM40.0347 51.6444C39.4722 51.8072 38.9564 51.7732 38.4995 51.469C38.1405 51.2302 37.8859 50.9473 37.6842 50.6392C37.5561 50.4435 37.4379 50.2449 37.3125 50.0482C37.2565 49.9602 37.2818 49.888 37.403 49.8416C37.6853 49.7334 37.9677 49.6246 38.2581 49.5272C38.396 49.481 38.524 49.5225 38.5963 49.6281C38.6624 49.7247 38.7016 49.8297 38.7599 49.9291C38.8256 50.0409 38.8882 50.1543 38.9721 50.2597C39.1254 50.4524 39.427 50.4662 39.5903 50.2769C39.694 50.1567 39.7758 50.0118 39.789 49.8744C39.8263 49.4836 39.8332 49.0908 39.8342 48.6988C39.836 48.1021 39.8232 47.5054 39.8158 46.9085C39.8138 46.7462 39.7772 46.7206 39.5427 46.7237C39.0116 46.7304 38.4806 46.7409 37.9495 46.7459C37.656 46.7486 37.5904 46.6981 37.5833 46.4959C37.5752 46.2646 37.5584 46.0337 37.5517 45.8025C37.547 45.6405 37.6063 45.6001 37.847 45.5999C38.8947 45.5989 39.9424 45.5997 40.9901 45.5999C41.0048 45.5999 41.0196 45.6004 41.0342 45.6008C41.3598 45.6099 41.4326 45.6554 41.4365 45.8791C41.4415 46.1606 41.4338 46.4423 41.4329 46.7239C41.4321 47.0357 41.4327 47.3474 41.4327 47.6591C41.4379 47.6591 41.4431 47.6595 41.4482 47.6597C41.4188 48.3194 41.4013 48.9797 41.3561 49.6391C41.3267 50.0678 41.2498 50.4946 41.0059 50.8972C40.8089 51.2223 40.5291 51.5013 40.0347 51.6444ZM65.5084 46.5694C65.399 46.2283 65.2882 45.8876 65.1719 45.5474C65.1443 45.4666 65.1921 45.4237 65.2949 45.4211C65.7223 45.4097 66.15 45.4033 66.5777 45.4002C66.7129 45.3992 66.7761 45.4695 66.8045 45.5486C66.8879 45.78 66.9759 46.0112 67.0423 46.245C67.263 47.0233 67.4751 47.8027 67.6912 48.5816C67.6981 48.6062 67.7126 48.63 67.7349 48.6794C67.9051 48.2208 68.065 47.7883 68.2263 47.3561C68.3877 46.9234 68.5515 46.491 68.7114 46.0578C68.7355 45.9925 68.7841 45.9583 68.8844 45.9594C69.0319 45.9609 69.1797 45.9579 69.3269 45.9622C69.4701 45.9665 69.5789 46.0072 69.6319 46.1069C70.0343 46.8647 70.4392 47.6219 70.8422 48.3793C70.8805 48.4514 70.9114 48.5254 70.9704 48.5995C70.9983 48.48 71.0275 48.3609 71.0538 48.2412C71.2484 47.3574 71.4454 46.4739 71.6349 45.5895C71.6866 45.3483 71.6541 45.3457 72.0523 45.3388C72.3571 45.3335 72.6619 45.3246 72.9667 45.3196C73.2193 45.3156 73.2387 45.3299 73.2036 45.5036C73.1249 45.893 73.0415 46.282 72.9618 46.6715C72.7587 47.6631 72.5562 48.6549 72.354 49.6466C72.2619 50.0991 72.1706 50.5519 72.0805 51.0046C72.0652 51.0811 72.0549 51.1581 72.048 51.2353C72.0408 51.3175 71.9717 51.3609 71.8615 51.3647C71.5228 51.3762 71.1836 51.383 70.8446 51.3894C70.745 51.3913 70.7022 51.3469 70.6742 51.2854C70.2318 50.3137 69.7871 49.3426 69.3425 48.3712C69.3283 48.3401 69.3085 48.3103 69.277 48.2547C69.1761 48.518 69.0903 48.7568 68.9927 48.9933C68.7179 49.6592 68.4394 50.3244 68.1595 50.9893C68.091 51.152 68.0347 51.1854 67.7861 51.193C67.6053 51.1985 67.4222 51.1923 67.2422 51.1784C67.0789 51.1659 67.0276 51.0709 66.9907 50.9778C66.8591 50.6471 66.7129 50.3188 66.6035 49.9847C66.2313 48.8473 65.8732 47.7081 65.5084 46.5694ZM64.2226 51.3333C63.1947 51.3287 62.1668 51.3251 61.1389 51.3165C60.7378 51.3133 60.696 51.2854 60.6993 51.0119C60.7043 50.5987 60.7138 50.1851 60.7445 49.7726C60.7533 49.6536 60.8186 49.5298 60.8967 49.4211C61.4946 48.5891 62.1042 47.7609 62.7049 46.9297C62.8564 46.7201 62.7489 46.6056 62.4051 46.6073C61.9282 46.6096 61.4513 46.6224 60.9744 46.6286C60.7602 46.6314 60.7413 46.6172 60.7297 46.4696C60.7096 46.2146 60.6854 45.9598 60.6732 45.7044C60.6637 45.5076 60.6847 45.4955 60.9801 45.4872C61.5501 45.4712 62.1202 45.4578 62.6903 45.4432C62.6903 45.4334 62.6903 45.4237 62.6903 45.4139C63.2606 45.4139 63.831 45.4137 64.4012 45.4144C64.5983 45.4145 64.6173 45.4294 64.622 45.5661C64.629 45.7711 64.6335 45.9762 64.6462 46.181C64.6631 46.4512 64.6012 46.7096 64.4284 46.9545C63.8774 47.7348 63.3264 48.5151 62.7771 49.2961C62.6367 49.4959 62.4978 49.6963 62.3688 49.8995C62.2939 50.0178 62.3492 50.0878 62.532 50.1136C62.6463 50.1298 62.7663 50.1338 62.8834 50.1323C63.3455 50.1261 63.8076 50.1132 64.2697 50.1077C64.5572 50.1043 64.6125 50.1424 64.6068 50.3345C64.5993 50.5933 64.5907 50.8521 64.5701 51.1105C64.5554 51.2931 64.4836 51.3345 64.2226 51.3333ZM86.5628 45.4898C86.5337 46.1787 86.485 46.8671 86.4754 47.556C86.4678 48.0895 86.4941 48.624 86.5333 49.1572C86.5473 49.3455 86.6401 49.5315 86.7048 49.7174C86.7237 49.7719 86.7637 49.8245 86.8043 49.874C86.9093 50.0023 87.0429 50.1092 87.2829 50.104C87.5184 50.0989 87.619 49.977 87.7015 49.8535C87.8881 49.5748 87.9431 49.2732 88.0005 48.9735C88.1253 48.3217 88.1253 47.6664 88.1073 47.0105C88.094 46.5267 88.0945 46.0425 88.0913 45.5585C88.0904 45.4302 88.1324 45.4014 88.3155 45.4031C88.699 45.4071 89.0826 45.4151 89.4661 45.4187C89.598 45.4199 89.66 45.4483 89.6552 45.5495C89.6028 46.675 89.5698 47.8007 89.5019 48.9256C89.4659 49.5212 89.3458 50.1112 88.9545 50.6574C88.9156 50.7118 88.8775 50.7663 88.8359 50.8196C88.3082 51.4952 87.083 51.7064 86.1412 51.2862C85.8202 51.143 85.6112 50.941 85.4613 50.7046C85.1877 50.2733 85.0579 49.8185 85.0258 49.3533C84.9789 48.6755 84.9608 47.9967 84.9407 47.5481C84.9881 46.6961 85.022 46.0748 85.0578 45.4534C85.0658 45.3119 85.1353 45.2642 85.337 45.2709C85.6755 45.2822 86.0143 45.2949 86.3516 45.3169C86.56 45.3305 86.5689 45.3432 86.5628 45.4898ZM82.6532 49.6383C82.6929 49.196 82.7003 48.7519 82.7025 48.3085C82.7052 47.7574 82.6905 47.2061 82.6834 46.655C82.6812 46.4854 82.6475 46.4608 82.4037 46.4641C81.8728 46.4708 81.3419 46.4813 80.8109 46.4861C80.5269 46.4887 80.4588 46.4367 80.4512 46.2411C80.4425 46.0093 80.4259 45.7776 80.4191 45.5457C80.4141 45.3766 80.4722 45.3371 80.7215 45.3369C81.764 45.3359 82.8065 45.3352 83.849 45.3374C84.2353 45.3383 84.3051 45.3889 84.3056 45.6517C84.3068 46.2399 84.306 46.8279 84.306 47.6261C84.2855 48.0783 84.2673 48.7402 84.2216 49.4013C84.192 49.8277 84.1138 50.2522 83.8707 50.6523C83.6706 50.9818 83.3848 51.2624 82.8827 51.4035C82.3289 51.5592 81.8212 51.5237 81.3732 51.2253C81.0399 51.0033 80.7902 50.745 80.5992 50.4587C80.4526 50.2388 80.3194 50.0147 80.1784 49.7931C80.1247 49.7088 80.1488 49.6381 80.2642 49.5938C80.5506 49.4837 80.837 49.3728 81.132 49.2741C81.2685 49.2284 81.3947 49.2728 81.4672 49.3799C81.5309 49.4739 81.5678 49.576 81.6249 49.6723C81.6947 49.7902 81.7604 49.9108 81.8508 50.0216C81.9921 50.1949 82.2799 50.2133 82.4348 50.0466C82.5467 49.9263 82.6406 49.7779 82.6532 49.6383ZM76.8671 51.4612C77.4536 51.4139 77.999 51.2893 78.4533 51.0185C78.9027 50.7506 79.1556 50.3993 79.326 50.0189C79.6793 49.23 79.7465 48.4207 79.6373 47.6047C79.5624 47.0445 79.3035 46.5217 78.8384 46.0525C78.5128 45.7239 78.1019 45.4678 77.5303 45.353C77.1297 45.2723 76.7228 45.2876 76.3157 45.317C75.0219 45.4105 74.1378 45.8604 73.7089 46.7121C73.4199 47.2859 73.3508 47.8796 73.3333 48.5437C73.3408 48.6609 73.3448 48.8427 73.3654 49.0234C73.4225 49.5225 73.565 50.0078 73.8925 50.4611C74.192 50.8757 74.6151 51.2035 75.2658 51.3705C75.7869 51.5041 76.3259 51.5048 76.8671 51.4612ZM75.3122 49.7503C75.0609 49.4526 74.9055 49.1309 74.8542 48.7898C74.7636 48.1885 74.8886 47.6163 75.3941 47.1032C75.6549 46.8384 76.0057 46.6623 76.4723 46.6009C77.0226 46.5284 77.4174 46.6369 77.7308 46.9561C77.9831 47.2131 78.0868 47.5085 78.1669 47.8056C78.229 48.0359 78.2524 48.2709 78.2928 48.5039C78.2629 48.8505 78.2173 49.1907 78.0294 49.5149C77.7251 50.0396 76.9159 50.3273 76.1104 50.1963C75.74 50.1361 75.4951 49.9669 75.3122 49.7503ZM58.2952 51.3184C59.1049 51.1131 59.5619 50.6834 59.8425 50.1479C60.1499 49.5614 60.2348 48.9511 60.2577 48.3875C60.2577 48.2233 60.2609 48.1124 60.2571 48.0015C60.2362 47.3842 60.0457 46.7963 59.6004 46.2531C59.0608 45.5949 58.2864 45.2255 57.136 45.2994C56.4957 45.3405 55.8818 45.4289 55.3465 45.6884C54.697 46.0034 54.3706 46.4598 54.1738 46.9675C53.9049 47.661 53.8719 48.3684 53.9513 49.0789C54.0048 49.5574 54.1556 50.0219 54.468 50.4568C54.8111 50.9346 55.3128 51.2935 56.0914 51.4218C56.8373 51.5446 57.5778 51.5003 58.2952 51.3184ZM55.4319 48.7825C55.3423 48.1919 55.4659 47.6287 55.9535 47.1223C56.2836 46.7795 56.7421 46.5891 57.3545 46.5814C57.6655 46.5775 57.9172 46.6558 58.1312 46.8047C58.4179 47.0042 58.5472 47.2569 58.6511 47.5178C58.7805 47.8434 58.8555 48.1746 58.8455 48.454C58.8419 48.8614 58.7929 49.2047 58.5995 49.531C58.2945 50.0453 57.4695 50.3303 56.679 50.1949C56.3554 50.1396 56.1218 50.0001 55.948 49.8125C55.6563 49.4978 55.4878 49.1514 55.4319 48.7825ZM82.393 64.0695C82.2053 64.3933 81.9192 64.7047 81.5946 64.975C80.7184 65.7048 79.2933 65.8985 78.0409 65.4944C77.3617 65.2752 76.8143 64.9406 76.3137 64.5662C76.1718 64.4601 76.1104 64.3343 76.2029 64.2026C76.4806 63.8073 76.7666 63.4145 77.0601 63.0247C77.149 62.9066 77.306 62.8913 77.4643 62.9668C77.6426 63.0517 77.8021 63.157 77.9883 63.2318C78.2873 63.352 78.5866 63.5161 78.9122 63.5529C79.8428 63.6578 80.533 63.0641 80.2551 62.4039C80.1538 62.1636 79.9709 61.92 79.7357 61.7291C79.1754 61.2745 78.5429 60.8612 77.9756 60.4102C77.5131 60.0428 77.0587 59.664 76.6788 59.2563C75.9562 58.481 75.8486 57.6169 76.2583 56.7651C76.7378 55.768 77.8669 55.2357 79.3563 55.0543C80.0947 54.9644 80.8262 55.0322 81.5501 55.1491C81.792 55.1881 81.9294 55.2822 81.9557 55.4529C81.9952 55.7084 82.0394 55.9637 82.0817 56.2188C82.0777 56.2194 82.074 56.22 82.07 56.2205C82.07 56.3063 82.0702 56.3919 82.07 56.4777C82.0693 56.7264 81.9402 56.8304 81.5718 56.8591C81.3976 56.8727 81.2202 56.8669 81.0442 56.8698C80.6085 56.8772 80.1708 56.8684 79.7381 56.8961C79.157 56.9332 78.8075 57.2069 78.7843 57.6073C78.7683 57.8848 78.8771 58.1467 79.1047 58.3702C79.3762 58.6366 79.6743 58.8931 79.9953 59.1327C80.4249 59.4532 80.886 59.7541 81.3363 60.0617C83.0422 61.227 83.2851 62.5312 82.393 64.0695ZM80.1184 52.6778C80.821 52.6553 81.518 52.6969 82.255 52.7753C82.1912 52.8558 82.1541 52.9102 82.1075 52.9606C81.6387 53.4678 81.1655 53.9731 80.7008 54.4822C80.6216 54.5691 80.5372 54.6105 80.3814 54.6059C79.8878 54.5911 79.3936 54.587 78.8996 54.5754C78.8113 54.5734 78.7238 54.5562 78.6062 54.5425C78.6462 54.4768 78.6691 54.4299 78.7023 54.3865C79.1089 53.855 79.5148 53.3231 79.9279 52.7942C79.9666 52.7447 80.0513 52.6801 80.1184 52.6778ZM95 60.3721H94.9348C94.9348 61.9549 94.9352 63.5379 94.9347 65.1207C94.9347 65.3973 94.8595 65.4484 94.4504 65.4544C93.9898 65.4611 93.5292 65.4709 93.0685 65.4723C92.6466 65.4736 92.5378 65.4061 92.4853 65.1188C92.4668 65.0172 92.4642 64.9136 92.4647 64.811C92.4786 61.7767 92.4933 58.7424 92.5092 55.7081C92.5117 55.2454 92.5417 55.2273 93.2113 55.2159C93.6301 55.2087 94.049 55.1902 94.4676 55.1926C94.8774 55.195 94.9625 55.2586 94.989 55.538C94.9998 55.6519 94.9995 55.7663 94.9995 55.8807C95.0002 57.3779 95 58.875 95 60.3721ZM20.5935 55.6875C20.5974 56.1505 20.6192 56.6138 20.6112 57.0767C20.5663 59.6551 20.5149 62.2332 20.4645 64.8116C20.4606 65.0107 20.409 65.0584 20.1061 65.0537C19.3938 65.0429 18.6822 65.0157 17.9703 64.9947C17.732 64.9877 17.6772 64.8953 17.6777 64.744C17.6839 63.0974 17.6815 61.4507 17.6815 59.8041V59.6251C17.6645 59.623 17.6476 59.6208 17.6306 59.6188C17.5942 59.6668 17.5574 59.7145 17.5214 59.7625C16.7564 60.7857 15.992 61.8091 15.2255 62.8318C15.1723 62.9027 15.1105 62.9721 15.0381 63.0344C14.8902 63.1618 14.7683 63.1581 14.6562 63.0121C14.5557 62.8813 14.4914 62.7376 14.4023 62.6023C13.802 61.6901 13.1994 60.7785 12.5965 59.8672C12.5879 59.8543 12.5638 59.8461 12.4724 59.8387C12.4724 60.2414 12.4811 60.6441 12.4708 61.0466C12.4363 62.3957 12.3943 63.7447 12.357 65.0938C12.3484 65.4037 12.2033 65.497 11.7589 65.4682C11.1914 65.4314 10.6237 65.3959 10.0567 65.3562C9.6737 65.3294 9.57467 65.2622 9.57536 64.9968C9.57639 64.5854 9.60046 64.1739 9.60923 63.7622C9.66751 61.0581 9.72631 58.3542 9.78029 55.6501C9.79164 55.0841 9.81845 55.0603 10.6505 55.081C10.7678 55.0839 10.8849 55.0922 11.0021 55.0939C11.5966 55.1026 11.9669 55.2872 12.2396 55.6662C13.1403 56.9178 14.0948 58.1512 15.0291 59.3915C15.0774 59.4556 15.1299 59.5184 15.2098 59.6188C15.3341 59.4608 15.4491 59.3415 15.5267 59.2119C16.1024 58.2493 16.6735 57.2854 17.2398 56.3201C17.386 56.071 17.507 55.8149 17.6449 55.5635C17.7724 55.3309 17.9129 55.2595 18.2701 55.2803C18.9382 55.3191 19.6044 55.3725 20.2716 55.4175C20.5166 55.4341 20.5923 55.5355 20.5935 55.6875ZM91.295 55.471C91.2917 55.831 91.2828 56.1913 91.2647 56.5512C91.252 56.8038 91.1707 56.8409 90.7954 56.8796C90.2913 56.9315 89.7776 56.9712 89.2928 57.072C88.0361 57.3328 87.2009 57.9053 86.8705 58.7757C86.4538 59.8733 86.5382 60.9588 87.2829 61.9841C87.9372 62.885 88.9746 63.4899 90.4474 63.7117C90.9272 63.7839 90.969 63.8305 91.0149 64.1764C91.0534 64.4665 91.1174 64.7555 91.144 65.046C91.1726 65.3556 91.0737 65.4134 90.6162 65.4241C89.418 65.4519 88.2522 65.3626 87.1808 64.9626C85.4587 64.32 84.4225 63.3153 83.9754 62.0314C83.7887 61.4952 83.7208 60.94 83.5987 60.3934C83.6202 60.391 83.6417 60.3887 83.663 60.3865C83.6465 59.5214 83.7849 58.6724 84.2975 57.8718C85.2077 56.451 86.8272 55.6273 89.0317 55.3333C89.6447 55.2516 90.2788 55.2393 90.9047 55.2084C91.2057 55.1936 91.2969 55.262 91.295 55.471ZM54.3875 55.3857C54.3818 55.9401 54.3755 56.4944 54.3725 57.0488C54.3717 57.1991 54.2324 57.2266 54.0557 57.2268C53.5276 57.2273 52.9996 57.2263 52.4716 57.2289C52.095 57.2306 52.0467 57.2508 52.0315 57.5099C51.9994 58.0581 51.9734 58.6069 51.9726 59.1552C51.9691 61.1213 51.9774 63.0871 51.9808 65.0532C51.9813 65.3332 51.7782 65.4734 51.3715 65.4735C50.8518 65.4735 50.3321 65.4766 49.8126 65.4723C49.3453 65.4683 49.2537 65.4016 49.2537 65.0903C49.2538 63.8444 49.2537 62.5986 49.2537 61.3527H49.2401C49.2401 60.0897 49.2409 58.8269 49.2394 57.564C49.2391 57.3284 49.1758 57.2902 48.8264 57.2828C48.282 57.2713 47.7375 57.2601 47.1934 57.2429C46.7775 57.2297 46.7242 57.1874 46.7235 56.9016C46.7225 56.4958 46.7201 56.09 46.7246 55.6843C46.7287 55.309 46.8208 55.2361 47.3632 55.232C49.1985 55.2182 51.0339 55.2107 52.8693 55.204C53.2882 55.2024 53.7074 55.2186 54.1264 55.2164C54.311 55.2153 54.3889 55.265 54.3875 55.3857ZM8.38293 58.7206C8.38293 60.2252 8.40253 61.4031 8.37417 62.5803C8.3611 63.1186 8.18058 63.6444 7.88351 64.1484C7.28987 65.1554 6.12994 65.5728 4.61053 65.6115C2.8169 65.6573 1.56705 65.0348 1.03977 63.843C0.611523 62.8749 0.487404 61.878 0.500986 60.8761C0.523851 59.1956 0.593819 57.5154 0.648833 55.8351C0.653131 55.7046 0.698861 55.575 0.718632 55.4443C0.744076 55.2772 0.89485 55.2063 1.12178 55.1941C1.60625 55.1678 2.09054 55.1379 2.57587 55.12C2.95581 55.1061 3.01306 55.1483 3.01048 55.4114C2.99174 57.2865 2.95701 59.1618 2.96079 61.0369C2.96182 61.5133 3.04847 61.9935 3.16572 62.464C3.21747 62.6717 3.39626 62.8869 3.6005 63.0502C4.10594 63.4545 4.88387 63.3662 5.20433 62.886C5.46221 62.4994 5.54954 62.0822 5.55573 61.6655C5.57034 60.6653 5.55573 59.6648 5.53734 58.6646C5.51791 57.6014 5.47906 56.5383 5.45224 55.4752C5.44536 55.203 5.45052 55.1943 5.8382 55.1778C6.46553 55.1512 7.09372 55.1306 7.72191 55.1199C8.15686 55.1125 8.24248 55.1763 8.25399 55.4647C8.30196 56.659 8.34872 57.8535 8.38293 58.7206ZM24.3667 55.8606C24.3674 57.3692 24.3672 58.8778 24.3672 60.3863H24.2962C24.2962 61.9634 24.2966 63.5406 24.2959 65.1177C24.2959 65.3975 24.223 65.448 23.8169 65.4542C23.3479 65.4613 22.8789 65.4712 22.4099 65.472C22.0142 65.4727 21.9047 65.4046 21.8557 65.1378C21.834 65.0191 21.8247 64.8987 21.8253 64.7792C21.8385 61.7563 21.8533 58.7335 21.8691 55.7107C21.8715 55.2483 21.9054 55.2275 22.57 55.2159C22.9721 55.2089 23.3741 55.1916 23.776 55.1911C24.2381 55.1905 24.3172 55.2444 24.3545 55.5525C24.3669 55.6548 24.3666 55.7578 24.3667 55.8606ZM63.527 55.5401C63.4909 58.0152 63.4588 60.4901 63.4313 62.9651C63.424 63.6168 63.4383 64.2684 63.438 64.9201C63.438 65.2888 63.33 65.3689 62.7928 65.3686C62.2481 65.3682 61.7035 65.3442 61.1587 65.3416C60.7946 65.3399 60.6226 65.2034 60.5183 64.986C59.9164 63.7322 59.3083 62.4796 58.7028 61.2266C58.4931 60.7926 58.2849 60.3583 58.0746 59.9245C58.0495 59.8727 58.0163 59.8228 57.9869 59.7721C57.9603 59.7737 57.9337 59.7751 57.907 59.7766C57.907 60.2082 57.9211 60.6399 57.9044 61.0712C57.856 62.3225 57.7992 63.5738 57.7375 64.8249C57.7102 65.3791 57.5547 65.4733 56.733 65.4735C56.4311 65.4735 56.1294 65.4758 55.8275 65.4726C55.4543 65.4684 55.3789 65.4236 55.3781 65.1717C55.3762 64.5714 55.3822 63.9712 55.3918 63.3711C55.4334 60.7416 55.4775 58.1123 55.5204 55.4828C55.5211 55.4428 55.524 55.4028 55.5215 55.3629C55.5124 55.2243 55.5921 55.1513 55.8111 55.1475C56.4644 55.1365 57.1172 55.1128 57.7705 55.1049C58.1874 55.0999 58.2135 55.1188 58.3322 55.3902C58.8582 56.5943 59.3795 57.7996 59.9073 59.0035C60.1736 59.611 60.45 60.2162 60.7225 60.8224C60.7364 60.8533 60.7564 60.883 60.7736 60.9132L60.8148 60.907C60.8451 60.1933 60.8733 59.4793 60.9061 58.7655C60.9543 57.7201 61.0052 56.6747 61.0562 55.6292C61.0695 55.3586 61.2159 55.2587 61.6165 55.2611C62.1445 55.2643 62.6723 55.2748 63.2 55.2848C63.4397 55.2893 63.5294 55.3752 63.527 55.5401ZM73.7974 56.3958C72.9274 55.5206 71.7499 55.0566 70.1643 55.1195C69.1145 55.1611 68.0989 55.28 67.1776 55.6481C65.9752 56.1285 65.3315 56.8882 64.9462 57.7668C64.4327 58.938 64.3674 60.1406 64.4669 61.3503C64.5262 62.0721 64.7059 62.7815 65.1013 63.4563C65.2562 63.7204 65.4386 63.9804 65.6516 64.2247C66.373 65.0532 67.4504 65.5186 68.8558 65.6071C69.8069 65.667 70.7481 65.6074 71.6619 65.4036C73.1677 65.068 74.0347 64.3177 74.5431 63.3351C75.0801 62.297 75.2122 61.2181 75.2039 60.1289C75.2039 59.8377 75.2319 59.545 75.1989 59.2555C75.0812 58.2243 74.6562 57.2595 73.7974 56.3958ZM72.4828 62.1875C71.9457 63.2461 70.655 63.5571 69.2457 63.4449C68.6098 63.3944 68.1774 63.106 67.8537 62.7468C67.4038 62.2478 67.1342 61.7024 67.0271 61.1229C66.839 60.1055 67.0478 59.1377 67.8656 58.2573C68.4243 57.6556 69.2155 57.3188 70.2791 57.3016C70.7868 57.2935 71.2132 57.412 71.5716 57.6534C71.9 57.8745 72.1309 58.1378 72.2851 58.4323C72.6722 59.1721 72.8603 59.9345 72.8349 60.663C72.8029 61.2191 72.7242 61.7118 72.4828 62.1875ZM45.6324 65.182C45.6367 65.3491 45.5371 65.4255 45.3014 65.4353C45.0337 65.4465 44.7654 65.4546 44.4996 65.4768C44.4246 65.483 44.3088 65.526 44.295 65.5658C44.2048 65.8249 44.0983 66.0861 44.0739 66.3498C44.0507 66.6018 44.2636 66.7046 44.6258 66.6501C44.8094 66.6224 44.9799 66.5533 45.1543 66.4995C45.2345 66.4747 45.3093 66.4417 45.3865 66.4125C45.4114 66.4199 45.4364 66.4271 45.4613 66.4345C45.4061 66.7018 45.3666 66.9711 45.2849 67.2346C45.2648 67.2994 45.1194 67.3704 45.0107 67.3941C44.3127 67.5463 43.6283 67.5599 42.9874 67.2645C42.6171 67.0939 42.4278 66.8604 42.5263 66.561C42.6265 66.2563 42.779 65.9596 42.9116 65.6599C42.9348 65.6075 42.9726 65.5581 43.0242 65.4738C42.3403 65.4738 41.6975 65.4749 41.0549 65.4735C40.2859 65.472 40.2835 65.4709 40.2867 64.9435C40.3062 61.8734 40.3264 58.803 40.3476 55.7328C40.351 55.2299 40.3593 55.2194 41.082 55.217C42.3896 55.2123 43.6974 55.216 45.005 55.2169C45.0972 55.2169 45.1892 55.2225 45.2813 55.2251C45.4948 55.2311 45.5913 55.3003 45.5927 55.4523C45.5964 55.8868 45.6178 56.3211 45.627 56.7554C45.6324 57.0058 45.5419 57.0691 45.1687 57.07C44.7411 57.0708 44.3136 57.0617 43.886 57.0595C43.7354 57.0588 43.5833 57.0586 43.4344 57.0711C43.1423 57.0959 43.0582 57.1647 43.0532 57.3612C43.0391 57.9099 43.0237 58.4588 43.0115 59.0075C43.0063 59.237 43.0761 59.2957 43.4189 59.2919C43.93 59.2864 44.4406 59.2609 44.9516 59.2458C45.5125 59.2293 45.5108 59.2301 45.528 59.6181C45.5462 60.0295 45.5744 60.4407 45.587 60.8522C45.5942 61.0908 45.5318 61.1284 45.1764 61.1325C44.5477 61.1399 43.919 61.1503 43.2903 61.1474C43.0711 61.1464 42.9941 61.1964 42.9953 61.3445C43.001 62.0077 42.9982 62.6709 42.9924 63.3341C42.9914 63.4529 43.0684 63.5177 43.2298 63.5387C43.3278 63.5514 43.4289 63.5575 43.5289 63.5585C44.0824 63.5638 44.6358 63.5662 45.189 63.5704C45.5385 63.5729 45.6267 63.6291 45.6281 63.8611C45.6308 64.3013 45.6208 64.7418 45.6324 65.182ZM39.1185 55.7893C39.1196 56.7668 39.1192 57.7444 39.1192 59.1294C39.0836 59.8767 39.0472 61.0309 38.9662 62.1839C38.9222 62.8115 38.8168 63.4415 38.4701 64.031C38.2911 64.3355 38.0688 64.638 37.7879 64.9026C37.2384 65.4202 36.4462 65.6401 35.5182 65.6398C35.1245 65.6398 34.7846 65.5331 34.4738 65.3782C33.93 65.1074 33.4837 64.7698 33.1789 64.365C32.7892 63.8475 32.4567 63.31 32.097 62.782C31.9813 62.6121 32.0425 62.4786 32.2762 62.3902C32.7448 62.2133 33.2138 62.036 33.6937 61.8741C33.9087 61.8015 34.1142 61.8574 34.2337 61.9993C34.3244 62.1071 34.3806 62.2285 34.4497 62.3445C34.604 62.6033 34.7303 62.8717 34.9163 63.1193C35.1624 63.4467 35.6688 63.4558 35.9822 63.1521C36.2805 62.8633 36.3457 62.528 36.3498 62.1879C36.3625 61.1476 36.3673 60.1073 36.3692 59.067C36.3703 58.5181 36.3587 57.9694 36.3525 57.4205C36.3495 57.143 36.286 57.0969 35.8903 57.1019C34.9767 57.1134 34.0631 57.1313 33.1495 57.1398C32.6814 57.1442 32.5626 57.055 32.5488 56.7317C32.532 56.3318 32.5047 55.932 32.4931 55.532C32.4854 55.2624 32.5836 55.1907 32.9773 55.1902C34.7798 55.1873 36.5824 55.1893 38.3848 55.1905C38.4682 55.1905 38.5522 55.1976 38.6351 55.2057C38.9774 55.2388 39.0587 55.2939 39.1019 55.5326C39.1172 55.6173 39.1185 55.7038 39.1185 55.7893ZM30.9373 63.9132C30.938 64.3192 30.9381 64.725 30.9373 65.131C30.9368 65.3911 30.8996 65.4269 30.5097 65.4401C29.7985 65.4644 29.0864 65.4865 28.3743 65.4911C27.6115 65.4961 26.8484 65.4814 26.0856 65.4723C25.6484 65.4671 25.5953 65.4282 25.5951 65.1313C25.5946 63.5533 25.5949 61.9753 25.5949 60.3975H25.6559C25.6559 58.8825 25.6553 57.3673 25.6571 55.8522C25.6571 55.7211 25.6774 55.5898 25.6814 55.4585C25.6865 55.2846 25.8205 55.2175 26.0656 55.2172C27.2391 55.2155 28.4127 55.2082 29.5863 55.2067C29.9216 55.2064 30.2568 55.2179 30.5919 55.2253C30.8059 55.2299 30.9017 55.3014 30.9029 55.4529C30.9067 55.8874 30.9271 56.3218 30.9359 56.7563C30.9409 57.0061 30.8505 57.0694 30.4769 57.0701C30.0409 57.0708 29.6051 57.0617 29.1691 57.0595C29.0269 57.0588 28.8832 57.0591 28.7426 57.0713C28.451 57.0968 28.3671 57.165 28.3619 57.3621C28.3477 57.9107 28.3322 58.4596 28.3202 59.0083C28.3152 59.2375 28.386 59.2967 28.7288 59.2922C29.2986 59.2848 29.8678 59.2578 30.4373 59.2429C30.7934 59.2336 30.8233 59.2575 30.8343 59.4989C30.8544 59.939 30.8821 60.3786 30.8976 60.8188C30.9072 61.0937 30.8529 61.1286 30.4594 61.1331C29.8391 61.14 29.2186 61.151 28.5985 61.1479C28.3788 61.1469 28.3026 61.1978 28.3038 61.3453C28.3093 62.0027 28.3028 62.6602 28.3038 63.3177C28.3042 63.4911 28.3998 63.55 28.7127 63.5564C29.1567 63.5655 29.6013 63.5648 30.0457 63.5683C30.1798 63.5693 30.3141 63.5697 30.4482 63.5704C30.8726 63.5724 30.9368 63.6168 30.9373 63.9132ZM63.5702 19.0539C62.3834 18.3799 61.1974 17.7024 60.0017 17.044C62.659 11.5975 66.5506 6.69539 69.4345 1.36014C70.0463 0.59032 70.5817 -0.468902 71.7903 0.225946C73.2739 0.956389 74.7583 1.68771 76.2261 2.4534C76.6838 2.69207 78.8443 3.91994 81.405 5.38013C78.5725 9.6971 76.2609 13.2188 75.9038 13.7716C75.7797 13.9638 75.5593 14.0999 75.3679 14.2409C75.0738 14.4578 74.6704 14.5913 74.4798 14.8732C73.3742 16.5053 72.3396 18.1856 71.2341 19.8178C70.7309 20.5606 70.1695 21.2781 69.2297 21.5516C68.1353 21.8701 67.2422 21.3589 66.3723 20.851C65.4149 20.292 64.5336 19.6011 63.5702 19.0539ZM18.1209 24.7088C16.8635 24.7412 16.5907 24.9165 16.5716 25.79C15.6811 38.8162 19.2245 37.4754 8.93703 37.2665C7.36191 37.2486 7.21732 36.7661 7.17073 35.6622C7.20838 24.9541 7.15801 14.0749 6.85956 3.02013C6.81933 1.242 6.91251 1.13112 9.53926 1.17669C14.6531 1.26558 19.7657 1.38985 24.8792 1.48786C25.6616 1.50282 26.143 1.71233 26.1172 2.26481C26.0508 3.68477 26.0312 5.10955 25.8315 6.52178C25.6749 7.62913 25.2834 7.76994 23.6402 7.7309C22.122 7.96957 16.4808 6.6915 16.8229 8.94318C16.7892 11.6684 16.7521 14.3934 16.7244 17.1187C16.7141 18.1366 17.1549 18.5054 18.6587 18.5804C24.4814 18.8278 24.3243 17.2844 24.0727 23.5881C24.1394 25.2648 19.3914 24.4098 18.1209 24.7088ZM92.2486 12.7992C88.6149 19.9804 84.9314 26.937 80.9869 33.5586C80.0352 35.1619 78.6476 36.469 76.9243 37.5065C70.8346 41.191 59.206 35.5295 57.4595 28.1044C59.1856 28.2897 60.9192 28.4138 62.6506 28.5481C65.0875 28.7371 67.4026 28.2775 69.5732 27.1437C69.8493 26.9996 70.1363 26.8178 70.3278 26.5803C71.0928 25.6323 71.874 24.6905 72.5541 23.682C73.9291 21.643 75.2481 19.5658 76.577 17.4961C76.9926 16.8488 77.5231 16.2251 77.22 15.3479C77.193 15.2699 77.3201 15.1329 77.385 15.0294C77.7739 14.4106 80.1607 10.7474 83.051 6.31922C86.5865 8.33705 90.3468 10.4855 91.3137 11.0121C92.5051 11.6608 92.6593 12.0002 92.2486 12.7992ZM31.9568 37.1304C33.8541 37.2619 35.7654 37.3107 37.6727 37.3594C38.9279 37.3915 39.1192 37.2558 39.0869 36.3916C38.9819 32.6375 38.6891 28.8855 38.6881 25.13C38.8562 25.1102 39.0243 25.0904 39.1925 25.0708C42.544 28.6286 45.0312 32.8469 47.8625 36.7825C48.2404 37.3317 48.7154 37.5653 49.6131 37.5426C50.5388 37.2419 58.4757 38.1773 57.308 36.598C54.5876 32.4208 52.1546 29.2485 49.3346 25.1271C49.2483 25.0024 49.1835 24.8579 49.1357 24.7035C48.9423 24.3235 48.7976 23.9116 48.7025 23.4723C48.4812 22.4502 48.4716 21.317 48.6604 20.287C48.9365 18.7812 49.4104 17.3009 49.9202 15.852C50.4165 14.441 51.6231 13.7388 53.0722 14.0803C54.3753 14.3872 55.6853 14.8056 56.8805 15.3997C57.2049 15.561 57.5278 15.7255 57.8496 15.8921C59.7116 10.2391 57.0632 2.79385 48.328 1.75527C46.5927 1.41722 30.4724 0.257415 30.8819 2.19701C29.9135 13.2317 30.1121 24.4708 29.9713 35.5546C29.9751 36.7004 30.3265 37.0174 31.9568 37.1304ZM40.9182 7.43169C43.6856 6.58604 46.6142 8.14427 47.4597 10.9121C48.3052 13.68 46.7473 16.6092 43.9799 17.4548C41.2125 18.3005 38.2839 16.7422 37.4384 13.9744C36.5929 11.2067 38.1508 8.27734 40.9182 7.43169ZM64.4322 23.4491L54.6229 19.2317C54.0203 19.0771 53.576 18.5658 53.5074 17.9474L53.4352 17.2972L64.4322 23.4491ZM62.7546 24.3813L53.5423 21.4516C53.0151 21.3134 52.6265 20.8559 52.5664 20.3025L52.5031 19.7206L62.7546 24.3813ZM51.7575 22.3306L61.077 25.4998L52.7373 23.8579C52.2401 23.7358 51.8737 23.3322 51.817 22.8439L51.7575 22.3306Z" fill="black"/>
</svg>
