<svg width="91" height="85" viewBox="0 0 91 85" fill="none" xmlns="http://www.w3.org/2000/svg">
<path d="M80.8857 60.1784C81.9588 59.636 82.9467 59.1367 83.9762 58.6163C74.5016 39.8225 65.0697 21.1137 55.549 2.22851C49.6052 13.8548 43.737 25.3331 37.8372 36.8732H59.3538V33.4189H50.9267C53.7019 27.9299 56.4189 22.5562 59.2089 17.0376C66.4761 31.5008 73.6679 45.8139 80.8857 60.1784ZM56.9827 13.7117C53.7559 20.1336 50.5203 26.5514 47.2732 32.9631C47.1739 33.1592 46.9445 33.4162 46.7662 33.4242C45.756 33.4685 44.7428 33.4458 43.5958 33.4458C47.5933 25.577 51.5334 17.8214 55.5492 9.91648C56.1184 11.0362 56.6395 12.0152 57.1049 13.0201C57.1866 13.1963 57.0857 13.5068 56.9827 13.7117ZM64.5387 43.3947C58.62 43.3947 52.7012 43.4039 46.7825 43.3805C46.1937 43.3782 45.8847 43.5413 45.6143 44.0806C43.0657 49.1622 40.4853 54.2277 37.9123 59.2972C37.7758 59.5661 37.6231 59.8268 37.4381 60.1638C36.4336 59.6481 35.4679 59.1525 34.4404 58.6251C36.9394 53.5675 39.4184 48.5506 41.9653 43.3957C40.8985 43.3957 39.9776 43.3492 39.067 43.4252C38.8094 43.4468 38.4894 43.7796 38.3539 44.0482C35.7728 49.17 33.2152 54.3035 30.6518 59.4342C30.5399 59.6583 30.4197 59.8781 30.2676 60.1684C29.2334 59.6495 28.2419 59.152 27.2194 58.6388C27.3206 58.4077 27.3922 58.2218 27.4809 58.0448C30.3927 52.232 33.312 46.4229 36.2091 40.6027C36.4425 40.1335 36.6914 39.933 37.2405 39.934C46.3993 39.9525 55.5581 39.947 64.7168 39.9487C64.9418 39.9487 65.1667 39.9704 65.4368 39.9842V43.3946L64.5387 43.3947ZM26.6505 51.4238C26.0789 52.4975 25.5147 53.5712 24.9431 54.6447C20.2687 52.9225 16.2465 50.0987 13.0032 46.0363C4.1843 34.996 4.69416 19.452 14.1381 9.18877C23.4632 -0.951863 38.995 -2.81833 50.3653 4.78012C49.7801 5.78751 49.195 6.78782 48.5648 7.86787C42.527 3.94635 35.8572 2.70631 28.7253 4.50067C23.6038 5.79142 19.3236 8.50585 15.9514 12.5865C9.06547 20.9138 8.4245 32.5148 14.3107 41.6983C17.3751 46.4818 21.8441 49.7215 26.6505 51.4238ZM9.23412 81.8388L10.0799 82.3829C9.89858 82.6549 9.67956 82.9126 9.42261 83.1546C9.16566 83.3967 8.86873 83.6102 8.53117 83.7943C8.19361 83.9792 7.82094 84.1249 7.41343 84.232C7.00512 84.3398 6.55913 84.3933 6.07587 84.3933C5.27004 84.3933 4.52416 84.2519 3.83972 83.9699C3.15446 83.6879 2.56494 83.2975 2.07102 82.7984C1.57777 82.3 1.19241 81.7082 0.915474 81.0228C0.637862 80.3373 0.5 79.587 0.5 78.7702C0.5 77.9542 0.640562 77.2039 0.922495 76.5185C1.20443 75.8331 1.5956 75.2411 2.09384 74.7421C2.59276 74.243 3.18228 73.8534 3.86186 73.5705C4.54212 73.2886 5.28017 73.1473 6.07601 73.1473C6.46866 73.1473 6.85402 73.1887 7.23236 73.2708C7.60989 73.3523 7.96461 73.468 8.29731 73.6157C8.62988 73.7648 8.93179 73.9427 9.20373 74.1504C9.47567 74.3589 9.70265 74.5937 9.88399 74.8557L8.97756 75.5204C8.86617 75.3498 8.71778 75.1784 8.53144 75.007C8.34511 74.8356 8.12596 74.6844 7.87414 74.553C7.62218 74.4222 7.34808 74.3166 7.05048 74.2359C6.75356 74.1553 6.43382 74.1146 6.09113 74.1146C5.39588 74.1146 4.77355 74.2401 4.22467 74.4915C3.67579 74.7428 3.20969 75.0819 2.82716 75.5089C2.44382 75.9358 2.1519 76.4298 1.95071 76.9925C1.74939 77.555 1.6488 78.1476 1.6488 78.7702C1.6488 79.3935 1.75155 79.986 1.95854 80.5486C2.16486 81.1111 2.45962 81.6051 2.84215 82.0321C3.22468 82.459 3.69078 82.7982 4.24047 83.0488C4.78935 83.3001 5.40601 83.4257 6.09126 83.4257C6.70576 83.4257 7.29043 83.3 7.8443 83.048C8.39817 82.7959 8.86091 82.3937 9.23412 81.8388ZM18.8749 73.4202H19.9627V84.1214H18.8749V79.0582H13.0413V84.1214H11.9535V73.4202H13.0413V78.0601H18.8749V73.4202ZM22.8035 73.4202H23.8913V84.1214H22.8035V73.4202ZM27.8198 83.154H32.8068V84.1214H26.732V73.4202H27.8198V83.154ZM35.5262 83.154H40.5133V84.1214H34.4385V73.4202H35.5262V83.154ZM48.643 73.4202L44.0192 84.1214H45.2127L46.3761 81.3098H51.907L53.0862 84.1214H54.2946L49.7008 73.4202H48.643ZM46.7844 80.3125L49.1419 74.629L51.4995 80.3125H46.7844ZM62.243 75.0146C62.0717 74.6568 61.8277 74.3599 61.5108 74.1228C61.1932 73.8865 60.8127 73.7096 60.3694 73.594C59.9261 73.4784 59.433 73.4204 58.8883 73.4204H55.8662V84.1214H56.954V79.1489H58.8582C59.4021 79.1489 59.8982 79.0883 60.3465 78.9677C60.7948 78.8463 61.178 78.6678 61.4957 78.4308C61.8126 78.1937 62.0595 77.8966 62.2359 77.539C62.4122 77.1814 62.5 76.7602 62.5 76.2768C62.5 75.7934 62.4144 75.3722 62.243 75.0146ZM60.7478 77.7274C60.3038 78.0601 59.6543 78.2265 58.7977 78.2265H56.9541V74.357H58.7977C59.6242 74.357 60.266 74.5113 60.7248 74.8182C61.1831 75.1259 61.4122 75.6113 61.4122 76.2766C61.4122 76.9114 61.1902 77.3955 60.7478 77.7274ZM67.0788 73.4202L62.455 84.1214H63.6485L64.8119 81.3098H70.3428L71.522 84.1214H72.7305L68.1366 73.4202H67.0788ZM65.2202 80.3125L67.5778 74.629L69.9353 80.3125H65.2202ZM79.4555 78.7555C79.7874 78.615 80.075 78.4258 80.3163 78.1887C80.5583 77.9524 80.7496 77.6725 80.8908 77.3497C81.0315 77.0278 81.1022 76.6693 81.1022 76.2766C81.1022 75.7526 81.0116 75.3093 80.8302 74.9467C80.6489 74.584 80.3948 74.2892 80.0672 74.0622C79.7396 73.8358 79.352 73.6722 78.9038 73.5709C78.4555 73.4703 77.9694 73.4204 77.4457 73.4204H74.3023V84.1214H75.39V79.1182H77.2037L80.1659 84.1214H81.4956L78.3672 79.0276C78.7606 78.9876 79.123 78.8968 79.4555 78.7555ZM75.3899 78.1815V74.3571H77.3242C77.7275 74.3571 78.095 74.3928 78.4276 74.4628C78.7601 74.5334 79.0421 74.6441 79.2741 74.7953C79.5053 74.9466 79.6866 75.1431 79.8179 75.3852C79.9486 75.6271 80.0143 75.9242 80.0143 76.2768C80.0143 76.9116 79.7773 77.3877 79.304 77.7055C78.8301 78.0225 78.1556 78.1815 77.2791 78.1815H75.3899ZM81.9336 73.4204H90.1848V74.3878H86.6031V84.1214H85.5153V74.3878H81.9336V73.4204Z" fill="black"/>
</svg>
