<svg width="149" height="56" viewBox="0 0 149 56" fill="none" xmlns="http://www.w3.org/2000/svg">
<path d="M7.27989 11.8442H30.014C31.8279 11.8442 33.6121 11.8887 35.2031 12.3944C35.7681 12.5728 36.3035 12.8257 36.7941 13.1529C37.6118 13.7032 37.9539 14.5657 37.8945 15.6663C37.8052 16.8114 37.4633 17.9269 36.9131 18.9382C36.1845 20.3213 35.0248 21.2434 33.5677 21.8087C33.5083 21.8384 33.4487 21.8531 33.3149 21.9127C33.5083 22.0168 33.6718 22.0911 33.8205 22.1953C34.8761 22.8942 35.1884 23.98 34.8167 25.4375C34.5194 26.5975 34.0881 27.7426 33.2108 28.8134C32.0511 30.2411 30.5642 30.9551 28.9733 31.3863C27.5311 31.773 26.0591 31.9663 24.5573 31.9513C16.5877 31.981 8.63312 31.9663 0.663516 31.9663C0.618958 31.9663 0.574264 31.9513 0.5 31.9513L7.27989 11.8442ZM8.02334 27.222C8.12745 27.222 8.18686 27.2368 8.26126 27.2368C14.0452 27.2368 19.829 27.222 25.613 27.2071C26.0739 27.1923 26.5199 27.1029 26.966 26.9691C27.6351 26.7757 28.0217 26.3593 28.2596 25.6456C28.4975 24.9615 28.4083 24.4707 27.8582 24.322C27.2634 24.1436 26.6389 24.0543 26.0145 24.0543C20.5132 24.0394 14.9969 24.0394 9.48067 24.0394H9.07924L8.02334 27.222ZM10.5659 19.6819H14.5357C19.0409 19.6819 23.5461 19.6818 28.0661 19.6669C28.5865 19.652 29.1069 19.5629 29.5976 19.3993C30.2815 19.1911 30.6383 18.6706 30.8317 18.0608C31.025 17.4659 30.9358 17.0048 30.4005 16.8411C29.9544 16.6924 29.4936 16.6181 29.0178 16.6181C23.3082 16.6032 17.5838 16.5884 11.8743 16.6032C11.785 16.6032 11.7107 16.6181 11.6066 16.6181L10.5659 19.6819ZM147.892 11.8591C141.171 11.8591 134.451 11.8442 127.715 11.8739C125.307 11.8888 122.838 12.2161 120.281 13.2868C117.709 14.3427 115.553 16.1869 114.126 18.5664C113.144 20.1727 112.579 21.7935 112.148 23.4146C111.821 24.5449 111.732 25.7347 111.88 26.9096C112.163 28.8132 113.263 30.0625 114.943 30.8507C116.713 31.6836 118.779 31.9513 120.965 31.9661C127.656 31.9958 134.362 31.981 141.052 31.981H141.394L144.993 21.3325H139.09L137.216 26.8651H136.741C132.325 26.8651 127.894 26.8798 123.478 26.8501C122.467 26.8501 121.471 26.7461 120.489 26.5528C118.988 26.2256 118.051 25.3481 118.155 23.6823C118.214 22.6562 118.586 21.6003 119.136 20.5591C119.85 19.1612 121.084 18.1053 122.556 17.5997C123.612 17.213 124.742 17.0197 125.872 17.0197C132.578 17.0048 139.268 17.0047 145.974 17.0047H146.465L148.19 11.8739C148.071 11.8739 147.981 11.8591 147.892 11.8591ZM106.676 32.5014L113.65 11.8739H107.747L103.628 24.069L81.4743 11.3238L74.5009 31.9513H80.4037L84.5222 19.7858L106.676 32.5014ZM66.3379 26.8501H42.2955L47.3508 11.8739H41.4331L34.6382 31.9661H64.078C64.6728 30.2559 65.758 28.5603 66.3379 26.8501ZM68.2708 26.1957C69.505 26.5527 72.9396 27.5641 72.9396 27.5641C72.9396 27.5641 71.7502 30.7466 72.1665 31.5645C74.4265 24.8572 76.6122 18.5516 78.8722 11.8591H72.9843C70.7094 18.5813 70.5309 19.5181 68.2708 26.1957ZM72.9248 0.125L69.2522 7.51638L58.3982 8.14105L68.6873 9.15233L67.349 16.5884L71.0364 9.19701L81.8904 8.57233L71.5865 7.56105L72.9248 0.125ZM146.257 36.175C145.84 36.175 145.424 36.1601 145.022 36.175C144.829 36.1898 144.621 36.2344 144.443 36.3237C142.837 37.2457 141.231 38.1827 139.625 39.1196C139.015 39.4766 138.406 39.8187 137.796 40.1756C137.811 40.0714 137.856 39.9673 137.915 39.8782C138.911 38.4207 139.833 36.9483 140.175 35.3719C140.175 35.2232 140.101 35.0894 139.982 35.015C139.536 34.7324 139.06 34.4648 138.599 34.1971C137.93 33.8104 137.246 33.4238 136.532 33.0074C134.495 34.911 132.488 36.7849 130.481 38.6586C130.511 38.5248 130.555 38.391 130.644 38.272C131.269 37.3797 131.908 36.4875 132.548 35.5951C132.711 35.372 132.681 35.238 132.384 35.0745C131.195 34.435 130.02 33.7956 128.831 33.1561C128.756 33.1264 128.682 33.0966 128.607 33.0668C128.563 33.0965 128.533 33.1114 128.503 33.1561C127.7 34.4797 126.897 35.8182 126.08 37.1417C125.931 37.3797 125.738 37.588 125.515 37.7664C123.85 38.9413 122.155 40.1012 120.459 41.2762C120.251 41.4249 120.013 41.5588 119.79 41.6927C119.999 41.2464 120.237 40.8152 120.504 40.3988C121.604 38.6736 122.72 36.9484 123.835 35.2232C123.939 35.0596 123.85 34.9852 123.686 34.8959C122.883 34.4647 122.095 34.0185 121.292 33.5872C120.92 33.379 120.534 33.1859 120.118 32.9627C119.865 33.3494 119.642 33.6765 119.404 34.0632C119.092 33.736 118.794 33.4683 118.541 33.1858C118.393 33.0222 118.214 32.9627 117.932 33.0371C117.367 33.1709 116.772 33.29 116.237 33.4535C114.586 33.9741 113.025 34.7622 111.613 35.7884C110.973 36.2346 110.438 36.7401 109.754 37.1417C108.877 37.6771 107.896 38.1679 106.959 38.6586C106.29 39.0156 105.606 39.3578 104.922 39.6998L104.803 39.6403C105.115 39.1495 105.353 38.6289 105.74 38.1678C106.542 37.2161 107.405 36.2939 108.282 35.3719C108.639 35.0001 108.654 34.9704 108.133 34.673C107.881 34.5392 107.643 34.3904 107.39 34.2566C106.706 33.8848 106.022 33.4981 105.308 33.0966C102.097 35.0448 99.4948 37.2906 96.9374 39.5512C96.9522 39.4768 96.9819 39.4174 97.0266 39.3578C97.8742 38.0044 98.7068 36.6363 99.5692 35.2829C99.703 35.0746 99.6584 34.9408 99.3908 34.7921C98.4838 34.3013 93.4433 31.2822 92.2687 30.5387C92.1201 30.4643 91.9566 30.3899 91.8078 30.3303C91.7037 30.4642 91.6144 30.5535 91.5402 30.6426C89.2504 33.6914 86.9606 36.7402 84.6709 39.789C82.6784 42.4362 80.6861 45.0835 78.7086 47.7307C78.6045 47.8496 78.5004 47.9686 78.3814 48.0728C78.3368 48.0579 78.307 48.0431 78.2624 48.0282C78.2921 47.939 78.307 47.8348 78.3517 47.7457C79.0356 45.9016 79.7345 44.0425 80.4184 42.1983C81.5336 39.2239 82.2323 37.0376 83.3623 34.0632C83.4813 33.751 83.4813 33.8105 83.0947 33.6022C80.9239 33.4981 77.6528 33.1709 77.3555 33.5427C73.9357 37.8556 71.3039 40.503 67.8841 44.801C67.5273 45.2621 67.1555 45.7081 66.7838 46.1692C66.7392 46.1544 66.7094 46.1544 66.6648 46.1395C66.6797 46.0651 66.7094 45.9909 66.7392 45.9165C67.1854 44.8755 72.5826 30.5684 72.9246 29.572C74.3668 25.3632 70.3227 28.1294 68.3897 33.8105C67.4827 33.7659 66.5757 33.7659 65.6688 33.8105C63.4236 40.384 60.5392 48.8164 60.3161 49.5452C60.2567 49.7683 60.3012 49.9318 60.5689 50.0805C61.6393 50.7051 63.2452 51.7758 64.3157 52.4004C64.4643 52.4897 64.6428 52.5641 64.8658 52.6533L75.8834 40.1012C75.9727 40.1905 75.9727 40.2499 75.9578 40.3094C75.5713 41.6777 75.1995 43.046 74.813 44.3992C74.3223 46.1393 73.8464 47.8941 73.3559 49.6342C73.2518 49.9763 73.4004 50.2441 73.8169 50.4821C74.9023 51.077 75.9728 51.6867 77.0433 52.2816C77.2663 52.4006 77.5191 52.5195 77.7719 52.6533C77.9057 52.5195 78.0098 52.4154 78.0991 52.3113C83.4072 46.6004 88.7003 40.9042 94.0084 35.1934C94.5585 34.5984 95.1087 34.0186 95.6588 33.4237C94.395 35.6247 93.1163 37.8258 91.8673 40.0417C91.2725 41.1124 90.767 42.1833 90.2169 43.2689C90.1128 43.4772 90.1128 43.6556 90.4548 43.7894C90.8117 43.9232 91.1387 44.1017 91.4807 44.2654C92.1498 44.5926 92.804 44.9345 93.5177 45.2915C93.8151 44.7858 94.0827 44.3099 94.3653 43.8191C94.6032 43.4176 94.737 42.9565 95.0939 42.6146C97.2201 40.592 99.5247 38.7776 101.978 37.1862C102.171 37.0673 102.394 36.9482 102.617 36.8143C101.785 37.6621 100.937 38.4651 100.179 39.298C99.7328 39.7888 99.4355 40.3242 99.0935 40.8448C98.9448 41.0827 99.0341 41.2462 99.4056 41.3949C100.298 41.7221 101.16 42.094 102.008 42.4657C102.201 42.5698 102.424 42.555 102.602 42.436C103.271 42.0196 103.955 41.618 104.625 41.2164C105.665 40.5917 106.706 39.9671 107.762 39.3425C107.777 39.3871 107.792 39.4019 107.792 39.4169C107.732 39.5061 107.673 39.5805 107.613 39.6698C106.944 40.5918 106.349 41.5137 106.097 42.5251C105.992 42.9117 106.082 43.2241 106.528 43.5215C107.301 44.042 108.015 44.5774 108.758 45.1129C109.204 45.4402 109.383 45.4402 109.844 45.1129C111.538 43.9381 113.234 42.7633 114.943 41.6031C115.048 41.5437 115.137 41.499 115.241 41.4544C114.929 42.1088 114.646 42.7037 114.349 43.2836C114.23 43.5216 114.274 43.6852 114.616 43.8488C115.508 44.28 116.356 44.7262 117.218 45.1873C117.486 45.336 117.634 45.3359 117.858 45.1574C119.047 44.2057 120.266 43.2687 121.471 42.3318C122.407 41.5882 123.359 40.8595 124.296 40.1161C124.31 40.2202 124.296 40.3242 124.236 40.4133C122.809 43.1795 121.352 45.9458 119.939 48.7268C119.21 50.1693 118.556 51.6417 117.872 53.0991C117.753 53.352 117.813 53.5454 118.14 53.7238C118.556 53.9469 118.958 54.1997 119.359 54.4228C119.88 54.7202 120.4 55.0327 120.965 55.3449C121.04 55.2259 121.084 55.1515 121.129 55.0772C122.08 53.3223 123.017 51.5674 123.998 49.8126C125.188 47.671 126.392 45.5294 127.611 43.4028C127.909 42.8971 128.147 42.3469 128.622 41.9156C129.827 40.8448 131.15 39.8334 132.444 38.8072C132.934 38.4057 133.44 38.0042 134.005 37.558C134.005 37.6324 133.99 37.7067 133.975 37.7811C133.559 38.9411 132.934 40.012 132.161 40.9638C131.135 42.2428 130.154 43.5366 128.117 44.295C127.611 44.4884 127.626 44.6074 128.087 44.8602C128.637 45.1576 129.217 45.4402 129.782 45.7228C130.749 46.2284 130.764 46.2433 131.67 45.7079C132.384 45.2915 133.009 44.8008 133.693 44.3694C137.752 41.7668 141.811 39.1641 145.87 36.5616C146.048 36.4723 146.212 36.3979 146.405 36.3235C146.346 36.2639 146.301 36.2195 146.257 36.175ZM117.218 37.7812C116.861 38.4356 116.519 39.0751 116.148 39.7146C116.058 39.8633 115.94 39.9823 115.806 40.0567C114.021 41.0234 112.222 41.9751 110.423 42.927C110.379 42.9567 110.319 42.9717 110.275 42.9865L110.141 42.927C111.553 40.3244 114.259 38.3614 117.635 36.7551C117.679 36.77 117.709 36.7848 117.754 36.7996C117.575 37.1417 117.397 37.4689 117.218 37.7812ZM59.4835 35.0745C59.4835 35.0745 61.9368 34.0336 65.6391 33.8253C66.888 30.1667 67.9585 27.0733 68.256 26.2107C64.9997 25.7199 59.4835 35.0745 59.4835 35.0745Z" fill="black"/>
</svg>
