<svg width="155" height="31" viewBox="0 0 155 31" fill="none" xmlns="http://www.w3.org/2000/svg">
<path d="M112.227 11.5824C112.236 11.5887 112.26 11.7611 112.987 11.6759C113.714 11.5907 114.19 11.6095 114.45 10.916C114.487 10.8192 114.52 10.7161 114.554 10.6119C114.701 10.1626 114.948 9.71616 115.391 9.43551C116.303 8.85809 117.35 8.67067 118.725 8.56346C118.503 8.37013 118.273 8.18635 118.031 8.02177C117.893 7.92786 117.749 7.85316 117.606 7.77538C116.785 7.36427 115.78 7.20212 114.764 7.36589C113.757 7.52804 112.925 8.04327 112.283 9.52163C111.914 10.3738 112.189 11.5554 112.227 11.5824ZM107.154 11.8737C107.536 12.184 108.638 12.9142 108.833 12.8754C108.903 12.7582 108.96 12.6282 109.034 12.4706C109.151 12.2224 109.298 11.9617 109.407 11.7761C109.407 11.7759 109.371 11.8174 109.371 11.8171C108.94 11.668 108.365 11.1777 107.919 10.44C107.717 10.1063 106.974 7.77444 108.504 7.19499C108.504 7.19499 107.184 7.16221 106.727 7.28165C106.263 7.40511 105.812 8.19266 105.917 9.2305C106.01 10.1525 106.546 11.3809 107.154 11.8737ZM109.876 11.543C109.884 11.544 111.125 11.6385 111.305 11.5265C111.305 11.526 110.854 10.1207 111.034 9.25293C111.214 8.38706 111.653 7.30409 112.778 7.19513H110.461C108.864 7.19513 108.654 8.95549 108.998 10.1203C109.292 11.1127 109.83 11.5382 109.876 11.543ZM109.453 14.2374L111.898 12.8872C111.898 12.8872 111.463 12.905 110.995 12.9236C110.493 12.9435 109.878 12.8872 109.878 12.8872C109.878 12.8872 109.519 13.2409 109.384 13.3127C109.552 13.3092 109.771 13.2984 109.934 13.2855C109.956 13.4094 109.957 13.5256 109.941 13.6414C109.929 13.648 109.676 13.8496 109.676 13.8496L109.453 14.2374ZM112.295 16.6042C112.938 16.1583 113.403 15.8823 113.653 15.703C114.22 15.2951 114.239 14.8161 113.919 14.3749C113.719 14.0981 113.189 13.7443 112.852 13.7678C113.119 13.82 113.997 14.4993 113.767 15.0152C113.558 15.4848 111.444 15.518 110.617 18.3496C110.981 17.6145 111.669 17.0385 112.295 16.6042ZM116.079 13.3933C116 13.409 115.819 13.4412 115.732 13.4532C118.176 16.3196 118.686 20.1281 117.49 23.1869C117.119 24.1369 116.486 24.9521 115.83 25.6047C116.573 25.5288 117.271 25.28 117.922 24.8465C117.966 24.8178 118.009 24.7905 118.054 24.7596C118.195 24.6606 118.33 24.5539 118.464 24.4451C119.964 23.2019 121.395 20.7945 119.185 17.2774C117.889 15.2149 116.089 13.4062 116.079 13.3933ZM115.21 13.3802C114.688 12.8136 114.157 12.3818 114.077 12.3174C113.879 12.175 113.73 12.0213 113.648 11.9274C113.578 11.9441 113.511 11.9561 113.447 11.9662C113.56 12.1106 113.703 12.3013 113.865 12.5416C114.279 13.1518 114.749 14.8547 114.949 16.0183C115.075 16.7518 115.094 17.4741 115.092 17.9078C115.092 17.9373 115.088 17.9661 115.083 17.9941C115.114 21.2506 113.339 24.0422 110.971 25.6344C110.968 25.6364 110.964 25.6383 110.961 25.6403H111.949C113.19 25.6181 115.286 25.052 116.319 22.8127C117.39 20.4903 117.776 16.1647 115.21 13.3802ZM117.052 12.9937C117.052 12.9937 116.671 13.1826 116.535 13.2401C117.221 13.6433 118.714 14.6536 119.943 16.2977C120.73 17.3493 121.153 18.9412 121.274 20.3134C121.351 20.1014 121.428 19.8882 121.495 19.6677C121.585 19.374 121.66 19.0809 121.726 18.7879C121.937 16.8683 121.226 16.1708 120.629 15.4876C119.325 13.9939 117.052 12.9937 117.052 12.9937ZM111.166 23.8354C109.973 24.6665 108.464 25.6127 107.387 25.6379C106.37 25.6315 105.427 25.368 104.56 24.8421C103.682 24.3102 102.923 23.6019 102.284 22.7182C101.644 21.8345 101.143 20.8224 100.78 19.6821C100.418 18.5417 100.236 17.3541 100.236 16.1184C100.236 14.9403 100.427 13.8142 100.809 12.7402C101.191 11.6668 101.711 10.7161 102.369 9.8892C103.006 9.08984 103.743 8.45397 104.576 7.97448C104.381 11.009 107.076 12.8658 107.791 13.102C108.065 13.1927 108.301 13.2353 108.503 13.2408C108.397 13.321 108.266 13.4028 108.094 13.4924C107.438 13.833 105.485 14.8264 105.129 15.1101C104.949 15.2538 104.678 15.4093 104.554 15.6546C104.475 15.8117 104.494 15.9957 104.593 16.1409C104.645 16.2166 104.709 16.2831 104.78 16.3339C104.781 16.3343 104.781 16.3348 104.782 16.3352C104.812 16.3566 104.843 16.3736 104.875 16.389C104.884 16.3932 104.893 16.3978 104.902 16.4016C104.931 16.4138 104.961 16.4228 104.991 16.4289C104.994 16.4295 104.998 16.4311 105.001 16.4317C105.202 16.4654 105.306 16.3452 105.507 16.1585C105.518 16.1485 105.532 16.1384 105.546 16.1282C106.054 15.6436 106.553 15.6197 106.739 15.6312C107 15.3883 107.344 15.1128 107.701 14.8904C107.989 14.7112 109.137 14.1046 109.137 14.1046L108.682 14.6348C108.682 14.6348 108.363 14.8266 107.963 15.0612C107.526 15.3174 106.786 15.7946 106.47 16.4714C106.138 17.1839 106.209 17.6583 106.242 17.8645C106.278 18.0948 106.418 18.4094 106.545 18.6305C106.568 18.6672 106.599 18.7113 106.636 18.7564C106.74 18.8818 106.829 18.9584 106.87 18.9944C106.94 19.0555 107.005 19.1057 107.063 19.1467C107.282 19.2253 107.914 19.4393 108.451 19.497C109.112 19.568 109.878 19.5769 110.28 19.6867C110.682 19.7964 110.896 20.1379 110.737 20.2594C110.557 20.3967 110.343 20.4875 109.96 20.339C109.578 20.1906 109.454 20.0912 109.039 19.9574C108.624 19.8236 108.14 19.7549 107.762 19.6552C107.481 19.5811 107.247 19.4799 107.109 19.4102C106.952 19.4948 106.761 19.6406 106.668 19.8778C106.497 20.3177 106.412 21.1125 106.512 21.4814C106.612 21.8503 106.967 22.049 107.395 22.2051C107.98 22.4179 109.533 22.6592 110.302 22.491C110.888 22.363 111.357 22.0633 111.571 21.2827C111.785 20.5021 111.899 19.8636 112.184 19.367C112.469 18.8705 113.452 18.5865 113.994 18.4731C114.243 18.4208 114.458 18.378 114.466 18.3766C114.3 21.3862 112.065 23.2083 111.166 23.8354ZM105.979 17.3721C105.836 16.9965 106.141 16.3832 106.403 16.0165C105.499 16.1888 105.331 17.0336 105.979 17.3721ZM116.52 9.79798C117.06 10.0966 117.36 10.4551 117.54 10.933C118.886 10.933 120.408 11.3383 121.219 12.2595C121.02 11.7393 120.787 11.2468 120.52 10.7818C120.504 10.7611 120.485 10.7422 120.472 10.72C119.355 8.89987 116.893 9.6764 116.52 9.79798ZM119.909 12.2881C119.549 12.1201 117.903 11.5581 117.57 11.5899C117.574 12.1557 117.483 12.3683 117.322 12.6128C118.079 12.7102 119.741 13.3856 121.207 14.5766C121.48 14.7988 121.718 15.0483 121.936 15.3075C121.922 15.1646 121.908 15.0218 121.888 14.8792C121.5 13.0325 120.613 12.6166 119.909 12.2881ZM115.981 12.1911C115.86 12.3971 115.648 12.5398 115.351 12.6155C115.239 12.644 115.131 12.6566 115.025 12.6566C115.009 12.6566 114.992 12.6545 114.976 12.6538C115.127 12.7982 115.291 12.9624 115.457 13.1412C116.975 13.008 117.216 12.3342 117.25 11.6255C117.265 11.288 117.103 10.8174 116.816 10.4302C116.737 10.3354 116.629 10.2322 116.493 10.1704C116.361 10.1099 116.162 10.0765 116.041 10.1793C116.009 10.2059 115.985 10.2427 115.966 10.2863L115.925 10.461C115.911 10.6055 115.933 10.7897 115.991 11.0043C116.052 11.2307 116.104 11.4745 116.101 11.7059L116.104 11.7192L116.101 11.7232C116.096 11.8902 116.064 12.0502 115.981 12.1911ZM30.7212 15.8161C30.8147 15.6324 30.911 15.4501 31.0011 15.2649C31.4186 14.4053 32.1348 13.9673 33.0738 13.9579C35.7834 13.9309 38.4937 13.8983 41.203 13.9962C41.5692 14.0095 41.9362 14.0098 42.3025 14.002C42.5052 13.9977 42.5879 14.0873 42.5879 14.2751C42.5879 15.559 40.9783 18.1266 40.9783 18.1266L40.6038 18.4423L39.1043 18.4613C39.1043 18.4613 34.3162 18.4621 31.117 18.4623C30.8198 18.4623 30.6707 18.6043 30.6698 18.8884C30.6691 19.3383 30.6823 19.7886 30.665 20.2379C30.6544 20.5128 30.7579 20.6003 31.0315 20.5986C32.4755 20.5895 33.9196 20.5943 35.3637 20.5954C36.63 20.5963 37.8965 20.5908 39.1628 20.6024C40.4285 20.6139 41.6941 20.649 42.9599 20.66C43.272 20.6627 43.3919 20.7703 43.3884 21.0874C43.3749 22.2942 41.7713 24.7084 41.7713 24.7084L40.8587 25.6321C40.8587 25.6321 31.1385 25.6318 25.4732 25.6315C25.3399 25.6315 25.2066 25.6315 25.0733 25.6295C24.6357 25.6225 24.6297 25.6061 24.621 25.1856C24.5094 19.8425 24.5731 14.4989 24.5777 9.15553C24.5781 8.60766 24.6694 8.06127 24.6022 7.51219C24.5801 7.33163 24.6763 7.24685 24.8505 7.23785C24.9502 7.23275 25.0503 7.23194 25.1503 7.23194C30.9932 7.23194 36.8362 7.23194 42.6791 7.23234C42.8012 7.23234 42.9236 7.23127 43.0456 7.23718C43.2245 7.24578 43.2968 7.34318 43.2899 7.5185C43.2374 8.86762 41.6696 11.5664 41.6696 11.5664L41.1937 11.931C41.1937 11.931 35.1184 12.002 31.2753 11.9963C31.1753 11.9962 31.0749 12.003 30.9755 11.9956C30.7449 11.9787 30.665 12.0799 30.6665 12.306C30.6741 13.4688 30.67 14.6317 30.67 15.7945C30.6872 15.8017 30.704 15.809 30.7212 15.8161ZM6.6878 15.7237C6.75621 15.5409 6.8199 15.3562 6.8937 15.1757C7.31805 14.1373 8.06649 13.6207 9.20487 13.6161C11.4155 13.6073 13.6262 13.6136 15.8368 13.6127C16.5155 13.6124 16.3257 13.6101 16.3783 12.5219C16.4556 10.9233 16.4403 9.32185 16.3622 7.72325C16.3443 7.35702 16.4468 7.22737 16.7837 7.22898C18.5167 7.23718 20.2497 7.23772 21.9826 7.22925C22.2912 7.22778 22.404 7.32263 22.4106 7.64506C22.5235 13.1312 22.4488 18.6175 22.4509 24.1037C22.4511 24.487 22.4009 24.8709 22.4098 25.2535C22.4165 25.5431 22.3085 25.6376 22.0221 25.6353C20.8002 25.6255 19.5782 25.6315 18.3563 25.6315C17.8453 25.6315 17.3342 25.6333 16.8233 25.6293C16.4004 25.6259 16.366 25.5896 16.366 25.1776C16.3657 23.1583 16.366 21.1392 16.3663 19.12C16.3663 18.4889 16.3669 18.7176 15.2005 18.6346C12.679 18.4551 10.1475 18.4986 7.62366 18.6429C6.60401 18.7012 6.60172 18.5174 6.60159 19.0985C6.60118 21.1286 6.60105 26.0461 6.60105 26.0461C6.60105 26.0461 2.41196 29.3937 1.20706 30.4008C0.932349 30.6304 0.515154 30.4361 0.51448 30.079C0.507464 26.6656 0.48574 12.8021 0.51448 7.9018C0.517088 7.45487 0.750152 7.23158 1.21367 7.23194C2.8467 7.23221 4.47972 7.2314 6.11274 7.23261C6.57811 7.23302 6.60239 7.25854 6.60226 7.71707C6.60145 10.263 6.60037 12.809 6.59929 15.3549C6.59929 15.4726 6.59929 15.5904 6.59929 15.7081C6.62898 15.7133 6.65826 15.7184 6.6878 15.7237ZM67.3562 25.6317C66.3345 25.6317 65.3127 25.6248 64.291 25.6357C63.974 25.6391 63.7837 25.5212 63.6361 25.2398C63.2737 24.5487 62.8757 23.8757 62.5022 23.1902C62.3787 22.9637 62.224 22.8642 61.9495 22.8651C58.7733 22.8746 55.597 22.8746 52.4208 22.8665C52.1534 22.8659 51.9953 22.9465 51.8671 23.181C51.4767 23.895 51.0578 24.5936 50.6648 25.3061C50.5451 25.523 50.3984 25.6337 50.143 25.633C48.0441 25.628 45.945 25.6285 43.8461 25.6306C43.5691 25.6309 43.5181 25.5657 43.672 25.3111C46.2174 21.1025 48.7551 16.8893 51.2934 12.6764C52.3326 10.9518 53.3707 9.2266 54.4051 7.49916C54.5137 7.31765 54.6631 7.23369 54.8673 7.23355C56.411 7.23275 57.9547 7.23328 59.4983 7.23355C59.7363 7.23355 59.8753 7.36091 59.9938 7.55814C62.1805 11.199 64.3708 14.8376 66.5642 18.4746C67.9334 20.745 69.3089 23.012 70.6815 25.2806C70.8666 25.5864 70.8469 25.6286 70.4877 25.6298C69.4438 25.6333 68.4001 25.631 67.3562 25.6317ZM54.0338 18.7461C54.5928 18.1508 55.2794 17.9685 56.0425 17.9689C57.1404 17.9694 58.2385 17.9697 59.3364 17.9694C59.8818 17.9694 59.8912 17.9634 59.6077 17.4868C58.9165 16.3254 58.25 15.1504 57.5957 13.9684C57.4953 13.7872 57.4381 13.4977 57.1777 13.5101C56.9373 13.5217 56.8576 13.7892 56.7508 13.9759C56.1562 15.015 55.5683 16.0576 54.9766 17.0982C54.6639 17.6483 54.3481 18.1969 54.0338 18.7461ZM77.4552 22.4128C77.5462 22.2072 77.6453 22.0046 77.7267 21.7952C78.0778 20.8927 78.7795 20.4777 79.7175 20.4731C82.3726 20.4601 85.028 20.4593 87.6828 20.4898C88.3367 20.4973 88.9924 20.5243 89.6467 20.5203C89.9751 20.5183 90.0679 20.6446 90.0658 20.9479C90.0557 22.3745 90.0523 23.8013 90.0654 25.228C90.0684 25.5556 89.9381 25.6379 89.6312 25.6368C87.1982 25.6283 84.7652 25.6321 82.3322 25.6318C78.8438 25.6315 75.3553 25.6313 71.8669 25.6306C71.3498 25.6306 71.3587 25.629 71.348 25.1213C71.2352 19.7556 71.3011 14.3893 71.3075 9.02333C71.3081 8.53001 71.3356 8.03682 71.3384 7.54349C71.3398 7.31698 71.4406 7.23073 71.6624 7.23113C73.4622 7.23422 75.2618 7.23651 77.0616 7.23046C77.361 7.22952 77.3998 7.3855 77.3991 7.62894C77.3914 10.1312 77.3896 12.6334 77.3882 15.1355C77.3868 17.495 77.3875 19.8545 77.3879 22.214C77.3879 22.2758 77.3948 22.3376 77.3986 22.3993C77.4174 22.4038 77.4363 22.4083 77.4552 22.4128ZM91.8316 16.444C91.8316 14.2285 91.827 12.0128 91.8341 9.79731C91.8366 9.05208 91.8738 8.30713 91.8847 7.5619C91.8882 7.32451 91.9867 7.22939 92.2264 7.23006C93.9807 7.23463 95.735 7.23396 97.4892 7.23261C97.7338 7.23234 97.8705 7.32652 97.8507 7.58501C97.8481 7.61765 97.8512 7.65084 97.8516 7.68362C97.9172 12.3114 97.9466 16.9395 97.8968 21.5673C97.8837 22.7838 97.8744 24.001 97.8562 25.2177C97.8515 25.5339 97.7368 25.6388 97.4232 25.6369C95.7245 25.6267 94.0256 25.6321 92.3269 25.6297C91.9243 25.6291 91.9026 25.5966 91.8889 25.1946C91.7899 22.2784 91.8306 19.361 91.8316 16.444ZM141.018 18.0099C140.846 17.6556 140.704 17.3744 140.574 17.088C140.191 16.2459 140.001 15.3664 140.004 14.4386C140.013 12.112 140.007 9.78535 139.997 7.45885C139.996 7.22979 140.067 7.1297 140.295 7.13763C140.328 7.13884 140.361 7.13615 140.395 7.13615C142.139 7.13655 143.883 7.14139 145.627 7.13333C145.936 7.13185 146.051 7.22791 146.057 7.55034C146.147 12.5869 146.099 17.6237 146.099 22.6606C146.099 23.5049 146.059 24.3492 146.055 25.1936C146.054 25.4578 145.943 25.5383 145.696 25.5376C144.174 25.5337 142.652 25.5348 141.13 25.5384C140.902 25.539 140.727 25.4537 140.569 25.2967C137.338 22.079 134.105 18.8636 130.873 15.6463C130.576 15.3503 130.292 15.0412 129.996 14.7443C129.934 14.6819 129.868 14.5434 129.761 14.6259C129.663 14.7018 129.759 14.8108 129.809 14.8895C130.219 15.5412 130.483 16.2465 130.612 17.0016C130.669 17.3366 130.713 17.6728 130.713 18.0148C130.71 20.3744 130.712 22.7339 130.711 25.0935C130.711 25.5171 130.695 25.5348 130.257 25.5351C128.557 25.5362 126.857 25.5352 125.157 25.5343C124.636 25.534 124.628 25.5321 124.628 25.0264C124.623 19.4952 124.621 13.964 124.618 8.43274C124.618 8.12549 124.628 7.81783 124.618 7.51098C124.609 7.24927 124.709 7.13212 124.986 7.13333C126.497 7.14005 128.008 7.13843 129.519 7.13548C129.769 7.13494 129.958 7.2263 130.136 7.40202C133.363 10.5933 136.594 13.7796 139.824 16.9681C140.083 17.2241 140.333 17.489 140.591 17.7464C140.689 17.8446 140.78 17.9596 141.018 18.0099ZM118.88 1.75807L115.942 2.70711C115.997 2.80464 116.028 2.90849 116.028 3.01651C116.028 3.5707 115.239 4.01982 114.266 4.01982C113.293 4.01982 112.504 3.57056 112.504 3.01651C112.504 2.65417 112.843 2.33765 113.348 2.16125C113.348 2.16125 112.859 1.83989 112.304 1.29955C111.589 0.603759 111.245 0 111.245 0C111.245 0 110.901 0.603759 110.186 1.29955C109.631 1.83976 109.142 2.16125 109.142 2.16125C109.647 2.33765 109.986 2.65417 109.986 3.01651C109.986 3.5707 109.197 4.01982 108.224 4.01982C107.251 4.01982 106.462 3.57056 106.462 3.01651C106.462 2.90849 106.493 2.80464 106.548 2.70711L103.61 1.75807C104.243 2.42148 106.22 5.88698 106.22 5.88698H116.27C116.27 5.88698 118.247 2.42148 118.88 1.75807ZM151.611 7.13333C152.107 7.13333 152.582 7.25666 153.037 7.50319C153.492 7.74972 153.85 8.10332 154.11 8.56386C154.37 9.02441 154.5 9.50631 154.5 10.0094C154.5 10.51 154.372 10.9876 154.117 11.4419C153.862 11.8961 153.506 12.2504 153.05 12.5044C152.594 12.7585 152.114 12.8856 151.611 12.8856C151.109 12.8856 150.629 12.7585 150.173 12.5044C149.717 12.2504 149.361 11.8961 149.106 11.4419C148.851 10.9876 148.723 10.51 148.723 10.0094C148.723 9.50631 148.853 9.02441 149.113 8.56386C149.374 8.10332 149.731 7.74972 150.186 7.50319C150.641 7.25666 151.116 7.13333 151.611 7.13333ZM151.615 7.69652C151.218 7.69652 150.837 7.79539 150.473 7.99315C150.108 8.19092 149.821 8.47506 149.611 8.84546C149.401 9.21585 149.296 9.60398 149.296 10.0094C149.296 10.4125 149.399 10.7967 149.603 11.1622C149.808 11.5276 150.094 11.8129 150.461 12.0182C150.828 12.2235 151.213 12.3261 151.615 12.3261C152.02 12.3261 152.405 12.2235 152.771 12.0182C153.137 11.8129 153.423 11.5276 153.629 11.1622C153.835 10.7967 153.938 10.4125 153.938 10.0094C153.938 9.60398 153.833 9.21599 153.623 8.84546C153.413 8.47493 153.126 8.19092 152.76 7.99315C152.394 7.79539 152.012 7.69652 151.615 7.69652ZM150.307 11.5489V8.49629H150.929C151.512 8.49629 151.839 8.49884 151.909 8.50381C152.116 8.52128 152.276 8.56198 152.39 8.6258C152.504 8.68961 152.6 8.78728 152.677 8.91868C152.753 9.05007 152.792 9.19597 152.792 9.35611C152.792 9.57644 152.719 9.7648 152.575 9.92118C152.43 10.0776 152.227 10.1747 151.966 10.2122C152.059 10.2472 152.13 10.2854 152.181 10.3266C152.231 10.3679 152.3 10.4462 152.388 10.5613C152.411 10.5914 152.486 10.7153 152.614 10.9331L152.976 11.5489H152.207L151.951 11.0533C151.777 10.7204 151.634 10.5107 151.521 10.4244C151.408 10.3382 151.265 10.2949 151.091 10.2949H150.929V11.5491L150.307 11.5489ZM150.929 9.81424H151.182C151.541 9.81424 151.764 9.80054 151.851 9.77299C151.938 9.74545 152.006 9.69722 152.056 9.62844C152.107 9.55965 152.132 9.48133 152.132 9.39373C152.132 9.30869 152.107 9.23292 152.058 9.16655C152.009 9.10018 151.94 9.05262 151.849 9.02387C151.759 8.99512 151.536 8.98075 151.182 8.98075H150.929V9.81424Z" fill="#1D1D1B"/>
</svg>
