<svg width="106" height="70" viewBox="0 0 106 70" fill="none" xmlns="http://www.w3.org/2000/svg">
<path d="M7.03195 33.0725C3.74408 31.5499 0.553161 28.3384 0.118919 24.5984C0.0244014 24.1442 -0.0184011 23.6809 0.00738869 23.2108C0.152406 20.5687 2.20412 16.4681 5.07016 15.2188C5.95809 14.8168 6.92582 14.6979 7.94296 15.0066C7.97996 15.0178 8.0179 15.0301 8.05652 15.0432C8.08488 15.0528 8.11336 15.0629 8.1424 15.0739C9.31955 15.5037 11.0514 16.7267 10.6975 17.9618C10.2836 19.4062 7.78201 21.6556 8.17561 23.8008C8.50359 25.5882 9.78592 25.842 11.2437 25.0497C13.1127 24.034 14.3104 21.4865 15.2118 19.6796C17.3783 15.3364 19.1264 11.2719 21.193 6.88038C21.2338 6.73938 21.2561 6.60999 21.2647 6.48911C19.5288 6.45278 18.0642 6.60648 16.334 6.88038C13.9305 7.2607 11.4328 8.0805 10.7847 7.74448C10.0283 7.35227 10.1417 4.99038 10.2766 4.33211C10.3817 3.81889 10.5733 3.33581 10.8295 2.89107C11.8642 0.920718 14.1421 0 16.6973 0C19.9844 0 26.2015 1.20728 28.9678 3.18655C28.9476 3.21126 28.9293 3.23679 28.9093 3.26164C29.3726 3.53756 29.8289 3.83294 30.277 4.15343C24.2862 11.517 24.0856 22.1251 18.446 29.7274C15.5755 33.597 11.5788 35.1781 7.03195 33.0725ZM29.9395 11.935C32.8067 9.7645 36.4032 8.66854 38.6859 9.99088C39.6037 10.5226 40.3724 11.1429 40.7964 12.8762C40.9417 13.4067 41.0369 14.0046 41.0725 14.6771C41.0895 14.8771 41.104 15.0856 41.1154 15.3048C41.1237 15.462 41.1192 15.6299 41.1076 15.8031C41.1507 17.1513 41.1769 18.0908 40.8238 19.3226C39.6009 23.5888 35.9507 27.0675 32.2718 28.0711C30.1338 28.6543 26.6353 28.6543 25.2747 26.127C24.8927 25.4174 24.5811 24.613 24.3846 23.7695C24.1213 23.0786 24.0125 22.3042 24.1085 21.4611C24.4733 18.2584 26.875 14.255 29.9395 11.935ZM33.3098 16.2324C33.3465 16.4153 33.3989 16.5664 33.4638 16.6896C34.5964 17.1889 36.498 15.8306 36.7283 14.1926C36.4158 12.4162 32.985 14.6163 33.3098 16.2324ZM29.0289 21.6332C29.0713 21.8442 29.1318 22.0185 29.2068 22.1606C30.319 22.6509 31.8831 21.8498 32.6606 20.6833C32.9703 20.2185 33.033 19.9993 33.0212 19.3636C32.5852 17.4266 28.6584 19.7885 29.0289 21.6332ZM16.2368 39.5412C15.861 39.5412 15.5565 39.8459 15.5565 40.2217C15.5565 40.5974 15.861 40.9021 16.2368 40.9021C16.6125 40.9021 16.917 40.5974 16.917 40.2217C16.917 39.8459 16.6124 39.5412 16.2368 39.5412ZM15.9884 38.3531C15.9884 38.0191 15.7177 37.7484 15.3838 37.7484C15.0499 37.7484 14.7792 38.0191 14.7792 38.3531C14.7792 38.6871 15.0499 38.9579 15.3838 38.9579C15.7177 38.9579 15.9884 38.6871 15.9884 38.3531ZM17.8889 37.7915C17.8889 37.4694 17.6278 37.2084 17.3059 37.2084C16.984 37.2084 16.7229 37.4694 16.7229 37.7915C16.7229 38.1137 16.9839 38.3748 17.3059 38.3748C17.6279 38.3748 17.8889 38.1137 17.8889 37.7915ZM18.0832 38.7636C17.7612 38.7636 17.5002 39.0247 17.5002 39.3468C17.5002 39.6689 17.7612 39.9299 18.0832 39.9299C18.4053 39.9299 18.6663 39.6689 18.6663 39.3468C18.6663 39.0247 18.4051 38.7636 18.0832 38.7636ZM24.5041 41.5094C21.368 43.9076 19.9843 46.0302 17.519 46.4413C14.5622 46.9343 13.1379 45.4959 12.0862 43.0894C11.2942 41.4115 10.928 39.9124 11.1202 38.6462C11.1591 38.2764 11.2642 37.9208 11.4477 37.574C11.8243 36.7894 12.4925 36.1264 13.4998 35.6046C15.6985 34.2296 19.1152 34.5616 21.652 33.8235C21.7825 33.7844 21.9127 33.7451 22.0387 33.7008C24.4316 32.861 27.6444 30.8853 28.9447 32.1593C29.5708 32.7726 29.9888 33.305 30.2655 33.9171C30.7305 34.7613 31.0431 35.6951 31.0782 36.5777C31.1388 38.1023 27.6402 39.1112 24.5041 41.5094ZM20.6328 37.3861C20.0269 36.2362 20.2212 35.4586 16.917 36.0418C13.4949 36.6457 12.4466 38.1803 13.6128 40.7076C14.4537 42.5301 16.8884 43.0149 19.055 41.4853C22.3592 39.1523 21.287 38.6276 20.6328 37.3861ZM24.7989 36.2544C25.4156 37.6225 26.0944 37.576 27.6071 36.8193C29.5928 35.8261 29.602 35.4293 28.8439 34.1584C27.9958 32.7366 27.6765 32.5141 25.9915 33.3537C24.1086 34.292 23.9142 34.292 24.7989 36.2544ZM48.1126 55.4341C46.9612 59.0073 44.7741 61.2138 41.5298 63.0606C35.3056 66.6036 25.1104 65.6599 23.7847 57.362C23.5557 55.9282 23.7403 54.3619 24.1799 52.7902C24.4286 51.8018 24.8363 50.7607 25.334 49.7232C26.1491 47.9743 27.1673 46.3296 28.1568 44.9792C28.72 44.1727 29.2671 43.4468 29.7451 42.8461C30.9331 41.3534 32.7182 39.7656 34.4137 38.4998C34.5332 38.4096 34.6539 38.3216 34.7749 38.2341C34.8958 38.1466 35.0159 38.0605 35.135 37.9767C35.1681 37.9538 35.2008 37.9301 35.234 37.9075C36.3562 37.1249 37.3851 36.5234 38.1028 36.2363C39.2998 35.7573 41.0247 34.9537 42.9673 35.6021C42.981 35.6062 42.9941 35.6114 43.0076 35.6155C43.0566 35.6324 43.1056 35.6504 43.1549 35.669C43.2391 35.6999 43.3223 35.7339 43.404 35.7717C43.5791 35.8493 43.7556 35.9379 43.9336 36.0416C43.9697 36.0628 43.9877 36.0921 43.9918 36.1278C44.066 36.1852 44.14 36.243 44.2104 36.3088C46.064 38.0417 43.1646 39.1261 41.8945 40.3455C38.7021 43.4105 35.8534 47.3331 34.1874 51.4489C34.0285 51.8414 33.795 52.4089 33.5763 53.0478C34.7813 53.8222 36.3947 52.5714 37.2038 51.7759C39.9622 49.064 41.7216 46.8489 39.9322 43.3488C42.4476 42.4905 48.3998 38.7887 46.8496 35.4602C45.0716 32.3754 39.9284 32.1778 35.6765 34.4461C34.6656 34.9854 33.7053 35.5618 32.7972 36.1524C32.8753 35.0927 32.6872 33.9842 32.1965 32.9447C32.1469 32.8388 32.0944 32.7357 32.039 32.6329C31.5791 31.7792 31.0936 30.9506 30.328 30.4039C30.8645 30.0462 31.4915 29.725 32.1837 29.4409C34.2009 28.5833 36.5851 28.1035 39.0366 28.014C42.4599 27.8195 45.9693 28.2938 48.3353 29.5909C48.5859 29.7282 48.8359 29.8859 49.0828 30.0598C49.1797 30.1102 49.278 30.1591 49.3732 30.2114C52.3822 31.861 54.7116 34.8957 53.9701 38.4806C53.1747 42.3271 49.0236 44.9979 45.6179 45.9891C48.5753 48.7274 49.4241 51.3639 48.1126 55.4341ZM30.5226 55.8229C30.5226 56.1719 30.9141 56.4547 31.3973 56.4547C31.8804 56.4547 32.272 56.1719 32.272 55.8229C32.272 55.4739 31.8804 55.1911 31.3973 55.1911C30.9141 55.1911 30.5226 55.4741 30.5226 55.8229ZM29.7451 56.6492C29.7451 56.005 29.0054 55.4827 28.0931 55.4827C27.1807 55.4827 26.441 56.005 26.441 56.6492C26.441 57.2934 27.1807 57.8157 28.0931 57.8157C29.0054 57.8157 29.7451 57.2934 29.7451 56.6492ZM34.2155 59.0793C34.2155 58.1667 33.1712 57.4268 31.8831 57.4268C30.595 57.4268 29.5507 58.1667 29.5507 59.0793C29.5507 59.9919 30.595 60.7317 31.8831 60.7317C33.1712 60.7317 34.2155 59.9919 34.2155 59.0793ZM74.8491 57.0146C73.2909 56.8688 72.0078 55.8507 70.8588 54.8375C70.2257 54.2791 69.79 53.5791 69.4944 52.8346C69.4155 52.7298 69.3475 52.6181 69.2844 52.5035C67.9205 54.4847 65.9492 57.0221 63.6501 57.5944C60.9266 58.2724 59.8412 55.6403 59.733 53.3692C58.2797 55.2343 55.1894 59.4379 52.4088 57.1359C49.9969 55.1391 50.0471 51.094 51.0397 48.3799C51.0671 48.2839 51.0953 48.1885 51.1251 48.0951C52.4857 43.8181 55.2068 40.9019 57.5391 39.7354C57.6307 39.6896 57.7199 39.6481 57.8081 39.6085C57.8475 39.59 57.8868 39.574 57.9261 39.5568C57.941 39.5505 57.9561 39.5435 57.9707 39.5373C59.955 38.6897 61.8973 39.4114 62.9748 41.1128C64.92 39.8177 66.745 39.5742 68.0348 39.7354C68.3595 39.7761 68.6077 39.845 68.7962 39.9359C68.8304 39.9436 68.8642 39.9503 68.8987 39.9589C72.2767 40.8002 70.0226 42.4047 68.815 44.291C68.0426 45.4974 67.343 46.7606 66.7643 48.0717C66.4332 48.822 65.4519 50.4898 65.757 51.3605C66.0698 52.2527 67.5486 52.1217 68.4953 50.8591C68.6236 50.688 68.7296 50.5497 68.8201 50.438C68.8135 49.8499 68.8799 49.2701 68.9665 48.7737C69.004 48.3018 69.0677 47.9257 69.1265 47.7027C69.4023 46.6536 69.8156 45.7118 70.3079 44.8318C71.974 41.6147 74.4929 39.6832 76.0038 35.6528C76.5869 34.0975 76.6163 32.6918 76.7813 32.5423C76.8785 32.4541 77.2378 32.3621 77.6973 32.3177C78.1954 32.2125 78.7485 32.1425 78.9193 32.1535C80.0268 32.2248 81.2818 32.9053 81.8348 33.7088C83.5002 36.129 81.3236 37.6588 79.8993 39.3372C79.9161 39.3343 79.9327 39.3315 79.9494 39.3288C83.9926 38.0137 86.1099 40.7264 85.9165 44.5958C85.7644 47.6363 84.4567 49.783 82.7099 52.2082C80.9339 54.6741 78.1407 57.3228 74.8491 57.0146ZM61.214 44.2589C60.5205 44.7016 59.7614 45.4958 59.5557 45.7645C58.8028 46.749 57.3575 48.8719 57.6342 50.2024C57.6536 50.296 57.6773 50.3792 57.7032 50.4563C58.2129 50.2754 58.7622 49.7417 59.1216 49.2451C60.1057 47.8857 60.9558 46.0129 61.214 44.2589ZM79.9925 43.228C79.4471 42.6239 78.1044 43.7643 77.5111 44.4297C76.4771 45.5895 75.2856 47.3667 75.1483 48.9643C75.065 49.9337 75.329 50.3384 75.7364 50.4059C76.5263 50.1549 77.3941 49.5238 77.9474 48.8727C79.5535 46.9826 79.8986 45.6088 79.9925 43.228ZM104.725 40.2876C104.433 39.8086 103.981 39.1327 103.445 38.551C103.315 38.3973 103.169 38.254 103.009 38.1221C102.502 37.6708 101.945 37.3521 101.386 37.3629C100.971 37.29 100.537 37.2944 100.105 37.4026C99.1897 37.6317 99.5543 38.1504 99.4656 39.0348C99.4025 39.663 99.303 40.2848 99.1809 40.9039C98.9626 42.0114 98.6576 43.0982 98.2914 44.1656C97.6392 46.0667 96.8763 48.2174 95.2396 49.5089C94.5613 50.0441 93.6991 50.1843 93.0443 49.9545C93.043 49.6932 93.1072 49.3642 93.2574 48.9551C93.9591 47.0434 95.4564 45.4178 95.8312 43.38C96.1877 41.4416 95.3352 39.5146 93.6858 38.5845C93.294 38.3419 92.808 38.1432 92.2173 37.9789C91.594 37.8053 90.3398 37.5812 89.7343 37.8937C88.8287 38.3614 89.3225 39.5141 89.1978 40.5601C88.6962 44.7706 83.7916 47.5671 84.5145 52.0193C84.5553 52.2702 84.6189 52.5048 84.6988 52.7257C84.71 52.8661 84.7267 53.0074 84.7498 53.1497C85.0501 54.9991 86.7858 56.6631 88.9305 56.5222C90.414 56.4249 91.7756 55.4246 92.9967 54.4205C92.2401 55.7732 91.3221 57.2102 88.8408 60.4367C86.8199 63.0647 84.5048 63.3033 83.0894 62.3129C82.2265 61.3762 81.9765 59.9493 82.8061 58.7877C83.2829 58.1201 83.3167 56.3783 83.1928 56.031C83.1379 55.1738 75.3608 61.42 79.8012 66.6016C80.08 66.9269 80.4394 67.2212 80.8647 67.4692C82.7671 69.1243 86.9401 70.4037 91.0673 67.4014C96.1396 63.7115 103.251 50.5474 104.675 46.1794C105.307 44.2397 105.857 42.1434 104.725 40.2876ZM45.5563 26.0223C49.0572 26.4638 51.5413 23.222 52.0125 22.5356C52.5566 24.3526 53.7719 25.9132 55.505 26.0223C57.9447 26.1758 59.8308 24.8269 60.9373 23.7327C61.2524 24.3092 61.7572 24.7896 62.3983 25.1547C64.667 26.4464 68.641 25.0276 69.9785 23.7938C69.9948 23.8954 69.9918 24.0302 69.9623 24.192C69.9504 24.2567 69.9343 24.3257 69.9134 24.3986C69.8821 24.508 69.8399 24.626 69.7856 24.7514C69.695 24.9603 69.5703 25.1897 69.4039 25.4328C69.3374 25.53 69.2642 25.6294 69.1838 25.7307C68.8623 26.1356 68.4269 26.5691 67.8467 27.0044C67.5565 27.222 67.2303 27.4401 66.864 27.6554C66.6807 27.763 66.4877 27.8699 66.2842 27.9756C66.1824 28.0284 66.078 28.0811 65.9708 28.1332C65.23 28.4945 64.3262 28.7319 63.3518 28.8804C62.2383 29.05 61.0325 29.1035 59.8729 29.0928C59.583 29.0901 59.2959 29.0835 59.014 29.0735C58.7321 29.0635 58.455 29.0505 58.1852 29.035C58.0503 29.0273 57.9172 29.0189 57.7862 29.0102C57.5241 28.9925 57.2704 28.9729 57.0271 28.9521C56.7838 28.9313 56.5509 28.9092 56.3305 28.887C56.1101 28.8647 55.9025 28.842 55.7095 28.8197C55.1307 28.753 54.6844 28.6905 54.4293 28.654C53.3647 28.5019 52.7066 28.3801 52.2074 29.1002C51.9269 29.5047 52.4345 30.1553 53.0182 30.7868C53.3915 31.2087 53.8639 31.7144 54.3254 32.3247C54.755 32.9912 55.2888 33.7132 55.7156 34.9215C55.829 35.2738 55.9219 35.6459 55.9843 36.0415C56.3343 38.2586 66.1892 35.53 69.2908 33.2894C74.9709 29.1861 77.5588 23.4049 78.8236 20.516C79.8614 18.1458 81.0951 14.857 80.9259 12.1908C80.8495 10.9873 80.3187 10.1075 79.5479 9.4725C79.4278 9.37364 79.3012 9.28102 79.1702 9.19364C79.1603 9.18702 79.1501 9.18066 79.1402 9.17418C79.0169 9.09328 78.8893 9.01711 78.7579 8.9458C78.7447 8.93864 78.7315 8.93149 78.7181 8.92433C78.5858 8.85369 78.4498 8.78778 78.3109 8.72633C78.3004 8.7216 78.2898 8.71674 78.2793 8.71215C77.9821 8.58249 77.6718 8.47295 77.3546 8.38098C77.3419 8.37733 77.3292 8.37381 77.3166 8.3703C77.1688 8.32816 77.0196 8.28981 76.8698 8.2551C76.8534 8.25132 76.8371 8.24754 76.8206 8.24389C76.6706 8.20999 76.52 8.1795 76.3695 8.15235C76.3565 8.15005 76.3437 8.14746 76.3309 8.1453C76.1695 8.11681 76.0084 8.09182 75.8479 8.07062C75.8476 8.07062 75.8483 8.07075 75.8479 8.07062C75.8479 11.2115 74.907 14.5444 73.472 17.3305C73.472 17.3307 73.4721 17.3303 73.472 17.3305C72.8294 18.5516 72.0407 19.3503 71.2659 19.8733C71.0835 19.9819 70.8937 20.0776 70.6942 20.1539C69.0479 20.7848 68.7057 19.989 69.28 18.5642C70.3164 15.9925 73.206 12.8723 71.1559 10.0445C71.1229 9.99899 71.0845 9.95616 71.048 9.9124C71.0479 9.91011 71.0477 9.90806 71.0475 9.90577C71.0353 9.89132 71.0213 9.8789 71.0088 9.86472C70.9759 9.82717 70.9409 9.79071 70.9054 9.75438C69.6832 8.47904 67.509 8.21974 65.5927 8.21974C65.5634 8.22379 65.5673 8.28173 65.5869 8.39396C65.5968 8.45001 65.6104 8.5197 65.6258 8.60276C65.6489 8.72742 65.6758 8.88259 65.6988 9.0683C65.7298 9.31586 65.7539 9.61771 65.7539 9.97386C65.7539 10.241 65.7402 10.5386 65.7052 10.867C65.6936 10.9764 65.6795 11.0893 65.6629 11.2056C65.6131 11.5543 65.5395 11.9337 65.4349 12.3437C65.2952 12.8904 65.1003 13.4917 64.8321 14.1475C64.698 14.4754 64.5457 14.817 64.3728 15.1723C64.1135 15.7053 63.8081 16.2689 63.449 16.8634C63.2096 17.2596 62.9465 17.6697 62.6573 18.0935C62.5126 18.3054 62.3616 18.5207 62.2036 18.7393C61.8537 19.1432 61.5677 19.5351 61.336 19.9149C60.6601 20.8235 58.963 22.3401 58.2404 21.0561C57.4586 19.6666 59.3135 16.898 59.9815 15.7977C61.1568 13.8619 62.4786 11.9965 63.5314 9.9887C64.4077 8.3175 65.2684 6.5769 63.7842 4.99457C62.8452 3.9934 61.5051 3.508 60.1625 3.23613C59.755 3.11309 59.308 3.00276 58.8044 2.87689C58.8548 3.17131 58.8868 3.46206 58.9021 3.7496C58.9291 4.63017 58.827 5.45904 58.6281 6.24994C57.4117 10.8309 52.6704 14.6841 51.8166 19.0809C51.7128 19.2305 51.5933 19.43 51.4533 19.6943C51.0017 20.5469 49.0867 22.4691 48.2916 21.0561C47.5097 19.6666 49.3646 16.898 50.0327 15.7977C51.2081 13.8619 52.5298 11.9965 53.5826 9.9887C54.4589 8.3175 55.3196 6.5769 53.8355 4.99457C52.8228 3.91493 51.3438 3.43479 49.8979 3.17575C49.5466 3.07607 49.1661 2.98183 48.746 2.87689C49.7645 8.82886 43.3841 13.4764 41.9873 18.6774C41.9595 18.773 41.9298 18.8678 41.9045 18.9646C40.9692 22.5547 42.7028 25.6623 45.5563 26.0223ZM86.6452 13.7423H85.6622V9.78991H87.4297C87.9302 9.78991 88.2925 9.89077 88.5169 10.0927C88.7412 10.2945 88.8534 10.5649 88.8534 10.904C88.8534 11.1687 88.7679 11.398 88.5967 11.5918C88.4255 11.7856 88.156 11.9261 87.788 12.0132C87.9398 12.0713 88.0512 12.1326 88.1221 12.1973C88.2222 12.2877 88.3272 12.4218 88.4368 12.5994C88.4433 12.6122 88.6564 12.9935 89.076 13.7425H87.9139C87.5362 12.99 87.2826 12.5404 87.1536 12.3934C87.0245 12.2466 86.8952 12.1731 86.7662 12.1731C86.7371 12.1731 86.6966 12.178 86.6451 12.1877L86.6452 13.7423ZM86.6452 11.4658H87.0713C87.3553 11.4658 87.5555 11.4199 87.6718 11.3277C87.788 11.2358 87.8461 11.1171 87.8461 10.9718C87.8461 10.8265 87.7905 10.7078 87.6789 10.6159C87.5678 10.5237 87.3781 10.4778 87.1101 10.4778H86.6452V11.4658ZM84.1393 13.6165C83.8083 13.0449 83.6428 12.4281 83.6428 11.7662C83.6428 11.1074 83.8082 10.4914 84.1393 9.91834C84.4701 9.34502 84.9213 8.89379 85.4927 8.56439C86.0642 8.23498 86.6792 8.07037 87.3377 8.07037C87.9995 8.07037 88.6162 8.23498 89.1876 8.56439C89.759 8.89379 90.2103 9.34502 90.5412 9.91834C90.8719 10.4914 91.0374 11.1074 91.0374 11.7662C91.0374 12.4281 90.8719 13.0449 90.5412 13.6165C90.2103 14.188 89.759 14.6385 89.1876 14.9679C88.6162 15.2973 87.9995 15.4619 87.3377 15.4619C86.6791 15.4619 86.0642 15.2973 85.4927 14.9679C84.9213 14.6385 84.4701 14.188 84.1393 13.6165ZM84.3546 11.7662C84.3546 12.5896 84.646 13.2929 85.2286 13.8755C85.8114 14.4584 86.5145 14.7499 87.3377 14.7499C88.161 14.7499 88.8639 14.4584 89.4468 13.8755C90.0295 13.2927 90.3209 12.5896 90.3209 11.7662C90.3209 10.9427 90.0295 10.2395 89.4468 9.65686C88.8641 9.07396 88.161 8.7825 87.3377 8.7825C86.5145 8.7825 85.8115 9.07396 85.2286 9.65686C84.646 10.2396 84.3546 10.9427 84.3546 11.7662Z" fill="#1D1D1B"/>
</svg>
