<svg width="107" height="43" viewBox="0 0 107 43" fill="none" xmlns="http://www.w3.org/2000/svg">
<path d="M55.6798 20.8938C55.6798 25.3475 52.437 29.8561 46.239 29.8561H11.9033L7.12393 23.0128H46.239C48.5635 23.0128 48.8146 21.5309 48.8146 20.8938C48.8146 20.3752 48.6287 18.6826 46.239 18.6826H16.5308C13.781 18.6826 11.3255 17.6708 9.61639 15.8336C8.94813 15.1152 8.41075 14.2942 8.01623 13.4043H5.99389C5.42226 13.4043 4.95468 12.9381 4.95468 12.3684V10.6133H1.23067C0.762166 10.6133 0.378906 10.2312 0.378906 9.7643C0.378906 9.29741 0.762283 8.91526 1.23067 8.91526H4.95468V7.16033C4.95468 6.59052 5.42226 6.12432 5.99389 6.12432H7.92413C8.32539 5.1521 8.89331 4.25708 9.61604 3.48352C11.3222 1.65739 13.7779 0.651604 16.5308 0.651604H45.0375L49.8344 7.4949H16.5308C15.6806 7.4949 15.0444 7.7144 14.64 8.14737C14.2947 8.5169 14.0967 9.06517 14.0967 9.65142C14.0967 10.3092 14.334 11.8393 16.5308 11.8393H46.239C49.0119 11.8393 51.4944 12.8451 53.2293 14.6716C54.8096 16.3352 55.6798 18.5449 55.6798 20.8938ZM18.9115 36.0428C19.2165 36.3483 19.3692 36.7118 19.3692 37.1335V42.5661H17.8154V39.4607H16.254V42.5661H14.6999V37.1335C14.6999 36.7095 14.8525 36.3453 15.1579 36.0409C15.463 35.7367 15.8283 35.5845 16.254 35.5845H17.8154C18.2409 35.5845 18.6063 35.7374 18.9115 36.0428ZM17.8154 37.1335C17.8154 36.9227 17.738 36.7415 17.5836 36.59C17.4291 36.4385 17.2463 36.3626 17.0346 36.3626C16.8205 36.3626 16.6369 36.4385 16.4837 36.59C16.3305 36.7415 16.254 36.9226 16.254 37.1335V38.6899H17.8154V37.1335ZM25.4656 35.5845H23.9115V42.5662H27.8003V41.788H25.4657L25.4656 35.5845ZM32.3496 42.5662H36.2384V41.788H33.9038V39.4608H35.4652V38.6899H33.9038V36.3627H36.2384V35.5845H32.3496V42.5662ZM43.9033 37.1336H44.6766C44.6135 36.1011 44.0954 35.5847 43.1225 35.5847H42.342C41.9139 35.5847 41.5481 35.7375 41.244 36.0429C40.94 36.3484 40.788 36.712 40.788 37.1338V37.5264C40.788 37.9192 40.9401 38.284 41.244 38.6209L42.8927 40.4609C43.0459 40.6282 43.1225 40.81 43.1225 41.0063C43.1225 41.2609 43.0616 41.4548 42.9401 41.5882C42.8184 41.7215 42.6191 41.7881 42.3419 41.7881C42.1473 41.7881 41.9685 41.7336 41.8056 41.6244C41.6426 41.5153 41.5613 41.3554 41.5613 41.1444C41.5613 41.1129 41.5636 41.0706 41.5685 41.0172H40.7877C40.7877 41.5311 40.9179 41.9177 41.1781 42.1772C41.4383 42.4366 41.8261 42.5662 42.3418 42.5662H43.1222C43.5503 42.5662 43.9162 42.4129 44.2205 42.1062C44.5242 41.7997 44.6763 41.4365 44.6763 41.0172V40.6245C44.6763 40.2343 44.5242 39.8695 44.2205 39.53L42.5714 37.6828C42.4182 37.5132 42.3417 37.3314 42.3417 37.1375C42.3417 36.8781 42.411 36.6829 42.5496 36.552C42.6882 36.4212 42.8938 36.3558 43.166 36.3558C43.5891 36.3558 43.8351 36.615 43.9033 37.1336ZM9.37715 37.1336H10.1505C10.0873 36.1011 9.56936 35.5847 8.59646 35.5847H7.81589C7.3878 35.5847 7.02196 35.7375 6.71791 36.0429C6.41385 36.3484 6.26183 36.712 6.26183 37.1338V37.5264C6.26183 37.9192 6.41397 38.284 6.71791 38.6209L8.36674 40.4609C8.51992 40.6282 8.59646 40.81 8.59646 41.0063C8.59646 41.2609 8.5356 41.4548 8.41412 41.5882C8.29241 41.7215 8.09311 41.7881 7.81589 41.7881C7.62124 41.7881 7.4425 41.7336 7.27956 41.6244C7.11661 41.5153 7.03531 41.3554 7.03531 41.1444C7.03531 41.1129 7.03764 41.0706 7.04252 41.0172H6.26171C6.26171 41.5311 6.3919 41.9177 6.65217 42.1772C6.91232 42.4366 7.30011 42.5662 7.81589 42.5662H8.59646C9.02443 42.5662 9.39039 42.4129 9.69467 42.1062C9.99849 41.7997 10.1505 41.4365 10.1505 41.0172V40.6245C10.1505 40.2343 9.99838 39.8695 9.69467 39.53L8.04561 37.6828C7.89242 37.5132 7.81589 37.3314 7.81589 37.1375C7.81589 36.8781 7.88522 36.6829 8.02366 36.552C8.16245 36.4212 8.3679 36.3558 8.64024 36.3558C9.06346 36.3558 9.30909 36.615 9.37715 37.1336ZM98.1808 37.6827C98.0276 37.5131 97.951 37.3312 97.951 37.1373C97.951 36.878 98.0204 36.6828 98.1589 36.5519C98.2976 36.4211 98.5032 36.3557 98.7755 36.3557C99.1986 36.3557 99.4444 36.6151 99.5124 37.1338H100.286C100.223 36.1012 99.7046 35.5848 98.7317 35.5848H97.9513C97.5232 35.5848 97.1573 35.7376 96.8533 36.043C96.5492 36.3485 96.3971 36.7121 96.3971 37.1339V37.5265C96.3971 37.9193 96.5492 38.2841 96.8533 38.621L98.502 40.461C98.6552 40.6283 98.7317 40.8101 98.7317 41.0064C98.7317 41.261 98.6709 41.4549 98.5494 41.5883C98.4277 41.7216 98.2284 41.7882 97.9511 41.7882C97.7565 41.7882 97.5778 41.7337 97.4148 41.6245C97.2519 41.5155 97.1706 41.3555 97.1706 41.1445C97.1706 41.113 97.1729 41.0707 97.1778 41.0173H96.397C96.397 41.5312 96.5272 41.9179 96.7873 42.1773C97.0476 42.4367 97.4354 42.5663 97.951 42.5663H98.7315C99.1596 42.5663 99.5254 42.413 99.8297 42.1063C100.133 41.7998 100.286 41.4366 100.286 41.0173V40.6246C100.286 40.2344 100.133 39.8696 99.8297 39.5301L98.1808 37.6827ZM105.527 9.96817H101.803V8.05961C101.803 7.57431 101.405 7.17724 100.918 7.17724H98.7782C98.3486 5.84289 97.6421 4.70407 96.6651 3.75408C94.6876 1.74087 91.5739 0.566406 87.0717 0.566406H51.1004L55.8526 7.61264H86.6511C89.386 7.61264 91.0691 8.78699 91.0691 11.0939V11.1777C91.0691 13.3168 89.4701 14.659 86.6932 14.659H60.691L64.9473 21.0341H84.8839L90.8166 29.9258H100.242L93.2151 19.692C95.7263 18.6274 97.643 16.8912 98.5994 14.4572H100.918C101.405 14.4572 101.803 14.0602 101.803 13.5749V11.6664H105.527C105.996 11.6664 106.379 11.2843 106.379 10.8173C106.379 10.3503 105.995 9.96817 105.527 9.96817ZM88.3324 36.3628H89.8864V42.5663H91.4475V36.3628H93.0016V35.5847H88.3323L88.3324 36.3628ZM75.6484 36.0429C75.9535 36.3484 76.1062 36.712 76.1062 37.1338V37.5264C76.1062 37.9798 75.9768 38.3361 75.7178 38.5954C75.4586 38.8549 75.0703 39.0149 74.5522 39.0754C75.0703 39.0754 75.4587 39.2312 75.7178 39.5428C75.9767 39.8543 76.1062 40.2149 76.1062 40.6245V41.0173C76.1062 41.4367 75.9525 41.7997 75.6449 42.1063C75.3373 42.413 74.9729 42.5663 74.5523 42.5663H71.4369V35.5847H74.5523C74.9779 35.5847 75.3432 35.7375 75.6484 36.0429ZM74.5523 40.2391C74.5523 39.7204 74.2919 39.4609 73.7715 39.4609H72.991V41.7881H73.7715C73.9832 41.7881 74.166 41.7118 74.3205 41.5591C74.475 41.4063 74.5523 41.2257 74.5523 41.0173V40.2391ZM74.5523 37.1338C74.5523 36.9229 74.475 36.7418 74.3205 36.5902C74.166 36.4387 73.9832 36.3628 73.7715 36.3628H72.991V38.69H73.7715C73.9832 38.69 74.166 38.613 74.3205 38.4591C74.475 38.3052 74.5523 38.1228 74.5523 37.9118V37.1338ZM66.8104 36.043C67.1155 36.3485 67.2681 36.712 67.2681 37.1338V41.0173C67.2681 41.4367 67.1155 41.7998 66.8104 42.1063C66.505 42.413 66.1397 42.5663 65.7142 42.5663H64.1529C63.7271 42.5663 63.3617 42.4143 63.0567 42.1099C62.7514 41.8057 62.5988 41.4415 62.5988 41.0173V37.1338C62.5988 36.7097 62.7515 36.3455 63.0567 36.0411C63.3618 35.7369 63.7272 35.5848 64.1529 35.5848H65.7142C66.1398 35.5848 66.5051 35.7376 66.8104 36.043ZM65.7142 41.0173V37.1338C65.7142 36.9229 65.6369 36.7418 65.4824 36.5902C65.328 36.4387 65.1452 36.3628 64.9334 36.3628C64.7194 36.3628 64.5358 36.4387 64.3826 36.5902C64.2294 36.7418 64.1529 36.9228 64.1529 37.1338V41.0173C64.1529 41.2258 64.2289 41.4063 64.3808 41.5591C64.5328 41.7118 64.7171 41.7881 64.9334 41.7881C65.15 41.7881 65.3341 41.7118 65.4864 41.5591C65.6383 41.4063 65.7142 41.2257 65.7142 41.0173ZM57.9725 36.043C58.2775 36.3485 58.4302 36.712 58.4302 37.1338V37.5556C58.4302 37.9023 58.3111 38.2362 58.0729 38.5573C57.8344 38.8786 57.4357 39.0392 56.8764 39.0392H57.6498C57.8638 39.0392 58.0474 39.1155 58.2006 39.2683C58.3538 39.421 58.4303 39.604 58.4303 39.8174V42.5664H56.8765V40.2392C56.8765 40.026 56.7992 39.8428 56.6447 39.6903C56.4902 39.5374 56.3074 39.461 56.0957 39.461H55.3151V42.5664H53.7611V35.5848H56.8765C57.302 35.5848 57.6673 35.7376 57.9725 36.043ZM56.8764 37.1338C56.8764 36.9229 56.799 36.7418 56.6446 36.5902C56.4901 36.4387 56.3073 36.3628 56.0956 36.3628H55.315V38.69H56.0956C56.3073 38.69 56.4901 38.613 56.6446 38.4591C56.799 38.3052 56.8764 38.1228 56.8764 37.9118V37.1338ZM84.4864 36.043C84.7915 36.3485 84.9441 36.712 84.9441 37.1338V41.0173C84.9441 41.4367 84.7915 41.7998 84.4864 42.1063C84.1811 42.413 83.8157 42.5663 83.3903 42.5663H81.8289C81.4032 42.5663 81.0378 42.4143 80.7328 42.1099C80.4275 41.8057 80.2749 41.4415 80.2749 41.0173V37.1338C80.2749 36.7097 80.4275 36.3455 80.7328 36.0411C81.0379 35.7369 81.4033 35.5848 81.8289 35.5848H83.3903C83.8158 35.5848 84.1812 35.7376 84.4864 36.043ZM83.3903 41.0173V37.1338C83.3903 36.9229 83.313 36.7418 83.1585 36.5902C83.004 36.4387 82.8212 36.3628 82.6095 36.3628C82.3954 36.3628 82.2118 36.4387 82.0586 36.5902C81.9055 36.7418 81.8289 36.9228 81.8289 37.1338V41.0173C81.8289 41.2258 81.905 41.4063 82.0569 41.5591C82.2088 41.7118 82.3931 41.7881 82.6095 41.7881C82.8261 41.7881 83.0102 41.7118 83.1624 41.5591C83.3143 41.4063 83.3903 41.2257 83.3903 41.0173Z" fill="#1D1D1B"/>
</svg>
