<svg width="147" height="59" viewBox="0 0 147 59" fill="none" xmlns="http://www.w3.org/2000/svg">
<path fill-rule="evenodd" clip-rule="evenodd" d="M110.561 52.5312C110.561 53.0291 110.405 53.6721 109.847 54.1508C109.337 54.5878 108.739 54.6693 108.334 54.6693C107.479 54.6693 106.717 54.2015 106.169 53.7902L106.095 53.7339L106.027 53.6696C104.472 52.1842 103.254 50.3621 102.362 48.2328L102.354 48.2128L102.346 48.1926C101.737 46.62 101.395 44.8967 101.298 43.0366C101.274 43.0728 101.249 43.1084 101.224 43.1438L101.219 43.1517L101.217 43.1548C100.111 44.7162 98.989 45.9495 97.8326 46.7327C96.7784 47.5314 95.5831 47.9691 94.2801 47.9691C91.6249 47.9691 89.9848 45.8997 89.0343 43.252C88.6815 42.2796 88.5632 40.8739 88.5632 39.2247C88.5632 37.9752 88.6289 36.6679 88.7586 35.3034C88.8881 33.8799 89.0815 32.3671 89.3376 30.765L89.3445 30.722L89.3536 30.6793C89.6662 29.2409 89.9144 28.0298 90.0993 27.043L90.1059 27.0076L90.1141 26.9725C90.3717 25.8763 90.6478 24.9527 90.9557 24.2552C91.6151 22.6958 93.1027 22.1753 94.563 22.1753C95.3175 22.1753 96.1458 22.4296 96.9562 22.7675L97.1371 22.8428L97.2937 22.9603C98.1399 23.5953 98.6764 24.511 98.6764 25.6347C98.6764 26.243 98.4607 26.8158 98.2276 27.2824L98.2225 27.2931L96.9017 29.8416C96.7049 30.235 96.4798 30.6533 96.2278 31.0957C96.0607 31.432 95.8913 31.8001 95.7196 32.2008L95.7067 32.2306L95.6929 32.2598C95.0618 33.5801 94.6022 34.9557 94.313 36.3897C94.0762 37.8786 93.9271 39.3998 93.8662 40.9529C93.869 42.0004 94.0275 42.538 94.1561 42.7646C94.1793 42.8057 94.1964 42.8276 94.2052 42.8378C94.2175 42.84 94.241 42.8432 94.2798 42.8432C94.6587 42.8432 95.4534 42.5544 96.6955 41.1971C97.8148 39.9056 98.7586 38.3422 99.5149 36.4867C100.943 32.5692 101.579 29.7753 101.579 27.994C101.579 26.9492 101.854 25.8796 102.675 25.09C103.483 24.3123 104.556 24.0627 105.598 24.0627C106.548 24.0627 107.464 24.3184 108.225 24.932C109.155 25.5583 109.617 26.5249 109.617 27.6165V27.7895L109.363 28.9374L109.313 29.0604C108.659 30.6654 108.12 32.3987 107.698 34.2632C107.341 36.1142 107.131 38.0969 107.07 40.2133L107.064 40.4458L106.99 40.6659C106.99 40.6659 106.977 40.7132 106.977 40.829V41.4897C106.977 46.1434 107.947 48.8839 109.414 50.2668C110.141 50.8012 110.561 51.5969 110.561 52.5312ZM79.913 12.5527C80.2958 13.3411 81.2468 13.6706 82.0371 13.2887C82.8274 12.9068 83.1576 11.9579 82.7748 11.1695C82.392 10.381 81.441 10.0515 80.6507 10.4334C79.8605 10.8154 79.5303 11.7642 79.913 12.5527ZM74.8902 10.6143C75.2803 11.4176 76.2491 11.7533 77.0544 11.3642C77.8596 10.9751 78.196 10.0084 77.806 9.20495C77.416 8.40155 76.447 8.06598 75.6418 8.45506C74.8366 8.84414 74.5002 9.81091 74.8902 10.6143ZM90.2878 15.5379C88.303 13.3312 91.2373 9.69797 94.1474 11.3953C95.1316 12.0725 95.8961 12.2436 96.5892 11.3969C98.0459 9.7831 96.96 6.4412 94.4877 6.74515C91.6642 6.98606 89.6294 8.24458 87.123 11.4226C85.1088 13.7039 83.7494 16.6421 82.9118 19.9261C84.0317 19.9456 85.026 19.8021 86.1683 19.4665C87.3459 19.0405 88.1144 18.6035 88.8777 19.4423C89.6411 20.2811 89.6656 21.6519 88.9325 22.504C87.1432 24.5844 84.5959 25.6265 81.964 25.8288C81.2352 35.0502 83.4844 45.4059 86.4887 51.6212C90.3761 58.4942 81.2555 61.9196 78.8406 54.8466C76.395 45.3387 74.0168 34.4893 74.9321 24.3869C72.5627 23.1739 70.4351 21.2009 69.1148 18.4001C68.6145 17.3394 68.9654 16.032 69.8982 15.4801C70.8309 14.9282 72.0094 15.5543 72.7553 16.2527C73.6474 17.0881 74.7033 17.8043 75.9188 18.3756C76.3728 16.5213 76.968 14.7091 77.7318 12.9544C77.9819 12.8935 78.2294 12.8072 78.4705 12.6907C78.6056 12.6254 78.7329 12.551 78.8561 12.4722C78.8954 12.5785 78.9397 12.6839 78.9903 12.788C79.8202 14.4972 81.8816 15.2114 83.5946 14.3835C85.3076 13.5555 86.0234 11.4988 85.1936 9.78966C84.3637 8.08055 82.3024 7.36635 80.5894 8.19425C80.5208 8.22741 80.4566 8.26569 80.3912 8.30273C80.3838 8.27883 80.3747 8.25534 80.3669 8.23144C83.4747 3.88481 87.9743 0.783094 93.4274 0.299321C96.9793 -0.0537624 101.516 1.4573 103.305 5.85487C103.774 7.00792 104.023 8.72401 104.028 9.03348C104.465 15.7077 95.0462 21.1841 90.2878 15.5379ZM81.3349 17.1713C81.2691 16.5141 80.4558 16.4871 79.4076 16.3727C78.2455 16.2696 77.4619 16.4555 77.5273 17.1126C77.593 17.7698 78.4434 18.6602 79.5145 18.5537C80.5856 18.4474 81.4006 17.8284 81.3349 17.1713ZM140.193 35.6929C140.358 36.2923 140.23 36.8984 140.122 37.2935L140.094 37.3949L140.052 37.4918C139.317 39.2141 138.438 40.7611 137.41 42.1225C136.504 43.403 135.643 44.4881 134.827 45.364C134.038 46.2168 133.117 46.9852 132.075 47.6733L132.043 47.6938L132.011 47.7129C130.785 48.4421 129.39 48.7807 127.882 48.7807C125.915 48.7807 124.167 48.2092 122.762 46.9812L122.744 46.9655L122.727 46.9493C121.314 45.6373 120.71 43.8266 120.71 41.7665C120.71 39.9083 121.108 38.1419 121.908 36.4859L121.92 36.4614L121.933 36.4372C122.751 34.8831 123.743 33.4603 124.907 32.1717L124.915 32.1629L124.918 32.1592C126.835 30.0826 127.539 28.4443 127.539 27.2036C127.539 26.4816 127.368 26.2299 127.301 26.1589C127.252 26.1071 127.072 25.9498 126.459 25.9498C125.648 25.9498 124.761 26.2624 123.773 27.0866C122.729 27.9575 121.629 29.2297 120.485 30.9548C119.833 32.0144 119.308 33.0299 118.904 34.0019L118.897 34.0176L118.89 34.0333C118.496 34.926 118.187 35.7803 117.96 36.5965L117.403 42.5809L117.401 42.5938C117.24 44.0648 117.039 45.2762 116.783 46.1824C116.655 46.6327 116.497 47.0701 116.289 47.4448C116.103 47.7789 115.767 48.2626 115.186 48.5336C114.665 48.7884 114.083 48.9686 113.463 48.9686C112.562 48.9686 111.643 48.6598 111.008 47.8452C110.432 47.1075 110.275 46.1841 110.275 45.3366C110.275 45.1177 110.283 44.8848 110.314 44.6685C110.33 44.5611 110.356 44.4154 110.409 44.2593C110.416 44.2379 110.425 44.2122 110.436 44.1834L111.249 39.9797L111.25 39.9782C111.374 39.2986 111.499 38.5875 111.624 37.8444C111.752 37.086 111.879 36.3581 112.007 35.6609L112.009 35.6498L112.01 35.6452C112.324 34.0282 112.607 32.4754 112.857 30.9856C113.098 29.5548 113.215 28.2324 113.215 27.0159V26.828C113.215 26.0788 113.441 25.2971 114.057 24.6864C114.564 24.1852 115.234 23.8537 116.024 23.8537C116.628 23.8537 117.288 24.0558 117.787 24.6052C118.204 25.0645 118.369 25.6153 118.431 26.0798C118.867 25.5291 119.329 25.0108 119.816 24.5259C121.796 22.3723 124.012 21.0353 126.459 21.0353H126.511L126.563 21.0388C128.86 21.1904 130.738 22.1415 131.877 24.03C132.755 25.3863 133.157 26.9698 133.157 28.7074C133.157 31.1972 131.987 33.7511 129.989 36.3256C128.892 37.7753 128.147 38.9833 127.708 39.961C127.232 41.0222 127.086 41.6897 127.086 42.0486C127.086 43.298 127.384 43.7939 127.623 44.0019C127.814 44.0656 128.001 44.1438 128.182 44.2397C128.204 44.2412 128.23 44.242 128.261 44.242C128.784 44.242 129.327 44.0822 129.918 43.6796C130.743 43.0956 131.429 42.5261 131.986 41.9742C132.618 41.3483 133.331 40.528 134.125 39.4992L134.13 39.492L134.133 39.4892C134.925 38.481 135.652 37.25 136.305 35.7797L136.321 35.7446L136.338 35.7102C136.471 35.4482 136.655 35.1419 136.919 34.8808C137.184 34.6182 137.655 34.2827 138.316 34.2827C138.647 34.2827 139.079 34.359 139.478 34.6492C139.886 34.9454 140.097 35.3452 140.193 35.6929ZM17.4164 41.0742C18.0752 41.7115 18.4047 42.5025 18.4047 43.3813C18.4047 44.3261 18.0752 45.1172 17.4164 45.7545C17.1089 46.0401 16.7576 46.2599 16.4061 46.4138C15.7473 46.8091 14.9566 47.2047 13.7266 47.3805C13.5729 47.4025 13.4192 47.4245 13.2654 47.4464C12.7822 47.5123 12.321 47.6001 11.5743 47.6001C9.29017 47.6001 7.44528 47.1828 6.10562 45.8203C4.78782 44.4582 4.26073 42.6123 4.26073 40.2832V32.9221H3.05281C1.36166 32.9221 0 31.5596 0 29.8676C0 28.1757 1.36166 26.8135 3.05281 26.8135H4.26073V23.9789C4.3266 22.9241 4.74396 22.0453 5.55653 21.3202C6.4131 20.5511 7.40141 20.1776 8.49946 20.1776C9.64151 20.1776 10.6298 20.5731 11.4644 21.3641C12.2551 22.1112 12.6943 22.9682 12.7382 23.9789V26.8135H13.9461C15.6373 26.8135 16.9989 28.1757 16.9989 29.8676C16.9989 31.5596 15.6373 32.9221 13.9461 32.9221H12.7382V39.3382C12.7382 39.4922 12.7162 39.6458 12.7162 39.7998V39.9975C12.6942 40.2391 12.6942 40.4587 12.7162 40.6345C12.7382 40.8323 12.782 40.92 12.804 40.9642C12.8261 40.9642 12.8481 40.9643 12.8919 40.942C13.5507 40.3489 14.2756 40.0632 15.1102 40.0632C16.0106 40.0632 16.7795 40.371 17.4164 41.0742ZM56.2462 41.0742C56.9053 41.7115 57.2347 42.5025 57.2347 43.3813C57.2347 44.3261 56.9053 45.1172 56.2462 45.7545C55.9389 46.0401 55.5874 46.2599 55.2361 46.4138C54.5772 46.8091 53.7865 47.2047 52.5566 47.3805C52.4029 47.4025 52.2493 47.4245 52.0955 47.4464C51.6121 47.5123 51.1511 47.6001 50.4042 47.6001C48.1201 47.6001 46.2752 47.1828 44.9356 45.8203C43.6178 44.4582 43.0907 42.6123 43.0907 40.2832V23.9789C43.1347 22.9241 43.5521 22.0453 44.3646 21.3202C45.2211 20.5511 46.2095 20.1776 47.3074 20.1776C48.4496 20.1776 49.4378 20.5731 50.2725 21.3641C51.063 22.1112 51.5024 22.9682 51.5464 23.9789V39.3382C51.5464 39.4922 51.5244 39.6458 51.5244 39.7998V39.9975C51.5024 40.2391 51.5024 40.4587 51.5244 40.6345C51.5464 40.8323 51.5901 40.92 51.6121 40.9642C51.6342 40.9642 51.6562 40.9643 51.7002 40.942C52.359 40.3489 53.0837 40.0632 53.9183 40.0632C54.8187 40.0632 55.6094 40.371 56.2462 41.0742ZM33.2592 39.3878C33.6568 40.075 34.5376 40.3106 35.2264 39.9137C35.9152 39.5169 36.1512 38.6381 35.7535 37.9509C35.3557 37.2637 34.4751 37.0283 33.7863 37.4251C33.0975 37.8219 32.8615 38.7006 33.2592 39.3878ZM27.3584 39.3251C27.7968 40.0829 28.7681 40.3425 29.5275 39.905C30.2869 39.4676 30.5473 38.4985 30.1088 37.7408C29.6703 36.9831 28.6991 36.7234 27.9397 37.1608C27.1802 37.5983 26.9199 38.5674 27.3584 39.3251ZM41.0483 29.1025V38.877C41.0483 40.6348 40.3235 42.3048 39.4231 43.6451C38.5446 44.9637 37.3144 45.9963 35.7331 46.7434C34.1519 47.4686 32.3288 47.8419 30.2865 47.8419C28.222 47.8419 26.3771 47.4905 24.73 46.7434C23.1267 45.9963 21.8529 44.9636 20.9523 43.6012C20.0519 42.261 19.4589 40.5032 19.4589 38.7672V29.1464C19.4589 28.0259 19.8543 26.9931 20.7107 26.224C21.5673 25.455 22.5556 25.0815 23.6536 25.0815C24.7957 25.0815 25.784 25.477 26.6186 26.268C27.4751 27.059 27.7826 28.0918 27.7826 29.1464V34.9221C27.1898 34.9378 26.5924 35.0967 26.0427 35.4133C24.2821 36.4275 23.6788 38.6737 24.6954 40.4303C25.7118 42.1869 27.9632 42.7889 29.7238 41.7746C30.2335 41.4809 30.641 41.0809 30.9455 40.6224C30.9883 40.6146 31.0273 40.6039 31.0681 40.5945C31.0838 40.626 31.0986 40.6578 31.1164 40.6887C32.0383 42.2817 34.0799 42.8275 35.6765 41.9078C37.2732 40.988 37.8202 38.9509 36.8984 37.358C36.0493 35.8906 34.2505 35.3149 32.724 35.9517V29.1024C32.724 27.9819 33.0754 27.015 33.932 26.2459C34.7887 25.4769 35.7768 25.1033 36.875 25.1033C38.0389 25.1033 39.0274 25.4988 39.818 26.2679C40.6967 27.0589 41.0483 28.0258 41.0483 29.1025ZM31.4255 44.6806C31.4255 44.0442 30.5251 43.8422 29.5122 43.6328C28.3868 43.423 27.7115 43.625 27.7115 44.2614C27.7115 44.8978 28.4555 45.8334 29.5122 45.8334C30.569 45.8334 31.4255 45.3172 31.4255 44.6806ZM59.143 12.2672C59.0323 12.6264 58.7514 12.9083 58.3917 13.0205L55.4131 13.9504C54.5109 14.2319 54.3221 15.4223 55.0929 15.9682L57.6541 17.7821C57.9595 17.9984 58.1392 18.3505 58.1353 18.7242L58.1013 21.8597C58.091 22.8054 59.1727 23.3516 59.9306 22.7834L62.4176 20.9187C62.7198 20.6921 63.1147 20.6293 63.4726 20.751L66.4172 21.7516C67.3145 22.0564 68.1724 21.2016 67.868 20.306L66.8584 17.3366C66.7382 16.9826 66.7992 16.5924 67.0221 16.292L68.8908 13.7732C69.4534 13.0152 68.9028 11.9426 67.9575 11.9548L64.8367 11.9953C64.4602 12.0002 64.1051 11.8195 63.8879 11.5124L62.0872 8.9652C61.5399 8.19107 60.3399 8.38198 60.0611 9.28755L59.143 12.2672ZM58.8514 29.2989V43.5507C58.8514 45.912 60.77 47.8262 63.1367 47.8262C65.5035 47.8262 67.422 45.912 67.422 43.5507V29.2989C67.422 26.9375 65.5035 25.0233 63.1367 25.0233C60.77 25.0233 58.8514 26.9375 58.8514 29.2989ZM142.597 22.723C140.414 22.723 138.671 24.5305 138.671 26.7838C138.671 29.0867 140.414 30.8944 142.597 30.8944C144.804 30.8944 146.5 29.0867 146.5 26.7838C146.5 24.5305 144.804 22.723 142.597 22.723ZM142.62 30.0275C140.902 30.0275 139.647 28.5914 139.647 26.7838C139.647 25.001 140.902 23.5401 142.597 23.5401C144.293 23.5401 145.524 25.0011 145.524 26.8086C145.524 28.5915 144.293 30.0275 142.62 30.0275ZM143.48 26.9076V26.858C143.944 26.7093 144.27 26.3628 144.27 25.917C144.27 25.5209 144.107 25.1991 143.898 25.0258C143.619 24.8524 143.294 24.7285 142.574 24.7285C141.947 24.7285 141.459 24.7781 141.111 24.8523V28.9133H141.993V27.279H142.411C142.899 27.279 143.132 27.4772 143.201 27.9227C143.318 28.3932 143.387 28.7647 143.503 28.9133H144.456C144.363 28.7647 144.293 28.5172 144.177 27.8981C144.061 27.3534 143.852 27.0562 143.48 26.9076ZM142.434 26.6105H142.017V25.4465C142.109 25.4219 142.272 25.3971 142.504 25.3971C143.062 25.3971 143.317 25.6445 143.317 26.016C143.317 26.4369 142.923 26.6105 142.434 26.6105Z" fill="black"/>
</svg>
