<svg width="149" height="39" viewBox="0 0 149 39" fill="none" xmlns="http://www.w3.org/2000/svg">
<path d="M59.6653 21.5888L56.1608 21.6062L56.2279 34.8634L58.6932 34.8513L58.6657 29.7995L59.708 29.7941C61.1647 29.7866 62.2983 29.7265 63.441 28.7174C64.3554 27.9239 64.6905 26.8479 64.6845 25.6656C64.6783 24.4827 64.3308 23.4099 63.4107 22.6262C62.2556 21.6284 61.1221 21.5812 59.6653 21.5888ZM59.4459 27.5016L58.6535 27.5062L58.6354 23.8874L59.516 23.8828C60.7928 23.8761 62.213 24.0649 62.2219 25.6777C62.2312 27.3087 60.7199 27.4955 59.4459 27.5016ZM71.7574 21.2578C67.9115 21.2776 64.8184 24.3748 64.8367 28.2269C64.858 32.0424 68.0182 35.0723 71.8305 35.0526C75.6398 35.0337 78.7694 31.9719 78.7512 28.1562C78.7297 24.3042 75.6032 21.2381 71.7574 21.2578ZM71.8182 32.7594C69.3014 32.7723 67.3112 30.6681 67.2991 28.1958C67.2867 25.7052 69.2188 23.564 71.7697 23.551C74.3232 23.5381 76.2736 25.6596 76.2889 28.1503C76.3009 30.6226 74.3325 32.7464 71.8182 32.7594ZM90.6452 21.4301L90.7154 34.6873L87.9636 34.7019L82.3625 25.0917H82.3258L82.3746 34.7298L79.9123 34.7427L79.8421 21.4855L82.6459 21.4711L88.1983 31.0812H88.2347L88.1829 21.443L90.6452 21.4301ZM94.9177 21.4089L94.9878 34.6661L92.5226 34.6782L92.4555 21.4212L94.9177 21.4089ZM117.679 30.5907C117.691 33.0988 115.869 34.8278 113.388 34.8406C111.158 34.8521 109.374 33.3117 109.087 31.158C108.006 33.4141 105.585 34.8806 103.094 34.8931C99.2815 34.9128 96.1367 31.7577 96.1184 27.9778C96.0999 24.2328 99.2115 21.1179 102.966 21.099C105.681 21.0846 108.152 22.6307 109.259 25.1152L106.458 25.1295C105.517 24.0414 104.365 23.3847 102.89 23.3921C100.446 23.405 98.5687 25.6534 98.5809 28.0006C98.5931 30.3833 100.565 32.6127 103.027 32.6006C104.465 32.593 105.431 31.943 106.364 30.9172L109.049 30.9035C109.046 30.8665 109.035 30.8329 109.033 30.7956L111.621 30.7828C111.718 31.7851 112.331 32.5527 113.391 32.5473C114.345 32.542 115.223 31.8754 115.22 30.8725C115.211 29.3674 113.842 29.0872 112.672 28.6454C112.258 28.4859 111.861 28.3447 111.465 28.1503C110.112 27.4585 109.497 26.368 109.488 24.8457C109.479 22.6603 111.194 21.0566 113.37 21.0458C115.528 21.0345 117.207 22.6563 117.326 24.8052L114.809 24.8182C114.732 23.9229 114.245 23.3343 113.309 23.339C112.538 23.3427 111.947 23.901 111.95 24.6891C111.956 25.961 113.181 26.2063 114.171 26.5229C116.189 27.1759 117.667 28.2619 117.679 30.5907ZM55.5118 10.7988C55.4933 7.05384 58.6049 3.93904 62.3623 3.91997C65.0776 3.9063 67.5462 5.45145 68.6552 7.93686L65.8517 7.95035C64.9131 6.86305 63.758 6.20555 62.283 6.21315C59.839 6.226 57.9618 8.47526 57.974 10.8223C57.9863 13.2052 59.9579 15.4337 62.4201 15.4214C63.8585 15.414 64.8245 14.7647 65.7571 13.738L68.6124 13.7237C67.6006 16.1291 65.0745 17.7011 62.4872 17.7141C58.6747 17.7338 55.533 14.5787 55.5118 10.7988ZM75.7831 17.6463C79.5924 17.6265 82.7219 14.5651 82.7036 10.7494C82.6823 6.89737 79.5588 3.83179 75.7128 3.85168C71.864 3.87143 68.7708 6.96873 68.7891 10.8209C68.8105 14.6365 71.9708 17.6662 75.7831 17.6463ZM75.725 6.14485C78.2758 6.13201 80.2292 8.25349 80.2414 10.744C80.2536 13.2164 78.288 15.3403 75.7706 15.3531C73.2537 15.366 71.2637 13.262 71.2516 10.7895C71.2392 8.29902 73.1715 6.15784 75.725 6.14485ZM83.8647 17.3367L83.7979 4.0795L86.6012 4.065L92.1506 13.6751H92.187L92.1384 4.03683L94.6006 4.02385L94.6677 17.2811L91.9159 17.2954L86.3148 7.68527H86.2781L86.3269 17.3237L83.8647 17.3367ZM95.2346 6.31416L95.2223 4.02098L102.628 3.98304L102.64 6.27622L100.159 6.28903L100.214 17.2529L97.7516 17.265L97.6969 6.30117L95.2346 6.31416ZM103.594 17.2355L104.995 13.8071L109.758 13.7827L111.194 17.1967L113.909 17.1831L108.271 3.95404L106.349 3.96399L100.878 17.249L103.594 17.2355ZM107.299 7.41665H107.336L108.866 11.4759L105.812 11.4912L107.299 7.41665ZM114.622 17.1792L114.555 3.92217L117.021 3.90935L117.088 17.1664L114.622 17.1792ZM118.901 17.1573L118.834 3.90008L121.637 3.88574L127.187 13.4959H127.223L127.174 3.85758L129.637 3.84561L129.704 17.1028L126.952 17.1165L121.351 7.5072H121.314L121.363 17.1451L118.901 17.1573ZM131.316 17.0942L131.249 3.83701L138.401 3.80075L138.413 6.09376L133.72 6.11737L133.738 9.35975L138.23 9.33681L138.243 11.63L133.751 11.6529L133.766 14.7881L138.459 14.7646L138.468 17.0578L131.316 17.0942ZM142.457 17.0372L142.43 11.9674H142.466L146.016 17.0192L149 17.0038L145.361 12.1312C146.26 11.9116 146.888 11.6757 147.567 11.0271C148.372 10.2352 148.832 8.97866 148.829 7.85019C148.82 6.59574 148.238 5.43397 147.248 4.6503C146.309 3.9031 145.175 3.76567 144.008 3.77175L139.928 3.79317L139.995 17.0502L142.457 17.0372ZM143.981 6.06492C145.239 6.05885 146.358 6.69758 146.364 8.05895C146.373 9.45596 145.315 10.1076 144.002 10.1137L142.421 10.1219L142.399 6.07319L143.981 6.06492ZM125.806 25.4416C125.715 25.3557 125.596 25.2822 125.443 25.2184C125.812 25.1903 126.108 25.0596 126.33 24.8317C126.553 24.5995 126.662 24.3298 126.662 24.0177C126.662 23.7991 126.598 23.5895 126.464 23.3958C126.33 23.2 126.15 23.0641 125.928 22.9859C125.702 22.9054 125.34 22.8665 124.84 22.8665H123.374V27.118H124.063V25.3116H124.468C124.709 25.3116 124.895 25.3602 125.02 25.4582C125.203 25.5919 125.44 25.9222 125.739 26.4477L126.117 27.118H126.958L126.437 26.2868C126.187 25.8926 125.98 25.6117 125.806 25.4416ZM124.898 24.7248H124.063V23.4429H124.846C125.181 23.4429 125.413 23.4673 125.535 23.5166C125.66 23.5637 125.757 23.6389 125.827 23.7385C125.898 23.8386 125.931 23.951 125.931 24.0764C125.931 24.273 125.861 24.4294 125.715 24.5471C125.569 24.6664 125.297 24.7248 124.898 24.7248ZM127.062 21.4915C126.428 21.1521 125.779 20.9806 125.111 20.9806C124.447 20.9806 123.798 21.1521 123.164 21.4915C122.53 21.8325 122.036 22.32 121.68 22.9532C121.323 23.5864 121.146 24.2464 121.146 24.9358C121.146 25.6154 121.32 26.2699 121.671 26.8986C122.021 27.5257 122.512 28.0156 123.14 28.3618C123.77 28.7104 124.429 28.885 125.111 28.885C125.8 28.885 126.458 28.7104 127.086 28.3618C127.714 28.0156 128.204 27.5257 128.552 26.8986C128.902 26.2699 129.076 25.6153 129.076 24.9358C129.076 24.2464 128.899 23.5863 128.543 22.9532C128.192 22.32 127.696 21.8325 127.062 21.4915ZM127.982 26.5723C127.692 27.0947 127.281 27.5 126.76 27.7925C126.233 28.0826 125.684 28.2284 125.111 28.2284C124.541 28.2284 123.993 28.0826 123.469 27.7925C122.941 27.5002 122.533 27.0947 122.241 26.5723C121.951 26.0498 121.805 25.5038 121.805 24.9359C121.805 24.3628 121.951 23.812 122.25 23.2827C122.548 22.7543 122.96 22.3473 123.487 22.0625C124.014 21.7785 124.557 21.6365 125.111 21.6365C125.666 21.6365 126.208 21.7785 126.735 22.0625C127.266 22.3472 127.681 22.7543 127.976 23.2827C128.268 23.812 128.418 24.3626 128.418 24.9359C128.418 25.504 128.271 26.0498 127.982 26.5723ZM53.5186 14.9332C44.3124 10.7173 36.7547 12.5595 30.6144 17.3571C22.9928 23.3086 23.7608 30.6386 27.5944 34.6646H14.5912L16.0112 18.3139L17.221 19.5668L17.384 34.5012L19.1804 21.5411L19.2688 21.6276L19.2658 19.008L25.8057 19.0132C26.6739 17.8501 27.791 16.7043 29.1972 15.6054C32.0311 13.3935 35.1688 11.8216 38.6273 11.1708L38.6258 0.125L0.7255 0.358044L0.5 38.1166L38.629 38.125V33.5636C39.4624 33.0798 40.4011 32.4041 41.655 31.448C47.8504 26.7213 44.5592 15.3978 53.5186 14.9332ZM3.51384 34.6644L3.33407 5.40896L3.9069 6.26154L4.86989 34.6642L3.51384 34.6644ZM6.28388 34.6644L6.50328 8.63465L7.23467 9.58756L7.99959 34.6644H6.28388ZM9.05239 34.6644L9.67248 11.8617L10.5638 12.9148L11.1276 34.6644H9.05239ZM11.8224 34.6644L12.8418 15.088L13.8917 16.2408L14.2573 34.6644H11.8224ZM48.9138 14.6833C41.9627 14.6833 35.7001 18.0572 32.6011 22.9989C32.1136 23.7734 31.4734 24.6253 30.8151 26.207C30.2179 27.6413 29.3584 29.9793 28.8314 33.1001C28.3651 28.2024 29.3312 24.9625 30.8397 22.3527C33.9907 16.9006 41.6336 14.0449 48.9138 14.6833Z" fill="black"/>
</svg>
