<svg width="165" height="22" viewBox="0 0 165 22" fill="none" xmlns="http://www.w3.org/2000/svg">
<path d="M65.8297 6.81309C64.5179 11.7363 63.2119 16.6387 61.9044 21.5462H53.675C54.2319 19.4469 54.7826 17.371 55.3418 15.2624C55.2149 15.2507 55.1258 15.2354 55.0368 15.2352C53.8442 15.2336 52.6516 15.2396 51.459 15.2292C51.2415 15.2274 51.152 15.2933 51.0963 15.5071C50.5953 17.4309 50.0797 19.3511 49.5754 21.2741C49.5234 21.4727 49.4545 21.565 49.2223 21.5641C46.6488 21.5544 44.0753 21.5581 41.5019 21.5572C41.4211 21.5572 41.3402 21.5454 41.2156 21.5358C42.5278 16.6126 43.8336 11.7144 45.1399 6.81416H53.4202C52.894 8.78508 52.3745 10.7307 51.8434 12.7198H52.3481C53.4571 12.7198 54.5661 12.7095 55.6747 12.727C55.9509 12.7314 56.0496 12.6336 56.1158 12.38C56.5759 10.6172 57.0524 8.85873 57.5178 7.09724C57.5678 6.90786 57.6192 6.79137 57.8604 6.79235C60.4444 6.80189 63.0284 6.79823 65.6124 6.79877C65.6639 6.79877 65.7153 6.8052 65.8297 6.81309ZM37.6512 11.2719C37.5565 11.0865 37.4734 10.8914 37.416 10.6918C37.2629 10.1584 37.4781 9.66175 37.9876 9.4475C38.2205 9.34952 38.4921 9.3072 38.7468 9.30435C39.9807 9.2901 41.2148 9.30105 42.4487 9.29218C42.5516 9.29141 42.7257 9.23127 42.7456 9.16321C42.9704 8.39288 43.1717 7.61575 43.3841 6.82219C43.295 6.81188 43.2355 6.79891 43.1757 6.79891C39.5156 6.79858 35.8552 6.76783 32.1955 6.81309C30.3664 6.83567 29.0475 7.78538 28.2704 9.42917C27.8006 10.4228 27.7464 11.4437 28.3583 12.4309C28.5396 12.7234 28.6797 13.0415 28.8384 13.348C29.526 14.6763 30.228 15.9973 30.8952 17.336C31.2437 18.0353 30.9378 18.7293 30.2003 18.9711C29.9481 19.0537 29.3982 19.0865 29.3982 19.0865H17.0668C19.1047 17.2581 20.3885 14.6002 20.3885 11.6402C20.3885 10.949 20.3186 10.2743 20.1853 9.62261L12.3107 14.6718L12.3054 14.666C11.7644 15.0021 11.1271 15.1966 10.4443 15.1966C8.48812 15.1966 6.9022 13.6043 6.9022 11.6402C6.9022 10.9038 7.12508 10.2198 7.50677 9.65218L7.49367 9.6384C7.49367 9.6384 10.7099 4.9344 12.7632 1.92903C12.0192 1.7505 11.2428 1.65532 10.4443 1.65532C4.95216 1.65532 0.5 6.12566 0.5 11.6402C0.5 17.1547 4.95216 21.625 10.4443 21.625C11.0726 21.625 11.6864 21.5638 12.2823 21.4519L12.2429 21.558C12.2429 21.558 32.9467 21.5593 36.7846 21.5538C37.0227 21.5535 37.2677 21.5256 37.4976 21.4654C38.8682 21.1067 39.7411 20.1809 40.2982 18.9265C40.6986 18.0247 40.6809 17.1347 40.2074 16.2401C39.336 14.5942 38.4984 12.9304 37.6512 11.2719ZM76.7203 9.26194C78.1117 9.26139 79.5031 9.26495 80.8944 9.25552C81.006 9.25475 81.195 9.18928 81.2162 9.11585C81.4323 8.36383 81.621 7.60403 81.8228 6.82526C81.7369 6.81003 81.7065 6.79985 81.676 6.79985C77.9935 6.80006 74.3109 6.79104 70.6285 6.80694C69.2295 6.81296 68.1589 7.4575 67.449 8.65886C67.2067 9.06885 66.9916 9.51384 66.8658 9.97084C66.1358 12.6221 65.4238 15.2785 64.7365 17.9412C64.584 18.5317 64.4904 19.154 64.4863 19.7624C64.4806 20.5811 65.0399 21.2259 65.8176 21.4221C66.1094 21.4957 66.4155 21.5498 66.7152 21.5505C70.3663 21.5596 74.0175 21.555 77.6686 21.5629C77.8805 21.5634 77.9329 21.4645 77.9767 21.2967C78.1406 20.6686 78.3135 20.0428 78.4809 19.4156C78.5066 19.3193 78.5216 19.2203 78.5502 19.0805C78.3878 19.0805 78.2648 19.0808 78.1418 19.0805C76.74 19.077 75.3379 19.0907 73.9367 19.0624C73.2083 19.0476 72.9902 18.7213 73.1675 18.0115C73.3779 17.1686 73.612 16.3314 73.813 15.4863C73.8743 15.2285 73.972 15.138 74.2475 15.1411C75.6492 15.157 75.5233 15.1425 76.9251 15.1543C77.1591 15.1563 77.2593 15.0823 77.3092 14.8591C77.3959 14.4711 77.5097 14.0891 77.6115 13.7045C77.7013 13.3648 77.7904 13.0249 77.8907 12.6434H74.5775C74.7842 11.8791 74.9753 11.1513 75.1784 10.427C75.4194 9.5675 75.8293 9.26227 76.7203 9.26194ZM125.642 19.0805C124.241 19.077 122.839 19.0912 121.439 19.0626C120.71 19.0477 120.489 18.7146 120.667 18.0124C120.878 17.1804 121.11 16.3534 121.304 15.5178C121.371 15.234 121.473 15.1355 121.778 15.1399C123.179 15.1597 123.053 15.1513 124.454 15.1428C124.556 15.1421 124.728 15.0807 124.748 15.0125C124.974 14.2425 125.176 13.4656 125.397 12.6404H122.07C122.307 11.7962 122.505 10.9933 122.759 10.2087C122.981 9.52287 123.4 9.26379 124.141 9.26248C125.406 9.26028 126.672 9.26181 127.937 9.26181C128.687 9.26181 128.689 9.26237 128.883 8.5327C129.032 7.96972 129.174 7.40491 129.326 6.81804C129.203 6.80927 129.122 6.79851 129.04 6.79851C125.453 6.79796 121.866 6.78828 118.279 6.81041C117.776 6.81348 117.247 6.89917 116.778 7.07463C115.502 7.55202 114.782 8.5826 114.416 9.83185C113.829 11.8382 113.315 13.8661 112.781 15.888C112.504 16.9386 112.209 17.9875 111.998 19.0523C111.772 20.1914 112.306 21.1257 113.271 21.4055C113.568 21.4919 113.887 21.5485 114.196 21.5494C117.857 21.5598 121.517 21.5556 125.177 21.562C125.366 21.5623 125.427 21.4848 125.47 21.3207C125.646 20.6425 125.835 19.9675 126.017 19.2905C126.032 19.2343 126.025 19.1723 126.031 19.0808C125.889 19.0808 125.765 19.0808 125.642 19.0805ZM91.9236 6.79784H91.4943C88.9946 6.79784 86.4948 6.80422 83.9951 6.79008C83.661 6.78822 83.5163 6.86846 83.4249 7.2139C82.2092 11.8067 80.9744 16.3945 79.7451 20.9838C79.6972 21.1625 79.6563 21.343 79.6035 21.5578H79.9488C84.4986 21.5578 89.0483 21.5578 93.5982 21.5578C93.6713 21.5578 93.7492 21.5722 93.8164 21.5516C93.8759 21.5334 93.9566 21.4853 93.971 21.4344C94.1866 20.6723 94.3927 19.9075 94.6133 19.0978H88.6371C89.7367 14.9822 90.8253 10.9081 91.9236 6.79784ZM107.867 6.81309C107.768 6.80564 107.717 6.79851 107.666 6.79851C105.03 6.79785 102.394 6.80245 99.7586 6.79061C99.4859 6.78941 99.4606 6.94174 99.4105 7.12881C98.2986 11.2846 97.1843 15.4396 96.0714 19.595C95.8991 20.238 95.7313 20.8823 95.553 21.5576H95.8752C100.446 21.5576 105.016 21.5576 109.587 21.5576C109.65 21.5576 109.718 21.5725 109.774 21.5517C109.832 21.5296 109.908 21.4818 109.923 21.4299C110.138 20.6681 110.343 19.9038 110.564 19.0951H104.586C105.686 14.9782 106.774 10.9045 107.867 6.81309ZM164.389 21.5063H148.095C148.099 21.5235 148.104 21.5405 148.108 21.5577H147.761C145.02 21.5577 142.28 21.5533 139.539 21.5647C139.272 21.5658 139.189 21.4771 139.132 21.2295C138.81 19.8215 138.465 18.4188 138.138 17.0118C138.089 16.8033 138.012 16.7231 137.785 16.7241C136.905 16.7278 136.902 16.718 136.673 17.572C136.342 18.8046 136.012 20.0375 135.69 21.2724C135.638 21.4693 135.57 21.5648 135.337 21.5639C132.785 21.554 130.232 21.5576 127.68 21.5572C127.618 21.5572 127.557 21.5514 127.45 21.5461C127.558 21.1252 127.658 20.7245 127.765 20.3255C128.946 15.9003 130.13 11.4761 131.304 7.04894C131.36 6.83853 131.452 6.79412 131.648 6.79423C137.013 6.79861 142.379 6.796 147.745 6.80038C148.345 6.80082 148.934 6.89045 149.478 7.16761C150.558 7.71755 151.039 8.7177 150.746 9.9869C150.485 11.1167 150.186 12.2417 149.824 13.3429C149.352 14.7831 148.388 15.8 146.957 16.3468C146.909 16.3652 146.864 16.3914 146.782 16.4311C147.008 17.3022 147.232 18.1677 147.456 19.0355H165L164.389 21.5063ZM142.005 9.25338C141.882 9.23442 141.755 9.23206 141.63 9.23184C140.814 9.22998 139.999 9.23827 139.183 9.22555C138.968 9.22216 138.874 9.28221 138.819 9.49954C138.556 10.5445 138.274 11.5848 137.999 12.6267C137.859 13.1603 137.718 13.6939 137.572 14.2466C138.608 14.2466 139.61 14.2707 140.609 14.2358C141.061 14.22 141.478 13.9555 141.609 13.5275C141.973 12.3414 142.291 11.1391 142.572 9.93017C142.664 9.53279 142.421 9.31727 142.005 9.25338ZM12.8008 4.77374C12.8008 2.2063 14.8736 0.125 17.4305 0.125C19.9875 0.125 22.0604 2.2063 22.0604 4.77374C22.0604 7.34117 19.9875 9.42248 17.4305 9.42248C14.8736 9.42248 12.8008 7.34117 12.8008 4.77374ZM16.5049 6.5664C16.5049 6.08967 16.1201 5.70325 15.6453 5.70325C15.1705 5.70325 14.7856 6.08967 14.7856 6.5664C14.7856 7.04313 15.1705 7.42955 15.6453 7.42955C16.1201 7.42955 16.5049 7.04313 16.5049 6.5664ZM18.4842 6.49376C18.0772 6.24827 17.5492 6.38047 17.3046 6.78914C17.0601 7.19781 17.1917 7.72804 17.5987 7.97364C18.0057 8.21912 18.5338 8.08692 18.7783 7.67825C19.0228 7.26958 18.8911 6.73935 18.4842 6.49376ZM19.4409 4.71755C19.0256 4.94868 18.8756 5.47418 19.1058 5.89107C19.336 6.30797 19.8592 6.45866 20.2745 6.22753C20.6898 5.9964 20.8398 5.4709 20.6096 5.05401C20.3794 4.63701 19.8562 4.48642 19.4409 4.71755ZM18.3563 2.98108C18.3563 3.45781 18.7412 3.84423 19.216 3.84423C19.6908 3.84423 20.0756 3.45781 20.0756 2.98108C20.0756 2.50435 19.6908 2.11793 19.216 2.11793C18.7412 2.11793 18.3563 2.50435 18.3563 2.98108ZM17.4771 3.8639C17.0023 3.8639 16.6175 4.25032 16.6175 4.72705C16.6175 5.20378 17.0024 5.5902 17.4771 5.5902C17.9518 5.5902 18.3368 5.20378 18.3368 4.72705C18.3368 4.25032 17.9519 3.8639 17.4771 3.8639ZM16.377 3.05372C16.784 3.29921 17.3121 3.16714 17.5567 2.75847C17.8012 2.3498 17.6696 1.81957 17.2625 1.57398C16.8555 1.32838 16.3275 1.46056 16.0829 1.86923C15.8384 2.2779 15.97 2.80813 16.377 3.05372ZM14.2517 4.49347C14.4819 4.91036 15.005 5.06106 15.4203 4.82993C15.8355 4.5988 15.9856 4.07343 15.7554 3.65654C15.5252 3.23954 15.0021 3.08895 14.5868 3.32008C14.1715 3.55121 14.0215 4.07658 14.2517 4.49347Z" fill="black"/>
</svg>
