<svg width="87" height="96" viewBox="0 0 87 96" fill="none" xmlns="http://www.w3.org/2000/svg">
<path d="M9.17745 60.3574C9.19865 60.4428 9.20163 60.5213 9.18672 60.5937C9.17211 60.6652 9.1352 60.7314 9.07694 60.7914C9.01836 60.8521 8.93136 60.9091 8.81546 60.9637L5.9158 62.3297C5.72484 62.4197 5.54769 62.4351 5.38421 62.3766C5.22104 62.3181 5.09399 62.1934 5.00385 62.0018L3.95746 59.7841C3.9917 59.7303 4.04446 59.671 4.11498 59.6079C4.1858 59.544 4.26558 59.4925 4.35447 59.4501C4.52769 59.3685 4.66824 59.347 4.77645 59.3854C4.88386 59.4247 4.96741 59.5063 5.02599 59.6301L5.68589 61.029L6.43923 60.6743L5.7509 59.2161C5.78325 59.1567 5.83366 59.0968 5.90182 59.0345C5.97029 58.9722 6.04929 58.9197 6.13786 58.8783C6.30684 58.799 6.44551 58.7783 6.55324 58.8176C6.66098 58.856 6.74421 58.9376 6.8031 59.0615L7.35291 60.2281L8.75924 59.5648C8.79583 59.608 8.84546 59.678 8.9078 59.7764C8.97015 59.8741 9.02559 59.9749 9.0738 60.0765C9.12186 60.1796 9.15625 60.2727 9.17745 60.3574ZM6.31893 56.1167C6.50252 55.9674 6.64354 55.7888 6.74248 55.5796C6.84173 55.3711 6.89607 55.1363 6.90533 54.8778C6.91538 54.6186 6.87613 54.3408 6.78708 54.0444C6.69851 53.7475 6.57884 53.4936 6.42871 53.2827C6.2781 53.0711 6.10457 52.9057 5.90669 52.7849C5.70913 52.6656 5.49288 52.5924 5.25716 52.5678C5.0219 52.5431 4.77676 52.5685 4.52298 52.6446L2.34823 53.2949C2.22621 53.331 2.13151 53.3749 2.06446 53.4256C1.9974 53.4757 1.95169 53.5364 1.92578 53.6048C1.90081 53.6741 1.89186 53.7526 1.90003 53.8395C1.90819 53.9265 1.92845 54.0242 1.96049 54.1327C1.99174 54.2366 2.03241 54.3421 2.08251 54.4505C2.13292 54.5582 2.1703 54.6366 2.19496 54.6851L4.87099 53.8865C5.09666 53.8188 5.29139 53.8271 5.45503 53.9111C5.61899 53.9957 5.73112 54.1388 5.79158 54.3413C5.85094 54.5391 5.8354 54.719 5.74541 54.8815C5.65605 55.0438 5.4979 55.1593 5.27192 55.2262L3.11837 55.8703C2.99635 55.9064 2.90165 55.9503 2.8346 56.001C2.76801 56.0511 2.72137 56.1118 2.69593 56.1803C2.67049 56.2495 2.66201 56.3279 2.6697 56.4149C2.67771 56.5018 2.69813 56.5996 2.73048 56.7081C2.76173 56.8112 2.80209 56.9174 2.8525 57.0258C2.90259 57.1335 2.94029 57.212 2.96526 57.2605L5.66202 56.4549C5.91611 56.3796 6.13535 56.2667 6.31893 56.1167ZM5.38766 50.0022C5.45927 49.9638 5.51361 49.9146 5.55083 49.8554C5.58773 49.7968 5.60815 49.7238 5.61239 49.6391C5.61663 49.5543 5.6116 49.459 5.59778 49.3512C5.58428 49.245 5.56308 49.1373 5.53434 49.0296C5.50592 48.922 5.48079 48.8428 5.45927 48.7903L4.3262 48.935C4.06331 48.9681 3.7957 49.0042 3.52276 49.0412C3.25013 49.0781 2.98347 49.1229 2.72278 49.1759L2.71006 49.1328C2.87669 49.0435 3.02305 48.9596 3.1501 48.8841C3.27636 48.8088 3.41079 48.7249 3.55245 48.6326L4.93679 47.7207C5.12854 47.5922 5.24051 47.4445 5.27396 47.2775C5.30663 47.1097 5.31165 46.9358 5.28904 46.7558C5.26627 46.5765 5.22779 46.4233 5.17502 46.2995C5.12194 46.1749 5.05677 46.0833 4.98029 46.0241L1.22286 46.5028C0.984149 46.5328 0.834483 46.609 0.772765 46.7305C0.711989 46.8529 0.69456 47.0198 0.721885 47.2337C0.735705 47.3406 0.756903 47.4484 0.785327 47.556C0.813752 47.6637 0.838883 47.743 0.860398 47.7947L2.04467 47.6438C2.30756 47.6107 2.57061 47.5746 2.83303 47.5361C3.09513 47.4977 3.35693 47.4523 3.61762 47.3991L3.62955 47.4346C3.46293 47.5254 3.31657 47.6085 3.18952 47.684C3.06326 47.7594 2.92882 47.8433 2.78717 47.9356L1.40439 48.8543C1.21688 48.9768 1.1057 49.1244 1.07021 49.2944C1.03519 49.4645 1.02906 49.6391 1.05215 49.82C1.07257 49.9809 1.11607 50.1286 1.18265 50.264C1.24971 50.3987 1.33593 50.4941 1.44209 50.5495L5.09666 50.084C5.21868 50.0687 5.31558 50.0407 5.38766 50.0022ZM0.755961 43.5517C0.701624 43.4931 0.658907 43.4146 0.627813 43.3147C0.566251 43.1015 0.52809 42.8768 0.51427 42.6406C0.50045 42.4036 0.496525 42.1928 0.503121 42.0057C0.516156 41.6233 0.574421 41.2786 0.678698 40.9693C0.78219 40.6607 0.935149 40.399 1.13679 40.1814C1.33812 39.9651 1.58846 39.8013 1.88715 39.6881C2.18585 39.5757 2.53621 39.5258 2.93887 39.5396C3.33195 39.5534 3.67227 39.6234 3.96029 39.7511C4.24862 39.8789 4.48843 40.0552 4.6794 40.2806C4.87068 40.5053 5.01044 40.7723 5.0987 41.0801C5.18602 41.3871 5.22418 41.7256 5.21115 42.0935C5.20848 42.1767 5.20266 42.2719 5.19418 42.3797C5.1857 42.4875 5.17189 42.599 5.15335 42.7145C5.13451 42.8293 5.11221 42.9438 5.08598 43.0578C5.06023 43.1731 5.02599 43.2786 4.98312 43.3748C4.87114 43.6418 4.68709 43.7703 4.43142 43.7611L0.992787 43.6441C0.889609 43.6402 0.810612 43.6093 0.755961 43.5517ZM1.54432 42.1635C1.54699 42.2343 1.5517 42.3074 1.55893 42.3814L4.12173 42.469C4.13335 42.4144 4.1445 42.349 4.15408 42.2705C4.16413 42.1928 4.17057 42.1189 4.17261 42.0505C4.17874 41.8835 4.15911 41.7296 4.11482 41.5879C4.07053 41.4462 3.99861 41.324 3.89888 41.2195C3.79916 41.1156 3.66787 41.0325 3.50549 40.97C3.34311 40.9085 3.14665 40.873 2.91563 40.8653C2.47371 40.8499 2.13795 40.9422 1.90741 41.14C1.67718 41.3393 1.55594 41.6103 1.54432 41.9533C1.54165 42.0218 1.54196 42.0921 1.54432 42.1635ZM1.34959 35.9205C1.31724 35.829 1.29525 35.6958 1.2841 35.5211C1.27295 35.3472 1.28332 35.1748 1.31598 35.0063C1.36215 34.7654 1.43847 34.5591 1.54432 34.3868C1.65017 34.2137 1.78303 34.1159 1.94243 34.0913C2.21003 34.0528 2.51988 34.0159 2.87213 33.9781C3.22438 33.9412 3.58778 33.9065 3.96202 33.8734C4.33578 33.8403 4.70499 33.8095 5.06839 33.7795C5.43179 33.7496 5.75326 33.7234 6.03233 33.7019C6.08887 33.7734 6.12624 33.8705 6.14509 33.9935C6.16362 34.1174 6.15734 34.2589 6.12703 34.4174C6.10473 34.5336 6.07583 34.629 6.04159 34.7053C6.00689 34.7814 5.96542 34.8408 5.91721 34.8838C5.86869 34.9269 5.81027 34.9584 5.74132 34.9775C5.67285 34.9968 5.59496 35.0107 5.50843 35.0184L4.98374 35.053L4.73122 36.3621C4.8691 36.4283 5.01076 36.4959 5.15775 36.5637C5.30475 36.6321 5.44686 36.6999 5.58396 36.766C5.59511 36.8384 5.60171 36.9129 5.60438 36.9907C5.60705 37.0692 5.59826 37.1609 5.57737 37.2678C5.52994 37.5133 5.45268 37.6872 5.34557 37.7887C5.23816 37.8903 5.11001 37.9273 4.96019 37.8979C4.89282 37.8857 4.82733 37.8632 4.76341 37.8303C4.69949 37.798 4.62411 37.7618 4.53711 37.7195C4.4132 37.6609 4.26071 37.5825 4.07933 37.4856C3.89794 37.3878 3.70242 37.2818 3.49182 37.1655C3.2817 37.0501 3.06608 36.9284 2.84543 36.8015C2.62526 36.6737 2.41655 36.5529 2.22134 36.4407C2.02504 36.3283 1.85103 36.2252 1.69854 36.1337C1.54652 36.0422 1.43 35.9714 1.34959 35.9205ZM2.45031 35.2326C2.6397 35.3389 2.85109 35.4588 3.08288 35.5904C3.315 35.7227 3.5526 35.8476 3.79555 35.9645L3.96798 35.068C3.69457 35.0849 3.42713 35.1041 3.16533 35.1265C2.90323 35.1488 2.6675 35.1697 2.45895 35.1896L2.45031 35.2326ZM3.61872 30.9465C3.85397 31.1565 4.15267 31.3258 4.51418 31.4528C4.90334 31.5906 5.25873 31.649 5.58098 31.6298C5.90323 31.6113 6.19157 31.5313 6.44645 31.3921C6.70134 31.2529 6.92073 31.0628 7.1051 30.8203C7.28946 30.5778 7.43662 30.3016 7.54592 29.9917C7.69794 29.5607 7.74458 29.2168 7.68726 28.9589C7.62915 28.7026 7.50556 28.5403 7.31538 28.4733C7.19524 28.4302 7.0817 28.4155 6.97585 28.4279C6.87032 28.4402 6.77106 28.4741 6.67872 28.5295C6.70102 28.6734 6.71453 28.8195 6.71877 28.9695C6.72301 29.1196 6.69176 29.2898 6.62486 29.4798C6.49938 29.8361 6.29035 30.0808 5.99809 30.2147C5.70583 30.3493 5.35829 30.3448 4.95516 30.2031C4.55674 30.0631 4.28223 29.859 4.13131 29.592C3.98039 29.3258 3.96767 29.0142 4.09393 28.6579C4.15738 28.4771 4.2414 28.3286 4.34489 28.2115C4.44885 28.0946 4.5613 27.9899 4.68254 27.8968C4.65945 27.8006 4.61438 27.706 4.54779 27.6153C4.48073 27.5238 4.38729 27.4568 4.26637 27.4152C4.04839 27.3375 3.82947 27.3913 3.60804 27.5768C3.38598 27.7615 3.20035 28.067 3.05022 28.4933C2.9439 28.7941 2.89317 29.0942 2.89694 29.3921C2.9015 29.6906 2.964 29.9716 3.08445 30.2356C3.20491 30.4988 3.38268 30.7365 3.61872 30.9465ZM8.62151 24.3881L6.19079 23.1538C6.07724 23.0953 5.9783 23.0615 5.89507 23.0523C5.81152 23.043 5.73677 23.0555 5.67066 23.087C5.60438 23.1202 5.54392 23.1708 5.49005 23.2393C5.4354 23.3078 5.38264 23.3925 5.33144 23.4933C5.2826 23.5895 5.2391 23.6942 5.20094 23.8064C5.16278 23.9204 5.13592 24.0026 5.12006 24.055L7.77411 25.4032C7.94042 25.4878 8.04752 25.5888 8.09479 25.7073C8.14253 25.8242 8.1229 25.9689 8.0359 26.1388C8.00009 26.2096 7.96397 26.272 7.92738 26.3274C7.89126 26.3843 7.84273 26.449 7.78306 26.5228C7.80457 26.5782 7.84195 26.6344 7.8955 26.6921C7.94905 26.7491 8.0194 26.7997 8.10719 26.8445C8.21226 26.8975 8.31779 26.9229 8.42442 26.9192C8.53105 26.916 8.63392 26.876 8.73348 26.7999C8.87482 26.6952 9.00329 26.529 9.11919 26.3021C9.33936 25.8681 9.40909 25.4903 9.3279 25.1678C9.24671 24.8462 9.01098 24.5859 8.62151 24.3881ZM9.96157 22.6606C9.87221 22.5567 9.76401 22.4235 9.63743 22.2619C9.51069 22.0996 9.37407 21.9226 9.22818 21.7325C9.08228 21.5424 8.93403 21.3447 8.78358 21.1393C8.63345 20.933 8.49101 20.7398 8.35737 20.5574C8.22341 20.3758 8.10484 20.2121 8.00244 20.0666C7.90005 19.9211 7.82263 19.8088 7.76908 19.7301C7.77646 19.6331 7.80991 19.5032 7.86959 19.3384C7.93005 19.1746 8.00889 19.0214 8.10673 18.8799C8.24602 18.6782 8.3993 18.5196 8.56561 18.405C8.7316 18.2897 8.89242 18.2534 9.04883 18.2958C9.30905 18.3682 9.60822 18.4581 9.9454 18.5659C10.283 18.6736 10.6295 18.7883 10.9852 18.9084C11.3409 19.0293 11.6913 19.1486 12.0361 19.2678C12.3807 19.3871 12.6857 19.4925 12.9496 19.5856C12.9727 19.6733 12.9677 19.7773 12.9346 19.8982C12.9019 20.0182 12.8399 20.1459 12.7471 20.279C12.6805 20.376 12.6155 20.4521 12.553 20.5075C12.4909 20.5629 12.429 20.6014 12.3673 20.6207C12.3058 20.6407 12.2395 20.6461 12.1687 20.6353C12.0982 20.626 12.0212 20.6069 11.9389 20.5799L11.445 20.3998L10.6862 21.4957C10.7854 21.6118 10.8883 21.7311 10.9952 21.8527C11.1022 21.9752 11.205 22.0937 11.304 22.2099C11.2847 22.2799 11.2608 22.3514 11.2316 22.4245C11.2024 22.4961 11.1573 22.5769 11.0957 22.6654C10.9533 22.8725 10.8124 22.9995 10.6735 23.0502C10.5342 23.1002 10.4016 23.0816 10.2766 22.9955C10.2201 22.9554 10.1689 22.9086 10.1238 22.854C10.0784 22.7986 10.0247 22.7345 9.96157 22.6606ZM9.99 20.7553L10.5097 20.0036C10.2521 19.9098 9.99911 19.8204 9.7505 19.7343C9.50222 19.6497 9.27858 19.5734 9.07914 19.5073L9.05417 19.5442C9.18467 19.7173 9.32947 19.9121 9.48887 20.1266C9.6478 20.3405 9.81521 20.5505 9.99 20.7553ZM13.5114 13.1443C13.4425 13.0682 13.4093 12.9897 13.4128 12.9105C13.4167 12.8304 13.4432 12.745 13.4924 12.6534C13.5759 12.498 13.6903 12.3348 13.8358 12.1663C13.981 11.9978 14.1457 11.8286 14.3313 11.6601C14.8321 11.2038 15.3058 10.9652 15.7519 10.9435C16.1978 10.922 16.5846 11.0913 16.9127 11.4507C17.1179 11.6754 17.2349 11.9209 17.2646 12.1863C17.2938 12.4525 17.2688 12.7011 17.1884 12.9336C17.4815 12.9929 17.7624 13.0419 18.0319 13.0819C18.3014 13.122 18.5301 13.1721 18.7183 13.2328C18.7984 13.3937 18.8204 13.5507 18.7854 13.706C18.7507 13.8606 18.6734 13.9922 18.5533 14.1015C18.4732 14.1746 18.3962 14.2285 18.3215 14.2632C18.2467 14.2979 18.1732 14.3185 18.0997 14.3254C18.0263 14.3331 17.9499 14.3294 17.8703 14.3155C17.7913 14.3009 17.7106 14.2816 17.6281 14.2569L16.5001 13.9391L16.2118 14.2015L17.165 15.2465C17.135 15.295 17.0823 15.3618 17.0072 15.4511C16.9313 15.5396 16.852 15.6219 16.769 15.6982C16.6851 15.7735 16.6058 15.8344 16.531 15.8798C16.456 15.9252 16.382 15.9505 16.3109 15.9559C16.2392 15.9604 16.1661 15.9443 16.0915 15.9066C16.0167 15.8682 15.9363 15.8019 15.8504 15.7073L13.5114 13.1443ZM14.8007 12.6664L15.5456 13.4836L15.8941 13.1658C16.0323 13.0396 16.1089 12.9049 16.1243 12.7618C16.1397 12.6187 16.0847 12.4779 15.9588 12.3401C15.8328 12.2015 15.6932 12.1384 15.5395 12.1477C15.3862 12.1585 15.2134 12.2515 15.0204 12.427C14.9661 12.4763 14.9242 12.5179 14.895 12.5509C14.8657 12.5848 14.8346 12.6234 14.8007 12.6664ZM18.7268 9.69927C18.666 9.38757 18.6675 9.09067 18.733 8.80973C18.798 8.52879 18.9205 8.26795 19.1003 8.02719C19.2793 7.78565 19.5064 7.5739 19.7817 7.39466C20.0565 7.21386 20.3406 7.08921 20.6333 7.01905C20.9264 6.95063 21.2155 6.94136 21.5015 6.99127C21.7871 7.04213 22.0609 7.15669 22.3235 7.33671C22.586 7.51673 22.8227 7.76771 23.0333 8.08773C23.2434 8.40712 23.381 8.72415 23.4455 9.03647C23.5105 9.34959 23.5102 9.64672 23.4447 9.92688C23.3797 10.2078 23.2564 10.47 23.0747 10.7117C22.8934 10.9548 22.6631 11.168 22.3841 11.3511C22.1045 11.5343 21.817 11.6605 21.5205 11.7282C21.2248 11.7966 20.9349 11.8035 20.652 11.7489C20.369 11.6935 20.0974 11.5758 19.837 11.3934C19.5763 11.2118 19.3423 10.964 19.1348 10.6477C18.9242 10.3276 18.7885 10.0108 18.7268 9.69927ZM19.9257 8.93369C19.8918 9.21839 19.9976 9.54622 20.2429 9.92008C20.4885 10.2933 20.748 10.5218 21.0214 10.6072C21.2948 10.6926 21.5585 10.651 21.8134 10.4833C22.072 10.3132 22.2165 10.0871 22.2473 9.80158C22.2778 9.51766 22.1703 9.18899 21.9247 8.81576C21.6818 8.44568 21.4247 8.21863 21.1536 8.13247C20.8823 8.0463 20.6173 8.0879 20.3587 8.25709C20.1043 8.42487 19.9595 8.65039 19.9257 8.93369ZM24.3441 5.80573C24.4096 5.87887 24.4693 5.93269 24.5227 5.968L26.1715 5.21545L25.4686 7.75466C25.4328 7.88932 25.4128 8.02795 25.4073 8.17031C25.4023 8.31344 25.4254 8.44043 25.4763 8.55281C25.5397 8.69061 25.6203 8.80215 25.7184 8.88675C25.8166 8.97213 25.9179 9.02833 26.0226 9.05611L28.6639 7.85026C28.7886 7.79407 28.8734 7.70943 28.9169 7.59784C28.9604 7.48625 28.9424 7.34316 28.8626 7.16926C28.8199 7.0754 28.7656 6.99226 28.7002 6.91991C28.6349 6.84756 28.5751 6.79289 28.5212 6.75821L26.8053 7.54075L27.4878 5.01141C27.5236 4.87596 27.5425 4.74207 27.5436 4.60898C27.5447 4.47667 27.52 4.35425 27.4693 4.24266C27.3465 3.97412 27.1502 3.80478 26.8802 3.734L24.3803 4.87433C24.2551 4.9313 24.1708 5.0159 24.1273 5.12828C24.0838 5.23908 24.1018 5.38229 24.1811 5.55619C24.2238 5.65083 24.2783 5.73338 24.3441 5.80573ZM30.135 4.24755C30.2466 4.48768 30.3625 4.72621 30.483 4.96399C30.6039 5.20098 30.7186 5.42097 30.8275 5.62343C30.9365 5.8259 31.0381 6.0044 31.1325 6.15978C31.2269 6.31595 31.3062 6.43068 31.3715 6.50445C31.4524 6.59987 31.5872 6.65521 31.7766 6.66902C31.9656 6.68284 32.1673 6.66141 32.3806 6.60523C32.5514 6.55987 32.7031 6.4983 32.8341 6.41747C32.9657 6.33743 33.0585 6.25519 33.1121 6.16965C33.116 5.95039 33.1144 5.68403 33.1081 5.37092C33.1019 5.05781 33.0916 4.73918 33.0774 4.41289C33.2405 4.7045 33.3922 4.97229 33.532 5.21478C33.6718 5.45726 33.7972 5.66565 33.9089 5.83954C33.9709 5.93952 34.0871 5.99965 34.2569 6.01801C34.4271 6.03653 34.6235 6.01725 34.8471 5.95871C35.0179 5.91335 35.1789 5.84865 35.3291 5.76406C35.4792 5.67868 35.5816 5.59335 35.6351 5.50781C35.6555 5.39088 35.6675 5.22923 35.6717 5.023C35.676 4.81598 35.6728 4.58746 35.6629 4.33587C35.6529 4.08506 35.6372 3.82267 35.616 3.54864C35.5952 3.27539 35.5714 3.01529 35.5447 2.76763C35.5177 2.52138 35.49 2.29895 35.4608 2.10119C35.4319 1.90265 35.4038 1.75112 35.3765 1.64722C35.3287 1.46642 35.2309 1.35555 35.0828 1.31396C34.9342 1.2708 34.7722 1.27318 34.5966 1.31932C34.3968 1.37158 34.2224 1.47016 34.073 1.61628C34.1115 1.87948 34.1497 2.14027 34.1862 2.39719C34.2236 2.65349 34.261 2.91285 34.299 3.1737C34.3375 3.43612 34.3741 3.70305 34.4102 3.97473C34.446 4.24719 34.4807 4.53408 34.5142 4.83495L34.4783 4.84425C34.3967 4.68887 34.3155 4.53879 34.2354 4.39785C34.155 4.25628 34.0733 4.11394 33.9901 3.9708C33.9069 3.82845 33.8203 3.67838 33.731 3.52143C33.6416 3.36448 33.545 3.19596 33.4419 3.01516C33.3833 2.90828 33.2798 2.84285 33.1312 2.81821C32.9827 2.79435 32.8087 2.80734 32.6087 2.86055C32.4947 2.88974 32.3862 2.93528 32.2822 2.99523C32.1788 3.05519 32.104 3.10369 32.0578 3.14151C32.074 3.39624 32.0852 3.62242 32.0921 3.82174C32.0982 4.02028 32.1029 4.20718 32.1056 4.38108C32.1079 4.55577 32.1117 4.72884 32.1159 4.90038C32.1202 5.07193 32.126 5.25822 32.1332 5.45896L32.0974 5.46825C32.0658 5.40594 32.0277 5.31895 31.9834 5.20893C31.9396 5.09891 31.8749 4.945 31.7893 4.74568C31.7042 4.54713 31.5949 4.29398 31.4598 3.98306C31.3251 3.67293 31.1561 3.28588 30.9532 2.82194C30.8758 2.64412 30.7691 2.53112 30.6322 2.48341C30.4952 2.4357 30.3365 2.43571 30.156 2.48264C30.0178 2.51874 29.8966 2.57885 29.7911 2.66187C29.6863 2.74568 29.6086 2.82729 29.5585 2.90576C29.6298 3.10038 29.7155 3.3129 29.8168 3.54298C29.9176 3.77229 30.0236 4.00742 30.135 4.24755ZM38.1945 4.02827C38.0558 3.742 37.9727 3.41112 37.9454 3.03413C37.9176 2.65243 37.9528 2.30998 38.0513 2.0077C38.1497 1.70541 38.2961 1.4468 38.4894 1.23445C38.6835 1.02053 38.9175 0.852662 39.1916 0.729614C39.4656 0.605781 39.7674 0.532684 40.0955 0.508043C40.4236 0.484187 40.7323 0.513392 41.0217 0.59579C41.3112 0.678188 41.5684 0.810444 41.7933 0.994388C42.019 1.17676 42.2021 1.41007 42.3439 1.69541C42.4848 1.9809 42.5696 2.31408 42.5972 2.69578C42.6256 3.07748 42.5911 3.42056 42.4948 3.72614C42.3993 4.03094 42.2538 4.29018 42.0606 4.50332C41.8665 4.71645 41.6317 4.88577 41.3553 5.00882C41.0781 5.13265 40.7731 5.20663 40.4399 5.23049C40.1073 5.25434 39.7946 5.2251 39.5028 5.14035C39.2102 5.05575 38.9546 4.92036 38.7336 4.73485C38.5134 4.54871 38.3338 4.31298 38.1945 4.02827ZM39.2679 2.93795C39.3002 3.38353 39.4157 3.71044 39.6127 3.91668C39.8098 4.12369 40.0608 4.21676 40.3642 4.19448C40.6729 4.17219 40.9101 4.04445 41.0756 3.81044C41.2404 3.57721 41.3066 3.23707 41.2743 2.79244C41.2427 2.35157 41.1287 2.02686 40.934 1.81984C40.7392 1.61204 40.4873 1.51975 40.1786 1.54204C39.8744 1.56433 39.6388 1.69126 39.4709 1.92292C39.303 2.15457 39.2355 2.49237 39.2679 2.93795ZM44.6484 5.0071C44.8001 5.09483 45.0033 5.14795 45.2589 5.16334C45.7441 5.1941 46.1189 5.10786 46.3823 4.90555C46.6464 4.70325 46.7919 4.3847 46.8197 3.94838L46.9913 1.22966C46.999 1.1019 46.9905 0.998084 46.9659 0.91804C46.9412 0.837997 46.9012 0.773285 46.8457 0.726357C46.7895 0.67786 46.7187 0.642565 46.634 0.620122C46.5494 0.597678 46.4508 0.583268 46.3375 0.575577C46.2298 0.568672 46.1166 0.570192 45.998 0.58008C45.8794 0.589967 45.7924 0.597811 45.7378 0.603932L45.5507 3.57345C45.5391 3.75959 45.4884 3.89738 45.399 3.98747C45.3097 4.07756 45.1696 4.1176 44.9786 4.1052C44.9001 4.10065 44.8277 4.0921 44.7614 4.08048C44.6959 4.06887 44.6174 4.05054 44.5251 4.02511C44.4835 4.0667 44.4466 4.12367 44.415 4.19524C44.3834 4.26681 44.3641 4.35218 44.358 4.44996C44.3511 4.56767 44.3702 4.67472 44.4158 4.77077C44.4612 4.86777 44.5389 4.94636 44.6484 5.0071ZM49.5331 5.11257C49.6702 5.29871 49.8511 5.4573 50.0758 5.58742C50.2999 5.71815 50.5631 5.81431 50.8665 5.87662C51.1699 5.93814 51.4501 5.95278 51.7073 5.91982C51.9646 5.88686 52.1932 5.81209 52.3927 5.69423C52.5921 5.57636 52.7576 5.42041 52.89 5.22407C53.0232 5.02867 53.1157 4.80076 53.1688 4.53991L53.6208 2.31768C53.6462 2.19307 53.6523 2.08915 53.6393 2.00597C53.6263 1.92279 53.5955 1.85358 53.5462 1.79896C53.4976 1.74356 53.4321 1.69894 53.3514 1.66504C53.2707 1.63114 53.1751 1.60353 53.0642 1.58045C52.9587 1.55895 52.8456 1.545 52.727 1.53888C52.6077 1.53197 52.5207 1.52803 52.466 1.52662L51.9101 4.2623C51.8631 4.49317 51.7631 4.66088 51.6114 4.76541C51.4605 4.86931 51.2811 4.90009 51.074 4.85929C50.8715 4.8177 50.7198 4.71853 50.6189 4.563C50.5173 4.40762 50.4902 4.21443 50.5372 3.98277L50.9852 1.78124C51.0107 1.65662 51.0168 1.55271 51.0038 1.46953C50.9907 1.38713 50.9592 1.31867 50.9106 1.26405C50.8613 1.20864 50.7966 1.16412 50.7159 1.13022C50.6352 1.09632 50.5396 1.06792 50.4287 1.04564C50.3224 1.02414 50.2101 1.01011 50.0915 1.0032C49.9722 0.996295 49.8852 0.992395 49.8305 0.99161L49.2692 3.74798C49.2169 4.00726 49.213 4.25423 49.2584 4.48588C49.3038 4.71832 49.3953 4.92784 49.5331 5.11257ZM58.6771 8.22443C58.8634 8.40445 59.0975 8.56 59.3778 8.69152C59.6582 8.82304 59.9269 8.90225 60.1847 8.93081C60.4426 8.95938 60.6821 8.94093 60.9038 8.87391C61.1248 8.80627 61.3227 8.69382 61.4982 8.53451C61.6738 8.37521 61.817 8.17589 61.9301 7.93513L62.8933 5.88131C62.9479 5.76595 62.9779 5.66663 62.9848 5.58282C62.9917 5.49963 62.9779 5.42507 62.9424 5.35962C62.9085 5.29495 62.8554 5.23586 62.7854 5.18422C62.7146 5.13274 62.6283 5.08261 62.5259 5.03411C62.4281 4.98875 62.3219 4.948 62.2079 4.91331C62.0939 4.87863 62.0101 4.85471 61.9578 4.84089L60.7713 7.36794C60.6712 7.58186 60.5349 7.72032 60.3631 7.78656C60.1913 7.85279 60.0098 7.84042 59.8188 7.75111C59.6318 7.66338 59.5077 7.5318 59.4462 7.35711C59.3846 7.18164 59.4037 6.98705 59.5039 6.77392L60.458 4.74012C60.5126 4.62476 60.5426 4.52465 60.5495 4.44163C60.5565 4.35781 60.5426 4.28309 60.5079 4.21843C60.4732 4.15376 60.4209 4.09466 60.3501 4.04303C60.2793 3.99076 60.1931 3.94063 60.0907 3.89292C59.9928 3.84678 59.8867 3.80681 59.7727 3.77212C59.6586 3.73744 59.5748 3.71361 59.5225 3.6998L58.3275 6.24667C58.2143 6.4868 58.1535 6.72537 58.1427 6.96158C58.1319 7.19779 58.1719 7.42254 58.262 7.63568C58.3522 7.84882 58.4899 8.04425 58.6771 8.22443ZM63.6125 10.8914C63.6972 10.9508 63.7865 11.0031 63.8805 11.0484C63.9752 11.093 64.0552 11.1245 64.1215 11.1407C64.2947 10.9199 64.4504 10.7182 64.5897 10.5329C64.729 10.3489 64.8637 10.165 64.9962 9.98196C65.1278 9.79801 65.2657 9.61186 65.409 9.42022C65.5522 9.23016 65.7124 9.02081 65.8917 8.79229L65.9217 8.81375C65.8463 9.00696 65.767 9.23706 65.6861 9.50701C65.6037 9.77712 65.4952 10.1281 65.3589 10.5605C65.3242 10.6681 65.3419 10.7736 65.4111 10.8759C65.4796 10.979 65.5867 11.0806 65.7315 11.1829C65.84 11.259 65.9448 11.313 66.0456 11.3452C66.1464 11.3767 66.2381 11.389 66.322 11.3813C66.6901 11.0881 66.9957 10.8496 67.239 10.6664C67.4823 10.4832 67.6787 10.3271 67.8295 10.1985L67.8595 10.22C67.7048 10.4655 67.5075 10.7648 67.2674 11.1181C67.0279 11.472 66.7661 11.8768 66.482 12.3308C66.3828 12.4893 66.3666 12.6309 66.4343 12.7571C66.502 12.8825 66.6122 12.9994 66.7654 13.1065C66.8816 13.1889 66.9833 13.2465 67.0703 13.2812C67.1581 13.3151 67.2489 13.3358 67.3459 13.3435C67.4099 13.2443 67.4984 13.1011 67.6123 12.914C67.7255 12.7271 67.8494 12.5194 67.9826 12.2924C68.1158 12.0639 68.2537 11.8268 68.3977 11.5798C68.5417 11.3328 68.6772 11.0973 68.8043 10.8749C68.9305 10.6526 69.0437 10.4503 69.143 10.2709C69.2422 10.0915 69.3117 9.95617 69.3525 9.86452C69.4087 9.74209 69.3949 9.60742 69.3117 9.46209C69.2278 9.31659 69.0876 9.17433 68.8905 9.0359C68.7742 8.95429 68.661 8.89118 68.5509 8.84661C68.4409 8.80282 68.3446 8.77582 68.2615 8.76499C68.0313 8.92116 67.7572 9.12356 67.4392 9.3706C67.1204 9.61842 66.7947 9.87614 66.4607 10.1462L66.4307 10.1248C66.4723 9.9986 66.5185 9.85539 66.57 9.69688C66.6215 9.53757 66.6732 9.37751 66.7247 9.21522C66.7756 9.05357 66.8239 8.89505 66.8687 8.74124C66.9141 8.58664 66.9525 8.44887 66.9849 8.32645C67.0326 8.13874 67.0204 7.96938 66.9464 7.81855C66.8717 7.66694 66.7284 7.51693 66.516 7.36688C66.3189 7.2283 66.1449 7.15132 65.9939 7.13516C65.843 7.11899 65.7337 7.12677 65.6645 7.15518L63.3276 10.1053C63.2229 10.2538 63.1998 10.3908 63.2592 10.5154C63.3185 10.6416 63.4355 10.7667 63.6125 10.8914ZM69.0692 14.6882C69.0368 14.7659 69.0276 14.8414 69.04 14.9137C69.053 14.9861 69.0846 15.0577 69.1362 15.1292C69.1871 15.2 69.254 15.2755 69.3365 15.3524C69.4189 15.4294 69.5073 15.5017 69.6014 15.5703C69.6961 15.6379 69.7677 15.6849 69.8178 15.7118L72.4764 12.8731C72.5634 12.78 72.6234 12.6946 72.6558 12.6168C72.6881 12.5389 72.6974 12.4644 72.685 12.3913C72.6719 12.3197 72.6404 12.2473 72.5887 12.1757C72.5378 12.1049 72.4709 12.0311 72.3885 11.9534C72.3099 11.8795 72.2214 11.8087 72.1235 11.7403C72.0257 11.6726 71.9533 11.6233 71.9079 11.594L69.2485 14.4327C69.1615 14.525 69.1015 14.6112 69.0692 14.6882ZM71.6493 17.386C71.6347 17.5583 71.6954 17.7261 71.8317 17.887L73.2216 19.5292C73.307 19.6299 73.4072 19.6853 73.5211 19.6954C73.6359 19.7054 73.7635 19.65 73.906 19.5292C73.9814 19.4653 74.0439 19.3945 74.0938 19.3175C74.1439 19.2391 74.1785 19.1707 74.1978 19.109L72.975 17.6638L73.5655 17.1644L74.441 18.1992C74.5265 18.3 74.6251 18.3554 74.736 18.3647C74.8468 18.3747 74.9731 18.3185 75.1155 18.1985C75.1909 18.1346 75.2526 18.0647 75.3004 17.9892C75.3489 17.9123 75.382 17.8437 75.402 17.7829L74.3309 16.5179L74.8545 16.0755L75.8585 17.262C75.9439 17.3635 76.0426 17.4198 76.1556 17.4306C76.2673 17.4414 76.3951 17.3868 76.5376 17.2667C76.6129 17.2036 76.6755 17.1329 76.7254 17.0552C76.7753 16.9775 76.8093 16.9082 76.8286 16.8465L75.2586 14.9904C75.1223 14.8304 74.9676 14.7419 74.7944 14.7273C74.6212 14.7127 74.4541 14.7742 74.2931 14.9097L71.9123 16.9219C71.7513 17.0582 71.6631 17.2128 71.6493 17.386ZM79.1718 21.1965C79.2788 21.1265 79.3574 21.0587 79.4074 20.9911C79.4575 20.924 79.4851 20.8533 79.4898 20.7796C79.4944 20.7064 79.4814 20.6288 79.449 20.5479C79.4167 20.4655 79.3697 20.3772 79.3081 20.2831C79.2496 20.1923 79.1811 20.1015 79.1026 20.0122C79.024 19.9229 78.9663 19.8583 78.9286 19.8183L76.4292 21.435C76.2729 21.5365 76.1313 21.5781 76.0057 21.5604C75.8794 21.5418 75.7646 21.4527 75.6608 21.2919C75.6176 21.2264 75.5815 21.1633 75.5515 21.1033C75.5223 21.044 75.4899 20.9694 75.456 20.8801C75.3966 20.8717 75.3297 20.8762 75.2536 20.8932C75.1766 20.9101 75.0973 20.9454 75.0149 20.9994C74.9156 21.0633 74.8409 21.1425 74.7908 21.2364C74.7399 21.3302 74.7231 21.4388 74.7393 21.5635C74.7586 21.7382 74.8379 21.9328 74.9772 22.1475C75.2413 22.5554 75.5331 22.8046 75.8527 22.8961C76.1723 22.9876 76.5156 22.9146 76.8829 22.6768L79.1718 21.1965ZM77.8413 27.7388C77.9084 27.708 77.9645 27.6927 78.0122 27.695C78.0592 27.6966 78.1077 27.7043 78.1586 27.7181L78.2063 27.818C78.2657 27.9304 78.348 28.0042 78.4519 28.0389C78.5551 28.0736 78.6914 28.0505 78.8601 27.9704C78.9479 27.9273 79.0264 27.8751 79.0949 27.812C79.1626 27.7497 79.2134 27.6911 79.2474 27.6365L78.4273 25.9304L79.1249 25.5957L79.7124 26.8169C79.7694 26.9369 79.8503 27.0147 79.9556 27.0516C80.0604 27.0884 80.1967 27.0661 80.3652 26.9853C80.4538 26.9429 80.5307 26.8914 80.597 26.8299C80.6625 26.7676 80.7124 26.7107 80.7463 26.6553L80.028 25.1625L80.6463 24.8655L81.3192 26.266C81.3763 26.3852 81.4579 26.4654 81.5641 26.5038C81.6696 26.543 81.8073 26.5223 81.9752 26.4415C82.0638 26.3991 82.1423 26.3461 82.21 26.2845C82.2777 26.2214 82.3286 26.1621 82.3633 26.1083L81.31 23.9176C81.219 23.7275 81.0914 23.6036 80.9273 23.5467C80.7633 23.4889 80.5862 23.5066 80.396 23.5975L77.5857 24.9457C77.3955 25.0372 77.2716 25.1642 77.2138 25.3282C77.1568 25.4921 77.1738 25.6691 77.2653 25.86L77.7311 26.8296C77.6526 26.7896 77.5555 26.7673 77.4401 26.7603C77.3253 26.7527 77.1945 26.7842 77.0481 26.8542C76.928 26.912 76.8325 26.985 76.7609 27.0735C76.6893 27.1628 76.6392 27.2612 76.61 27.3712C76.58 27.4805 76.5745 27.5952 76.5907 27.7152C76.6076 27.8353 76.6453 27.9546 76.7023 28.0746C76.8124 28.3047 76.9394 28.4394 77.0811 28.481C77.2235 28.521 77.3591 28.511 77.4869 28.4487C77.5447 28.4217 77.5938 28.3925 77.6339 28.3625C77.6739 28.3317 77.7101 28.301 77.744 28.2695C77.6185 28.0079 77.6512 27.8311 77.8413 27.7388ZM79.9795 30.7944C79.8578 30.8329 79.7639 30.8782 79.6978 30.9299C79.6315 30.9821 79.5861 31.0423 79.5622 31.1115C79.5376 31.1815 79.5307 31.2599 79.5399 31.3469C79.55 31.4338 79.5715 31.5309 79.6054 31.6393C79.6401 31.747 79.6816 31.8532 79.7301 31.9587C79.7786 32.0642 79.8187 32.141 79.8487 32.1872L83.0948 31.16L83.3412 31.9401C83.3828 32.0702 83.456 32.1649 83.5622 32.2217C83.6677 32.2779 83.8117 32.2779 83.994 32.2194C84.0926 32.1886 84.1818 32.1446 84.2619 32.0886C84.342 32.0326 84.402 31.9794 84.4436 31.9309L83.4734 28.8692C83.4326 28.7384 83.3586 28.6444 83.2533 28.5882C83.1469 28.5312 83.0031 28.5312 82.8206 28.589C82.722 28.6205 82.6336 28.6643 82.5535 28.7205C82.4726 28.7767 82.4126 28.8298 82.371 28.8783L82.7052 29.9317L79.9795 30.7944ZM80.9097 35.2767C80.8389 35.3175 80.7858 35.3682 80.7503 35.4283C80.7148 35.4877 80.6964 35.5607 80.6941 35.6454C80.6925 35.73 80.6994 35.8262 80.7164 35.9324C80.7325 36.0393 80.7564 36.1463 80.788 36.2532C80.8195 36.3595 80.8465 36.4387 80.8696 36.4902L81.9985 36.3164C82.2603 36.2756 82.5266 36.2331 82.7984 36.1886C83.0703 36.144 83.3351 36.0916 83.5947 36.0324L83.6085 36.0748C83.4445 36.1694 83.3005 36.2571 83.1758 36.3356C83.0511 36.4141 82.9194 36.5019 82.7801 36.5973L81.4204 37.5453C81.2326 37.6784 81.1239 37.8292 81.0955 37.9985C81.067 38.1663 81.0663 38.3402 81.0939 38.5202C81.1217 38.6986 81.1639 38.8503 81.2202 38.9735C81.2764 39.0967 81.3441 39.1866 81.422 39.2444L85.1656 38.6665C85.4027 38.6296 85.5513 38.5504 85.6091 38.4264C85.6669 38.3034 85.6799 38.1347 85.6467 37.9216C85.6306 37.8147 85.6067 37.7077 85.5744 37.6009C85.5436 37.4946 85.5158 37.4153 85.4935 37.3639L84.3139 37.5462C84.0513 37.587 83.7896 37.63 83.5278 37.6747C83.2667 37.7201 83.0065 37.7725 82.7471 37.8325L82.7341 37.797C82.8988 37.7024 83.0428 37.6162 83.1675 37.5362C83.2922 37.4577 83.424 37.3699 83.5632 37.2745L84.9222 36.3196C85.1062 36.1911 85.2132 36.0419 85.2439 35.8711C85.2747 35.6996 85.2763 35.5241 85.2485 35.3455C85.2238 35.1846 85.1761 35.0377 85.106 34.9046C85.0352 34.7716 84.9466 34.679 84.8389 34.626L81.1979 35.1877C81.0761 35.2062 80.9805 35.2359 80.9097 35.2767ZM85.4231 41.9812C85.6194 42.192 85.768 42.4399 85.8674 42.7238C85.9674 43.007 86.016 43.3125 86.0122 43.6418C86.0083 43.9705 85.9536 44.2759 85.8467 44.5566C85.7403 44.8376 85.5865 45.083 85.3847 45.2915C85.1836 45.5001 84.935 45.6631 84.6385 45.78C84.342 45.8969 84.0025 45.9532 83.6199 45.9486C83.2364 45.9447 82.8969 45.8816 82.6014 45.7609C82.3049 45.6392 82.0592 45.473 81.8629 45.2623C81.6666 45.0515 81.5181 44.8029 81.4187 44.5174C81.3186 44.2311 81.2701 43.921 81.2746 43.587C81.2786 43.253 81.3346 42.9445 81.4433 42.6614C81.5518 42.3774 81.7082 42.1335 81.9122 41.9303C82.1155 41.7264 82.3658 41.5671 82.6621 41.4523C82.9578 41.3384 83.295 41.283 83.6738 41.2869C84.0565 41.2915 84.3953 41.3554 84.6878 41.4794C84.982 41.6032 85.2268 41.7711 85.4231 41.9812ZM84.9727 43.6372C84.9766 43.3324 84.8695 43.087 84.6531 42.9008C84.4367 42.7139 84.1049 42.6185 83.6584 42.613C83.211 42.6076 82.8762 42.6954 82.6529 42.8738C82.4296 43.0531 82.3163 43.2947 82.3126 43.5994C82.3094 43.9087 82.4173 44.1558 82.6359 44.3398C82.8545 44.5237 83.1879 44.619 83.6353 44.6236C84.0772 44.6282 84.4099 44.5436 84.6324 44.3659C84.8565 44.1897 84.9689 43.9466 84.9727 43.6372ZM86.538 49.7578C86.5125 49.674 86.4709 49.6085 86.4141 49.5616C86.3572 49.5147 86.2955 49.4862 86.227 49.4746C86.1207 49.4569 86.0169 49.4831 85.9151 49.5531C85.8134 49.6231 85.7372 49.7262 85.6849 49.8616L85.9106 50.9228C85.9499 51.1036 86.0045 51.2406 86.0738 51.3344C86.1422 51.4283 86.247 51.4861 86.3878 51.5099C86.5133 51.5314 86.6327 51.4983 86.7443 51.4121C86.8552 51.3267 86.9406 51.1666 87 50.932L86.538 49.7578ZM84.342 48.2796C84.1288 48.2435 83.9431 48.2489 83.7831 48.2942C83.6237 48.3396 83.4797 48.4167 83.3527 48.5243C83.2248 48.6336 83.1094 48.7682 83.0046 48.9298C82.8999 49.0915 82.7945 49.2731 82.6858 49.4738L82.5334 49.7617C82.461 49.8948 82.3933 49.9955 82.3294 50.0641C82.2662 50.1333 82.1853 50.1595 82.0883 50.1433C81.9912 50.1272 81.9151 50.0649 81.8581 49.9557C81.8018 49.8464 81.7934 49.6733 81.8334 49.4363C81.8719 49.2038 81.9459 48.9962 82.0567 48.813C82.1668 48.6299 82.2862 48.4791 82.4164 48.3614C82.3787 48.2559 82.3171 48.1528 82.2315 48.0544C82.1461 47.9552 82.0336 47.8943 81.8928 47.8712C81.7572 47.8481 81.6302 47.8681 81.5124 47.9306C81.3962 47.9929 81.2899 48.0898 81.196 48.2213C81.1013 48.3521 81.0204 48.5107 80.9527 48.6962C80.8842 48.8817 80.831 49.0847 80.7941 49.3079C80.6886 49.9374 80.7363 50.4353 80.9365 50.8022C81.1368 51.1692 81.4424 51.3871 81.8543 51.4563C82.2416 51.5202 82.5688 51.4493 82.8352 51.2423C83.1008 51.0353 83.345 50.7159 83.5667 50.2851L83.7545 49.9211C83.8139 49.801 83.8723 49.7141 83.9285 49.6587C83.9855 49.6041 84.0502 49.5826 84.1226 49.5941C84.215 49.6094 84.2828 49.6725 84.3266 49.7849C84.3698 49.8965 84.3736 50.0611 84.3367 50.2797C84.3012 50.4929 84.2436 50.6845 84.1627 50.8553C84.0818 51.026 83.9987 51.1593 83.9125 51.254C83.9618 51.347 84.0265 51.4302 84.1066 51.5026C84.1867 51.5765 84.2899 51.6226 84.4162 51.6441C84.5416 51.6656 84.6578 51.6473 84.7642 51.5903C84.8711 51.5333 84.9652 51.4455 85.0475 51.3278C85.1291 51.2093 85.2 51.0631 85.2584 50.8892C85.3177 50.7145 85.3647 50.5229 85.3993 50.3144C85.4947 49.7434 85.4454 49.2788 85.2515 48.9201C85.0575 48.5615 84.754 48.348 84.342 48.2796ZM83.2094 54.1708C82.9677 53.9677 82.6643 53.8076 82.2994 53.6907C81.906 53.5653 81.5487 53.5169 81.2283 53.5453C80.9065 53.5745 80.6209 53.6621 80.3698 53.8092C80.1196 53.9554 79.9055 54.1525 79.7284 54.4001C79.5513 54.6478 79.4127 54.9279 79.3125 55.2412C79.1732 55.6767 79.1362 56.0214 79.2009 56.2762C79.2664 56.5325 79.395 56.6902 79.5866 56.7517C79.7083 56.7909 79.8222 56.8025 79.9277 56.7878C80.0332 56.7724 80.1309 56.7355 80.2226 56.677C80.1956 56.5338 80.178 56.3877 80.1687 56.2383C80.1603 56.0883 80.1865 55.9175 80.248 55.7259C80.3635 55.3657 80.5645 55.1148 80.8525 54.9725C81.1405 54.8301 81.4885 54.8233 81.895 54.9532C82.2976 55.0818 82.578 55.2772 82.7366 55.5388C82.8952 55.8012 82.9167 56.1129 82.8021 56.4729C82.7435 56.6545 82.6642 56.8062 82.5641 56.9254C82.4633 57.0463 82.354 57.1548 82.2353 57.2502C82.2615 57.3464 82.3093 57.4387 82.3785 57.528C82.4478 57.6173 82.544 57.6819 82.6657 57.7203C82.8851 57.7903 83.1031 57.7304 83.3195 57.5388C83.5351 57.3472 83.7121 57.0363 83.85 56.607C83.9471 56.303 83.9893 56.0013 83.9763 55.7036C83.9632 55.4059 83.8924 55.1265 83.7646 54.8665C83.636 54.6064 83.4513 54.3747 83.2094 54.1708ZM78.4557 58.5601C78.3718 58.5547 78.2979 58.5685 78.2332 58.6038C78.1685 58.6392 78.1101 58.6916 78.0584 58.7632C78.0075 58.8339 77.9583 58.9209 77.9114 59.024C77.8636 59.1263 77.8228 59.2326 77.7883 59.3441C77.7536 59.4549 77.732 59.5381 77.7228 59.5942L81.2608 61.2125C81.377 61.2656 81.4764 61.2949 81.5603 61.3018C81.6435 61.3071 81.7181 61.2926 81.7828 61.2572C81.8475 61.2219 81.906 61.1687 81.9568 61.0979C82.0084 61.0272 82.0577 60.9402 82.1046 60.8379C82.1492 60.7393 82.1885 60.6332 82.2224 60.5185C82.2555 60.4045 82.2794 60.3207 82.2924 60.2677L78.7552 58.6486C78.639 58.5955 78.5388 58.5662 78.4557 58.5601ZM75.7806 42.4582C75.7806 60.6931 60.9893 75.4753 42.7434 75.4753C24.4976 75.4753 9.70621 60.6931 9.70621 42.4582C9.70621 24.2233 24.4976 9.44111 42.7434 9.44111C60.9893 9.44111 75.7806 24.2234 75.7806 42.4582ZM34.2467 66.0661C34.2852 65.6398 34.1906 65.26 33.8668 64.948C33.3633 64.4629 32.7279 64.2662 31.9736 64.3772C31.5543 64.4388 31.1814 64.6055 30.8404 64.8113C30.7204 64.8836 30.5309 64.9744 30.5863 65.1406C30.616 65.2298 30.7184 65.3288 30.8183 65.3683C31.0771 65.4711 31.3552 65.5379 31.6211 65.6289C32.4696 65.9189 33.0576 66.4474 33.4931 67.1155C33.5391 67.186 33.6454 67.3019 33.6768 67.2921C33.7891 67.2557 33.9287 67.192 33.9722 67.1069C34.1443 66.7717 34.3136 66.4294 34.2467 66.0661ZM16.9631 57.2863C16.9458 56.8567 16.8902 56.4197 16.7537 56.0154C16.6341 55.6607 16.3773 55.349 16.1923 55.0133C16.0442 54.7448 15.8215 54.5499 15.5165 54.4124C15.0909 54.2203 14.884 54.4636 14.7798 54.7229C14.5851 55.2085 14.7839 55.6457 14.8617 56.0578C14.9771 56.3232 15.0832 56.5484 15.1732 56.779C15.3449 57.2186 15.6849 57.5472 16.0874 57.8236C16.246 57.9325 16.5045 58.0101 16.6777 57.8362C16.8263 57.6871 16.9701 57.4632 16.9631 57.2863ZM21.3141 61.3347C20.8559 60.4193 19.9741 60.0148 18.8272 59.9933C18.6814 59.9933 18.5272 59.9679 18.3926 60.0007C18.2661 60.0315 18.1219 60.1052 18.06 60.1964C18.0241 60.2495 18.1103 60.3928 18.1841 60.4634C18.3928 60.6627 18.6384 60.8347 18.8426 61.0372C19.3013 61.4919 19.6539 62.0006 19.8368 62.5842C19.9474 62.9365 20.0427 63.2924 20.1449 63.6464C20.2121 63.8793 20.449 64.0036 20.6063 63.8828C21.5191 63.1818 21.7875 62.2804 21.3141 61.3347ZM27.3804 67.0548C27.3079 66.7721 27.1191 66.4954 26.9181 66.2554C26.2989 65.5163 25.4486 65.212 24.3614 65.3246C24.0773 65.4278 23.7868 65.5205 23.5121 65.6393C23.4031 65.6867 23.2676 65.7869 23.2582 65.8721C23.2508 65.9398 23.4012 66.0545 23.5087 66.0917C24.6951 66.5024 25.5435 67.229 26.2175 68.1316C26.3742 68.3414 26.5825 68.5245 26.7771 68.7124C26.8859 68.8174 26.9952 68.7716 27.0649 68.6694C27.4089 68.1656 27.5244 67.6149 27.3804 67.0548ZM27.9803 61.9186C27.9299 61.5716 27.7066 61.3052 27.4191 61.0808C27.1449 60.8669 26.8085 60.7368 26.4309 60.7649C26.1107 60.7886 25.7845 60.8326 25.4816 60.9193C25.2487 60.986 25.0351 61.1193 24.8368 61.2494C24.7003 61.3388 24.7446 61.4321 24.918 61.4891C25.1243 61.5565 25.342 61.6067 25.5341 61.6964C26.1511 61.9842 26.6499 62.3792 26.9878 62.9121C27.0703 63.0419 27.159 63.1711 27.2647 63.2877C27.3693 63.4029 27.5251 63.4137 27.591 63.3224C27.9029 62.8911 28.0725 62.4301 27.9803 61.9186ZM29.7538 45.4801C30.3884 45.4801 30.8935 45.2928 31.2679 44.9188C31.6423 44.5453 31.8289 43.9282 31.8289 43.0659C31.8289 42.6131 31.7664 42.1815 31.6423 41.7742C31.5171 41.3658 31.3637 41.0377 31.1826 40.788L23.7315 40.788V36.9455L30.8764 36.9455C31.511 36.9455 32.0161 36.7586 32.3904 36.3845C32.7648 36.0109 32.9519 35.3811 32.9519 34.4978C32.9519 34.0441 32.8894 33.6079 32.7647 33.1884C32.6395 32.7689 32.4977 32.4345 32.3394 32.1854H21.0098C20.0341 32.1854 19.2627 32.4688 18.696 33.0355C18.1285 33.6023 17.8455 34.3726 17.8455 35.3477L17.8455 50.1388C17.8455 50.7288 17.913 51.2048 18.0492 51.5667C18.1853 51.9298 18.3898 52.2131 18.6617 52.4168C18.9341 52.621 19.2686 52.7626 19.6656 52.8418C20.0622 52.9209 20.5212 52.9609 21.0434 52.9609C21.5651 52.9609 22.0923 52.927 22.6254 52.8589C23.1581 52.7908 23.5492 52.7228 23.7995 52.6549V45.4801L29.7538 45.4801ZM35.6078 71.882C35.5659 71.7224 35.5163 71.5578 35.4798 71.3911C35.3448 70.7743 34.9726 70.2769 34.3854 69.912C33.7472 69.5156 33.0306 69.3709 32.2292 69.4537C31.446 69.5346 30.8263 69.8252 30.3303 70.3293C30.1523 70.5103 30.2485 70.7504 30.5164 70.7634C31.0995 70.7918 31.6624 70.885 32.2141 71.048C32.9679 71.2705 33.616 71.6368 34.226 72.064C34.5082 72.2616 34.8011 72.452 35.1125 72.613C35.1843 72.6502 35.4316 72.5787 35.4602 72.5136C35.5453 72.3191 35.5616 72.103 35.6078 71.882ZM39.3239 68.7589C39.8906 68.8712 40.4061 69.1076 40.8394 69.4504C40.9638 69.5488 41.0916 69.5362 41.165 69.4325C41.2316 69.3382 41.2348 69.2117 41.273 69.0742C41.2218 68.8804 41.1758 68.6723 41.1114 68.4684C40.9294 67.8913 40.5765 67.4389 39.8789 67.2223C39.3539 67.0593 38.8371 67.0624 38.3518 67.2835C37.7972 67.5364 37.3972 67.9283 37.1475 68.4232C37.1311 68.4554 37.141 68.5086 37.1622 68.5409C37.2852 68.729 37.4958 68.7371 37.702 68.6958C38.2515 68.5856 38.7969 68.6542 39.3239 68.7589ZM46.1885 73.3807C46.1415 73.2172 46.0875 73.051 46.0008 72.9008C45.3954 71.8499 44.4213 71.2773 42.9975 71.1912C42.5162 71.3031 42.0069 71.3629 41.5598 71.5376C40.7 71.8737 40.1227 72.4453 39.8538 73.2367C39.7841 73.4422 39.8317 73.5634 40.0412 73.6197C40.1965 73.6616 40.3818 73.6738 40.5407 73.6457C40.9896 73.5663 41.4269 73.4361 41.8776 73.3694C42.3576 73.2985 42.8522 73.2198 43.332 73.2485C43.9271 73.2841 44.515 73.4196 45.1025 73.5258C45.3562 73.5717 45.5966 73.6764 45.8512 73.7111C46.1169 73.7474 46.2523 73.6023 46.1885 73.3807ZM49.4801 68.201C49.2699 67.8458 48.963 67.5733 48.6043 67.3123C48.0341 66.8975 46.8668 66.8994 46.3129 67.3115C45.7277 67.747 45.4928 68.3108 45.4532 68.9506C45.4532 68.9984 45.4564 69.0463 45.4526 69.0938C45.4436 69.2103 45.4598 69.3377 45.6016 69.3675C45.6858 69.3851 45.8124 69.3296 45.8926 69.277C46.7473 68.7167 47.6999 68.4505 48.7833 68.5582C48.922 68.572 49.0622 68.5892 49.2009 68.5853C49.4896 68.5771 49.6042 68.4106 49.4801 68.201ZM50.2453 52.5574C50.8461 52.1384 51.2602 51.5319 51.4873 50.7382C51.0333 49.9445 50.4097 49.0607 49.6161 48.0861C48.8215 47.1114 48.0168 46.0682 47.2 44.9574C48.1979 44.4135 49.0596 43.643 49.7861 42.6453C50.5114 41.648 50.8748 40.4464 50.8748 39.0406C50.8748 36.7971 50.0807 35.0172 48.4931 33.7022C46.9054 32.3883 44.5463 31.7303 41.4164 31.7303C40.2594 31.7303 39.1703 31.7928 38.1497 31.9172C37.1291 32.0418 36.2332 32.2399 35.4622 32.5122C35.0082 32.671 34.6509 32.8808 34.3901 33.141C34.1292 33.4023 33.999 33.7708 33.999 34.2466V50.262C33.999 50.852 34.0666 51.3278 34.2029 51.6899C34.339 52.0529 34.5374 52.3363 34.7982 52.54C35.0591 52.744 35.3879 52.8858 35.7851 52.9649C36.1816 53.044 36.6413 53.0841 37.1635 53.0841C37.6846 53.0841 38.2124 53.0502 38.7451 52.9823C39.2778 52.9142 39.6693 52.846 39.9191 52.778V46.2496H41.7223L44.5804 50.8399C44.7847 51.1797 45.0001 51.4973 45.2272 51.7918C45.4537 52.0873 45.7035 52.3364 45.9754 52.5401C46.2479 52.7441 46.5651 52.9032 46.9285 53.016C47.2913 53.1295 47.722 53.1864 48.2216 53.1864C48.9697 53.1864 49.6439 52.9763 50.2453 52.5574ZM56.1528 70.757C56.1572 70.6344 56.1583 70.4563 56.0694 70.3962C55.6724 70.1281 55.2713 69.8448 54.8185 69.6623C54.4479 69.5129 54.0008 69.4332 53.5898 69.4393C53.005 69.4478 52.4497 69.6285 51.9606 69.9214C51.1285 70.4194 50.6796 71.1009 50.6145 71.9641C50.6124 72.0492 50.5895 72.1387 50.6127 72.2185C50.6636 72.3939 50.6864 72.6622 50.8158 72.7113C50.9683 72.7691 51.2219 72.6364 51.4303 72.5828C51.455 72.5765 51.4688 72.5444 51.492 72.5288C52.1449 72.0901 52.7825 71.6402 53.5572 71.3461C54.3026 71.0631 55.0741 70.9069 55.8789 70.838C55.9771 70.8295 56.1517 70.7872 56.1528 70.757ZM56.2707 65.2209C55.768 64.8342 55.1964 64.5766 54.5035 64.5573C54.036 64.5329 53.6387 64.6895 53.283 64.9163C52.9441 65.1324 52.7024 65.4253 52.6603 65.7902C52.6248 66.0997 52.6144 66.4191 52.6653 66.7254C52.7044 66.9609 52.8354 67.1919 52.9651 67.4079C53.0545 67.5564 53.1867 67.5338 53.2977 67.3806C53.4298 67.1985 53.5413 67.002 53.6994 66.8378C54.2073 66.3111 54.8319 65.9192 55.6042 65.7091C55.7925 65.6577 55.9811 65.6005 56.1567 65.5242C56.3304 65.4489 56.3772 65.3028 56.2707 65.2209ZM62.968 65.704C62.4471 65.3468 61.8518 65.2569 61.2029 65.3299C60.1525 65.4478 59.1258 66.1788 59.0017 67.0246C58.8706 67.6511 58.8985 68.1606 59.2742 68.6384C59.3912 68.7871 59.487 68.7788 59.5844 68.688C59.8008 68.4857 60.0164 68.2768 60.1874 68.0465C60.502 67.6228 60.8665 67.2378 61.3153 66.9166C61.7973 66.5718 62.3142 66.2703 62.9102 66.0756C63.1775 65.9883 63.1873 65.8543 62.968 65.704ZM59.0707 62.9507C59.1424 63.1505 59.293 63.3356 59.4402 63.5078C59.5415 63.6265 59.6527 63.5916 59.7244 63.4457C59.8099 63.2725 59.875 63.0891 59.9859 62.9284C60.3421 62.4125 60.8212 62.0001 61.4576 61.7283C61.6127 61.662 61.7673 61.5903 61.9073 61.5038C62.0459 61.4183 62.0631 61.2862 61.9576 61.2275C61.4593 60.9502 60.9222 60.793 60.3179 60.8565C59.9083 60.8893 59.5887 61.0714 59.3164 61.3092C59.057 61.536 58.8943 61.8182 58.9164 62.1396C58.9353 62.4122 58.9774 62.6906 59.0707 62.9507ZM68.2376 60.0411C67.7007 59.8691 67.1688 59.8422 66.595 59.9469C65.6351 60.1222 64.734 60.9184 64.6258 61.7022C64.4816 62.4262 64.7258 62.981 65.1684 63.4866C65.316 63.6551 65.6263 63.5929 65.7326 63.3799C65.87 63.1051 66.0023 62.8284 66.1419 62.5544C66.5048 61.8422 67.0223 61.2298 67.7557 60.7572C67.9498 60.6321 68.1492 60.5117 68.3304 60.3742C68.4806 60.2603 68.4259 60.1016 68.2376 60.0411ZM70.7656 53.8917C70.5071 54.0676 70.2286 54.2528 70.0488 54.4965C69.7966 54.8383 69.3063 56.0153 69.2592 56.2118C69.1761 56.5582 69.1031 56.9113 69.2859 57.2429C69.3933 57.4378 69.5584 57.4995 69.7471 57.3806C69.9384 57.26 70.1361 57.1274 70.28 56.9587C70.5094 56.6895 70.7409 56.405 70.8898 56.092C71.0519 55.7515 71.1495 55.3752 71.2207 55.0064C71.2735 54.7332 71.2703 54.4419 71.2339 54.1683C71.2017 53.9268 70.9317 53.7786 70.7656 53.8917ZM67.3733 31.8789C66.8737 31.8789 66.3522 31.9188 65.8077 31.9985C65.2632 32.0783 64.6171 32.4556 64.6171 33.3761V45.0724C64.6171 46.1605 64.3219 47.0105 63.7322 47.6226C63.1423 48.2347 62.3599 48.5408 61.3847 48.5408C60.4322 48.5408 59.6547 48.2347 59.0539 47.6226C58.453 47.0105 58.1523 46.1604 58.1523 45.0724V34.7017C58.1523 34.1126 58.0841 33.6362 57.9486 33.2738C57.8124 32.9106 57.6079 32.6274 57.3361 32.4237C57.0636 32.2195 56.7287 32.0785 56.3321 31.9987C55.9351 31.919 55.4759 31.8791 54.9544 31.8791C54.4548 31.8791 53.9337 31.919 53.3894 31.9987C52.8451 32.0785 52.448 32.1405 52.1983 32.1858V45.1748C52.1983 46.399 52.4081 47.5155 52.8278 48.5243C53.247 49.5327 53.854 50.3938 54.6481 51.1078C55.4417 51.8222 56.4058 52.3719 57.5399 52.7571C58.6741 53.1422 59.9561 53.3352 61.3849 53.3352C62.8136 53.3352 64.095 53.1421 65.2298 52.7571C66.3633 52.3719 67.3274 51.8222 68.1216 51.1078C68.9151 50.3938 69.5221 49.5327 69.9419 48.5243C70.3617 47.5155 70.5715 46.399 70.5715 45.1748V34.7017C70.5715 34.1126 70.5033 33.6362 70.3671 33.2738C70.231 32.9106 70.0271 32.6274 69.7547 32.4237C69.4828 32.2195 69.1477 32.0785 68.7513 31.9987C68.3543 31.919 67.8943 31.8789 67.3733 31.8789ZM41.3822 36.4906C41.0422 36.4906 40.7697 36.5027 40.5658 36.5248C40.3615 36.5476 40.1344 36.5813 39.8852 36.6266V41.7272H42.0626C42.9243 41.7272 43.605 41.5063 44.1039 41.0642C44.6028 40.6225 44.8525 39.9706 44.8525 39.1096C44.8525 38.2478 44.5746 37.5964 44.0191 37.1537C43.4632 36.712 42.5845 36.4906 41.3822 36.4906ZM51.9096 80.8907C49.0186 81.7622 46.1206 82.2141 43.1992 82.2422C40.2777 82.2141 37.3796 81.7622 34.4887 80.8907C34.0966 80.7723 33.6906 81.0192 33.6177 81.4219C33.3563 82.8681 35.1794 83.9424 37.5886 85.2667C39.2674 86.1896 40.859 87.1931 41.5639 92.7311C41.8621 95.0743 42.1011 95.4514 42.4125 95.4949C42.4128 95.4968 42.4136 95.5 42.4136 95.5H43.9847C43.9847 95.5 43.9853 95.4968 43.9856 95.4951C44.308 95.4537 44.6151 95.0865 44.8343 92.7309C45.3161 87.5541 47.1308 86.1895 48.8096 85.2666C51.2189 83.9423 53.0421 82.868 52.7804 81.4218C52.7076 81.019 52.3017 80.7723 51.9096 80.8907Z" fill="black"/>
</svg>
