<svg width="95" height="97" viewBox="0 0 95 97" fill="none" xmlns="http://www.w3.org/2000/svg">
<path d="M41.312 28.3944V30.0357C41.3338 30.5391 41.705 30.933 42.1853 31.0205C42.993 31.1298 43.6044 31.48 44.0411 32.0271C45.1545 33.4495 45.3293 37.6947 44.6087 41.6993C45.4602 41.8305 46.3115 41.9181 47.1632 41.94C48.0364 37.104 47.6652 32.4865 46.0278 30.4516C46.1806 30.2545 46.4208 30.0577 46.7264 29.9045C47.5779 29.4888 48.4512 29.817 48.6258 29.8827C48.7569 29.9483 49.4336 30.2547 49.8266 30.955C50.1322 31.48 50.1104 32.071 49.9794 33.7779C49.9576 34.2593 49.9139 34.4781 49.783 35.3316C49.6957 35.9223 49.5646 36.8196 49.3463 38.2858C49.259 38.9861 49.1934 39.4455 49.1716 40.0802C49.1499 40.5179 49.1716 41.4369 49.1934 41.9403C50.0449 41.8965 50.8964 41.8091 51.7261 41.6776C51.7043 41.2619 51.6824 40.4741 51.7043 40.1677C51.7261 39.6643 51.7916 39.3143 51.8789 38.6142C52.0754 37.17 52.2064 36.2945 52.2937 35.7038C52.4248 34.8503 52.4683 34.5441 52.5121 33.975C52.643 32.137 52.7304 30.9333 51.988 29.6641C51.2239 28.2854 50.0231 27.6945 49.5428 27.4977C49.0625 27.3006 47.3596 26.7317 45.5693 27.607C44.958 27.9134 44.3903 28.3511 43.9536 28.8982C43.8881 28.8545 43.8227 28.8325 43.7571 28.8107C43.0584 28.5263 42.2507 28.3949 41.3556 28.3949L41.312 28.3944Z" fill="black"/>
<path d="M23.2128 81.1539L18.9335 87.4561C19.1519 87.6529 19.4576 87.8936 19.6322 88.0031C19.8288 88.1563 20.1344 88.3313 20.4181 88.4627L24.6756 82.1605C24.4572 81.9416 24.1733 81.7229 23.9769 81.5916C23.8023 81.4822 23.4747 81.2632 23.2128 81.1539Z" fill="black"/>
<path d="M13.4101 17.3435L13.4318 17.3216C13.8466 17.4967 14.4362 17.7155 15.0256 17.9126L19.1519 19.3131C19.4576 19.0506 19.7415 18.766 19.8943 18.591C20.0472 18.416 20.3966 17.9782 20.5494 17.7157L14.9602 12.617L14.8729 12.5952L14.4799 13.0329C14.0214 13.5363 14.0214 13.9739 14.6108 14.4991L15.6151 15.4181C16.1827 15.9431 17.2963 16.9061 18.1258 17.5407L18.104 17.5845C17.6893 17.4095 17.0562 17.1906 16.3793 16.9499L12.2749 15.5494C11.9692 15.8121 11.6853 16.0965 11.5325 16.2715C11.3796 16.4465 11.0302 16.8843 10.8993 17.125L16.4886 22.2237C16.7069 22.0486 16.9471 21.7859 17.0999 21.6327C17.2527 21.4577 17.4493 21.217 17.6021 20.9761L15.9647 19.4881C15.266 18.8754 14.1524 17.9344 13.4101 17.3435Z" fill="black"/>
<path d="M30.3302 24.893C33.7579 24.893 37.0109 23.6238 39.4998 21.348C43.8008 17.4091 51.857 17.4528 56.42 21.4573C58.9307 23.6456 62.1401 24.8711 65.4585 24.8711H70.7421C71.266 24.8711 71.6809 24.4554 71.6809 23.9302V23.0331C71.6809 22.5078 71.2661 22.0921 70.7421 22.0921H65.4585C62.8168 22.0921 60.2623 21.1293 58.2538 19.3569C52.621 14.4114 42.9929 14.3895 37.6438 19.2912C35.6789 21.0856 33.0809 22.0923 30.3518 22.0923H25.4177C24.8937 22.0923 24.4789 22.508 24.4789 23.0332V23.9522C24.4789 24.4774 24.8937 24.8931 25.4177 24.8931L30.3302 24.893Z" fill="black"/>
<path d="M48.3857 21.2605H47.4689C47.0322 21.2605 46.6829 21.6106 46.6829 22.0483C46.6829 22.4203 46.4208 22.7267 46.0716 22.8142C46.0061 22.8361 45.9405 22.8361 45.875 22.8581C45.5038 22.9456 45.1546 22.7924 44.9798 22.4642L44.9143 22.3547C44.7178 21.9608 44.2376 21.8296 43.8664 22.0265L43.0586 22.4642C42.6656 22.661 42.5347 23.1424 42.7311 23.5145L43.5826 25.1337C43.801 25.5494 44.3031 25.659 44.6961 25.4183C44.8489 25.3307 45.0017 25.2432 45.1546 25.1776C45.6784 24.9149 46.1807 24.7618 46.661 24.6962C47.971 24.5211 48.8442 24.6962 49.1499 24.7398C49.6302 24.8273 50.1324 24.9587 50.6563 25.2212C50.8091 25.2869 50.962 25.3744 51.1148 25.4619C51.5078 25.7026 52.01 25.5933 52.2282 25.1776L53.0797 23.5582C53.2761 23.1861 53.1452 22.7047 52.774 22.5297L51.9663 22.092C51.5951 21.8951 51.1148 22.0483 50.9184 22.4202L50.8529 22.5297C50.6783 22.8579 50.3071 23.0111 49.9576 22.9236C49.9139 22.9017 49.8484 22.9017 49.783 22.8799C49.4336 22.7924 49.1717 22.486 49.1717 22.114V22.0483C49.1717 21.6106 48.8224 21.2605 48.3857 21.2605Z" fill="black"/>
<path d="M16.2484 75.0267L12.908 76.8211C12.2529 77.1713 11.3359 77.6746 10.8338 78.0028C10.7901 77.9591 10.7683 77.9371 10.8774 77.8278L14.96 73.6044C14.8072 73.2761 14.5453 72.9261 14.3269 72.6416C14.1085 72.379 13.8247 72.0288 13.5627 71.7881L8.27919 74.6985C8.23545 74.6328 8.21366 74.611 8.32276 74.5235C8.71574 74.1514 9.39261 73.4732 9.89485 72.9261L11.8815 70.8035C12.4054 70.2564 12.4491 69.9282 12.0562 69.4249C11.8815 69.1842 11.5759 68.9654 11.3357 68.8122L6.77279 73.9547C6.31428 74.5236 6.4889 74.8957 6.83831 75.3553C7.14398 75.7273 7.51501 76.1869 7.82085 76.4932L10.6155 74.9614C11.4014 74.5456 12.2747 74.0424 12.886 73.6704L12.9296 73.736C12.4057 74.2174 11.6851 74.9395 11.074 75.5741L9.39277 77.3465C8.89053 77.8718 9.0871 78.2875 9.41456 78.7032C9.69828 79.0753 10.1132 79.5567 10.3969 79.863L17.1869 76.4931L17.2087 76.3619C17.1213 76.1212 16.9685 75.8367 16.7939 75.6178C16.6411 75.4209 16.4448 75.2019 16.2484 75.0267Z" fill="black"/>
<path d="M63.3192 7.43059C63.6248 6.51163 63.2537 5.5925 62.3804 4.82657L61.267 3.8856C60.8522 3.53556 60.7647 3.29486 60.8522 3.01032C60.9395 2.72594 61.2889 2.44141 61.9001 2.63827C62.4677 2.81329 63.1883 3.33853 63.6466 3.75425C64.0614 3.55739 64.4326 3.1415 64.6072 2.6601C64.1269 2.22238 63.2972 1.58779 62.2929 1.28141C60.852 0.843854 59.4329 1.36893 59.018 2.70378C58.6905 3.73225 59.1708 4.49819 59.9132 5.15478L61.0049 6.07374C61.5071 6.51146 61.4852 6.86151 61.4196 7.08038C61.3104 7.43059 60.9611 7.71496 60.3498 7.5181C59.5856 7.2774 58.8871 6.70849 58.4068 6.16142C57.9921 6.33644 57.5336 6.77417 57.3807 7.21173C58.0138 7.95566 58.9744 8.56841 59.8259 8.83112C61.6817 9.42186 62.9262 8.7216 63.3192 7.43059Z" fill="black"/>
<path d="M90.7409 42.9026C91.9707 42.9026 92.9677 41.9033 92.9677 40.6707C92.9677 39.438 91.9707 38.4387 90.7409 38.4387C89.5111 38.4387 88.5141 39.438 88.5141 40.6707C88.5141 41.9033 89.5111 42.9026 90.7409 42.9026Z" fill="black"/>
<path d="M35.5265 8.94047C35.7886 8.85296 36.0287 8.78729 36.2251 8.67777L36.2906 6.99271C36.4435 6.94903 36.5963 6.92703 36.7054 6.86152L38.2338 6.46764C38.343 6.4458 38.5175 6.40196 38.6485 6.35812L39.0415 7.01471C39.4563 7.71497 39.7837 7.84632 40.3297 7.69314C40.6572 7.60562 41.0719 7.43043 41.2685 7.23357L37.0548 0.625C36.7709 0.625 36.3344 0.734514 36.0505 0.800024C35.7668 0.887536 35.3301 1.01889 35.0681 1.12824L34.5878 8.98415L34.6534 9.04982C34.8717 9.07166 35.2645 9.00615 35.5265 8.94047ZM36.356 2.44125L36.4215 2.41941C36.7927 3.09767 37.273 3.92929 37.6005 4.49836L37.9497 5.11111C37.8188 5.13295 37.666 5.17679 37.5567 5.19863L36.7708 5.39565C36.6399 5.43933 36.4651 5.48316 36.3342 5.52684L36.3778 4.62955C36.3778 3.99496 36.3996 3.076 36.356 2.44125Z" fill="black"/>
<path d="M10.7465 60.0151L8.5414 58.1112C8.25752 58.2426 7.93006 58.5489 7.88632 58.8333L9.69839 61.0653C10.1787 60.8684 10.6374 60.3434 10.7465 60.0151Z" fill="black"/>
<path d="M6.55475 62.2471C6.96952 62.4878 7.51534 62.5535 8.01742 62.4221C8.12668 61.7875 8.17025 60.7372 7.8428 59.7306C7.38429 58.2864 6.13999 57.433 4.80804 57.8487C3.78193 58.1769 3.43269 58.9865 3.32343 59.9931L3.19254 61.4155C3.12702 62.0721 2.84314 62.269 2.62494 62.3345C2.25375 62.444 1.83898 62.3126 1.6424 61.6999C1.40226 60.9339 1.46778 60.015 1.6424 59.3147C1.24942 59.074 0.659869 58.9427 0.157791 59.0522C-0.0823555 59.9931 -0.0387827 61.1311 0.223315 61.9844C0.812869 63.8445 2.07912 64.4791 3.36717 64.0634C4.28401 63.757 4.82983 62.9474 4.96088 61.7876L5.09176 60.3433C5.13533 59.8183 5.28817 59.5994 5.57205 59.5119C5.85577 59.4244 6.2707 59.5556 6.46728 60.1685C6.6419 60.7374 6.64207 61.6342 6.55475 62.2471Z" fill="black"/>
<path d="M3.8037 42.9026C5.03355 42.9026 6.03054 41.9033 6.03054 40.6707C6.03054 39.438 5.03355 38.4387 3.8037 38.4387C2.57385 38.4387 1.57686 39.438 1.57686 40.6707C1.57686 41.9033 2.57385 42.9026 3.8037 42.9026Z" fill="black"/>
<path d="M70.9606 50.9119L68.2315 44.7629C67.9041 43.9969 68.4499 43.1435 69.2794 43.1435H69.8034C70.4366 43.1435 70.9604 42.6183 70.9604 41.9837V32.3772C70.9604 31.7426 70.4582 31.2174 69.8034 31.2174H57.5991V32.8148C57.5991 33.3182 58.0138 33.7339 58.5159 33.7339H67.2926C67.9257 33.7339 68.4497 34.2371 68.4497 34.8935V39.467C68.4497 40.1016 67.9257 40.6267 67.2926 40.6267H65.3712C64.5417 40.6267 63.9959 41.4801 64.3233 42.246L67.0306 48.3951C67.3799 49.161 66.8123 50.0144 65.9827 50.0144H65.4369C64.8038 50.0144 64.2798 50.5395 64.2798 51.1741V58.1986C64.2798 58.8332 63.7559 59.3584 63.1228 59.3584H63.101C60.2191 59.3584 57.5337 58.4831 55.3067 56.9732C55.2194 57.0607 53.2108 53.2969 52.2502 50.1676C51.3333 50.2988 50.4163 50.3865 49.4993 50.452C50.5472 54.194 52.8613 58.9645 52.8613 58.9645C55.394 60.8464 58.5379 61.9406 61.9219 61.9406H63.6247C63.6684 61.9406 63.712 61.9406 63.7557 61.9624H63.7775C65.6333 61.8312 66.3975 61.131 66.7687 60.5182V53.6908C66.7687 53.0562 67.2925 52.531 67.9257 52.531H69.847C70.7422 52.531 71.31 51.6777 70.9606 50.9119Z" fill="black"/>
<path d="M76.353 77.6307C76.1129 77.7182 75.8292 77.8714 75.6108 78.0464C75.4142 78.1996 75.1961 78.3967 75.0213 78.5935L76.7898 81.9635C77.1172 82.6417 77.6193 83.5609 77.9468 84.0643C77.9032 84.1079 77.8812 84.1299 77.7721 84.0204L73.5802 79.8845C73.2745 80.0377 72.9035 80.3002 72.6196 80.5191C72.3577 80.716 72.0083 81.0005 71.7682 81.2632L74.6281 86.5808C74.5626 86.6026 74.5408 86.6244 74.4535 86.5151C74.0823 86.1212 73.4056 85.4428 72.8598 84.9395L70.764 82.9263C70.2182 82.401 69.8907 82.3574 69.3885 82.7513C69.1264 82.9263 68.9082 83.2327 68.7553 83.4734L73.8641 88.0688C74.4099 88.5502 74.8029 88.3752 75.2614 88.025C75.6326 87.7406 76.0692 87.3684 76.3968 87.0622L74.9122 84.2611C74.4974 83.4734 74.0169 82.5981 73.6458 81.9853L73.7113 81.9415C74.1916 82.4449 74.8902 83.1888 75.5233 83.8016L77.2918 85.5085C77.8157 86.0117 78.2087 85.8148 78.6454 85.4866C79.0166 85.2021 79.4969 84.7864 79.8024 84.5018L76.4839 77.6744L76.353 77.6307Z" fill="black"/>
<path d="M48.2329 63.0349C41.705 63.0349 35.4391 65.0481 30.2211 68.615C29.6972 68.987 29.6535 69.753 30.1556 70.1469L30.9853 70.8033C31.2909 71.066 31.7275 71.066 32.0769 70.8471C36.7927 67.7178 42.4037 65.9453 48.2329 65.9453C54.1276 65.9453 59.6732 67.6522 64.3453 70.7376C64.6727 70.9565 65.1094 70.9565 65.4369 70.6939L66.2884 70.0155C66.7905 69.5998 66.7469 68.8338 66.2229 68.4836C61.0266 64.9823 54.8045 63.0349 48.2329 63.0349Z" fill="black"/>
<path d="M80.1738 20.7353L79.7591 20.2757C79.4534 19.9257 78.9513 19.4223 78.6019 19.0722V19.0286C79.0167 19.0286 79.5844 19.0286 79.9555 18.9847L84.1474 18.6127C84.4311 18.5908 84.6059 18.4815 84.7587 18.35C84.846 18.2625 84.9333 18.1749 85.4138 17.4528L82.1825 13.7327C81.9205 13.8858 81.7022 14.0172 81.462 14.2141C81.3312 14.3452 81.2001 14.4768 81.0691 14.6518L82.117 15.8553C82.4008 16.1835 82.9247 16.7306 83.3177 17.0806V17.1245C82.9029 17.1026 82.2698 17.1245 81.8986 17.1681L77.7067 17.5402C77.4665 17.562 77.2264 17.6715 77.0736 17.8029C76.9427 17.9124 76.8771 17.9999 76.3969 18.6563L79.1915 21.8513C79.628 22.3765 80.1738 22.5297 80.6541 22.114C80.8725 21.939 81.0689 21.6983 81.1782 21.5012C80.8943 21.3699 80.5231 21.1292 80.1738 20.7353Z" fill="black"/>
<path d="M61.2887 87.1717C60.6992 86.909 60.0443 86.7997 59.0617 87.0842C58.1012 87.3686 57.5991 87.8063 57.2279 88.3534C56.551 89.36 56.6603 90.6947 57.0095 91.8108C57.337 92.9488 57.9483 94.1523 59.0617 94.6337C59.6513 94.8964 60.3282 95.0058 61.2887 94.7212C62.2493 94.4369 62.7514 93.9991 63.1226 93.4521C63.7775 92.4454 63.6684 91.0887 63.341 89.9726C63.0135 88.8564 62.4022 87.6531 61.2887 87.1717ZM60.8956 93.4082C59.6731 93.7584 59.1053 92.4236 58.7998 91.3293C58.4724 90.1915 58.2322 88.7691 59.4549 88.4189C60.6774 88.0468 61.2452 89.3817 61.5726 90.4978C61.9001 91.614 62.1401 93.0362 60.8956 93.4082Z" fill="black"/>
<path d="M38.8887 36.2722C38.583 36.2065 38.2774 36.1847 37.9717 36.1847C37.3823 36.1847 36.771 36.2942 36.2251 36.5349C35.461 36.8631 34.8061 37.3884 34.3258 38.0668C33.7799 38.8327 33.4961 39.7299 33.4961 40.6708C33.4961 41.2397 33.6053 41.8088 33.8235 42.3339C34.3038 43.5594 35.3081 44.5222 36.5744 44.9379C36.8145 45.0254 37.0547 45.0693 37.3166 45.1129C37.7096 45.1786 38.0808 45.31 38.452 45.4411C41.6396 46.5791 44.8489 47.148 48.0583 47.148C51.2677 47.148 54.4771 46.5791 57.6427 45.4411C58.0139 45.31 58.3851 45.1784 58.7781 45.1348C59.0402 45.0909 59.3019 45.0473 59.5423 44.9597C60.7867 44.5659 61.8128 43.6469 62.3151 42.4432C62.5552 41.8962 62.6643 41.2834 62.6643 40.6927C62.6425 40.2986 62.5988 39.9267 62.5115 39.5767C62.4897 39.511 62.4679 39.4453 62.4679 39.3797C62.3369 38.9201 62.1185 38.4607 61.8128 38.0666C61.3325 37.4102 60.6994 36.885 59.957 36.5568C59.3894 36.3161 58.7781 36.1847 58.1667 36.1847C57.8611 36.1847 57.5554 36.2284 57.2497 36.2722C55.8524 36.5566 54.6517 37.5196 54.0841 38.8544C53.822 39.4233 53.7129 40.0361 53.7129 40.6707C53.7129 40.8457 53.7129 40.9989 53.7347 41.1741C53.822 42.093 54.1932 42.9028 54.7608 43.5592C54.8481 43.6467 54.8045 43.7999 54.6735 43.8218C52.4684 44.4127 50.2634 44.7191 48.0583 44.7191C45.8533 44.7191 43.67 44.4347 41.4648 43.8438C41.3557 43.8219 41.312 43.6687 41.3775 43.5811C42.0326 42.7933 42.4473 41.7866 42.4473 40.6707C42.4473 40.1236 42.36 39.5983 42.1636 39.0951L42.1199 38.9856C41.5741 37.5851 40.3514 36.5786 38.8887 36.2722ZM39.9803 40.6488C40.0021 41.8086 39.0851 42.7278 37.9499 42.7278C37.5569 42.7278 37.1639 42.6183 36.8365 42.3996C36.2471 42.0275 35.8977 41.3711 35.8977 40.6708C35.8977 40.5395 35.9195 40.3863 35.9414 40.2551C36.007 39.9049 36.1816 39.5768 36.3999 39.3141C36.7929 38.8764 37.3605 38.6139 37.9283 38.6139H37.9501C38.8889 38.6139 39.6968 39.2921 39.9369 40.1894V40.2113C39.9587 40.3206 39.9805 40.452 39.9805 40.5833L39.9803 40.6488ZM56.1145 40.6707C56.1145 40.4518 56.1583 40.2329 56.2238 40.0141C56.2238 40.0141 56.2238 39.9922 56.2456 39.9922C56.5077 39.292 57.1188 38.7669 57.883 38.6574C57.9703 38.6355 58.0796 38.6355 58.1669 38.6355C58.7345 38.6355 59.3239 38.8762 59.6953 39.3358C59.9572 39.6203 60.11 39.9706 60.1756 40.3644C60.1973 40.4738 60.1973 40.5833 60.1973 40.7145C60.2191 41.3929 59.8481 42.0493 59.2368 42.4214C58.9093 42.6183 58.5381 42.7278 58.1671 42.7278C57.0536 42.7278 56.1584 41.8525 56.1147 40.7583L56.1145 40.6707Z" fill="black"/>
<path d="M81.6366 70.9127C81.5057 71.0877 81.2874 71.416 81.1781 71.6786L87.4222 76.0333C87.6406 75.8145 87.8588 75.5081 87.9898 75.3331C88.1209 75.1142 88.3173 74.8297 88.4483 74.5453L82.2042 70.2126C81.9859 70.4314 81.7677 70.7158 81.6366 70.9127Z" fill="black"/>
<path d="M94.3868 60.5622C93.9503 59.2931 92.8804 58.7458 91.6577 58.3302C90.4133 57.9364 89.2343 57.7393 88.1209 58.4834C87.5751 58.8335 87.1384 59.6431 86.9418 60.234C86.6581 61.153 86.3742 61.9846 86.1123 62.9037L86.1558 63.0132L93.2514 65.3765L93.3607 65.3327C93.6882 64.4138 93.972 63.604 94.2775 62.6848C94.4741 62.0941 94.605 61.175 94.3868 60.5622ZM92.9459 62.269C92.8368 62.6192 92.7276 62.9255 92.6185 63.3193L87.9027 61.7437C88.0336 61.3498 88.1429 61.0435 88.252 60.6934C88.6667 59.4679 89.9985 59.7086 91.0466 60.0807C92.1382 60.4527 93.3389 61.0435 92.9459 62.269Z" fill="black"/>
<path d="M48.6478 79.7315C48.6915 79.6877 54.3897 76.274 57.9485 74.1294C57.1189 73.7792 56.2892 73.451 55.416 73.1885C55.2195 73.1228 55.0012 73.1446 54.8046 73.2541C52.4685 74.6547 49.8267 76.2521 48.4296 77.0837C48.1894 77.2369 47.8838 77.2369 47.6436 77.0837L41.3995 73.3416C41.2031 73.2321 40.9847 73.2103 40.7664 73.276C39.9149 73.5603 39.0852 73.8887 38.2774 74.2606L47.6436 79.8627C47.8838 80.0159 48.1894 80.0159 48.4296 79.8627L48.6478 79.7315Z" fill="black"/>
<path d="M33.5398 86.5153L28.8893 92.8613L28.9111 92.9708C29.0857 93.124 29.435 93.2772 29.6971 93.3647C29.9372 93.4522 30.1993 93.5179 30.4175 93.5397L31.3781 92.1611C31.509 92.2267 31.6618 92.2706 31.7711 92.3142L33.2775 92.7956C33.3867 92.8395 33.5614 92.8831 33.6923 92.9268L33.6705 93.6928C33.6487 94.4805 33.8451 94.7649 34.3909 94.9401C34.7184 95.0276 35.1551 95.0933 35.4388 95.0496L35.4824 87.1719C35.2422 87.0405 34.8275 86.8655 34.5436 86.7778C34.2599 86.6903 33.8236 86.559 33.5398 86.5153ZM33.8235 90.7824L33.7799 91.5045C33.6488 91.4608 33.5178 91.4169 33.4087 91.3733L32.6445 91.1106C32.5136 91.0669 32.3389 91.0231 32.208 90.9794L32.7318 90.2573C33.0812 89.7322 33.5833 88.9661 33.8888 88.3972L33.9544 88.419C33.9106 89.1631 33.8453 90.1259 33.8235 90.7824Z" fill="black"/>
<path d="M28.9985 60.1245C28.9985 60.234 29.0203 60.3652 29.0859 60.4747C29.4133 61.0654 30.0682 61.7659 31.7057 61.9409C31.8148 61.9627 33.8452 61.9409 33.8452 61.9409C37.2292 61.9409 40.373 60.8247 42.9057 58.9648C42.9275 58.943 45.1763 54.1068 46.1806 50.3866C45.3074 50.343 44.4121 50.2555 43.5389 50.1023C42.622 53.1877 40.6134 56.9735 40.5041 56.9952H40.4823C38.2555 58.5051 35.5918 59.3805 32.7098 59.3805C32.3824 59.3805 32.0985 59.2492 31.8803 59.0303C31.6619 58.8115 31.5309 58.5269 31.5309 58.1987V51.1963C31.5309 50.5617 31.007 50.0366 30.3737 50.0366H29.8279C28.9984 50.0366 28.4306 49.1831 28.78 48.4172L31.4873 42.2682C31.8367 41.5023 31.269 40.6488 30.4394 40.6488H28.5181C27.885 40.6488 27.3609 40.1237 27.3609 39.4892V34.9157C27.3609 34.2811 27.885 33.7559 28.5181 33.7559H37.2729C37.7968 33.7559 38.2117 33.3401 38.2117 32.8149V31.2614C38.2117 31.2468 38.2045 31.2395 38.1899 31.2395H26.0074C25.3742 31.2395 24.8504 31.7646 24.8504 32.3992V42.0058C24.8504 42.6404 25.3742 43.1656 26.0074 43.1656H26.5532C27.3829 43.1656 27.9287 44.0191 27.6011 44.7849L24.872 50.9339C24.5445 51.6998 25.0903 52.5533 25.9199 52.5533H27.8193C28.4743 52.5533 28.9984 53.0784 28.9984 53.7349L28.9985 60.1245Z" fill="black"/>
<path d="M48.2108 85.0709L48.1456 85.1363H48.1673L48.2108 85.0709Z" fill="black"/>
<path d="M43.7355 88.8566C43.67 89.1193 43.6482 89.4037 43.6482 89.6007C43.6264 89.7977 43.6482 90.0821 43.6918 90.3448L44.8272 90.3666H45.5476L45.3948 96.5375C45.7004 96.6032 46.0498 96.625 46.29 96.625C46.5301 96.625 46.8794 96.625 47.185 96.5813L47.2943 91.2638V90.4323H47.3161C47.4907 90.4323 47.84 90.4542 48.0147 90.4542H48.3422C48.9973 90.4542 49.281 90.2571 49.3028 89.6662C49.3246 89.4473 49.281 89.163 49.2373 88.988L43.7355 88.8566Z" fill="black"/>
<path d="M48.1236 85.1363H48.1456L48.0801 85.0709L48.1236 85.1363Z" fill="black"/>
</svg>
