<svg width="154" height="66" viewBox="0 0 154 66" fill="none" xmlns="http://www.w3.org/2000/svg">
<path d="M63.7069 38.8362C63.4387 38.7022 63.1453 38.5995 62.8518 38.5398C62.3749 38.4428 61.8866 38.4028 61.4067 38.3185C61.168 38.2767 61.0187 38.3514 60.8687 38.537C59.5322 40.1883 58.1873 41.833 56.843 43.478C56.7266 43.6203 56.6135 43.7742 56.469 43.8832C55.3006 44.7645 54.1351 45.65 52.946 46.5027C52.5753 46.7685 52.1421 46.9531 51.7224 47.1413C51.6015 47.1956 51.3677 47.1881 51.2951 47.1088C51.2193 47.0261 51.2303 46.8033 51.2837 46.6754C51.4101 46.3732 51.5434 46.0582 51.7458 45.8064C52.8602 44.419 53.974 43.0301 55.1343 41.6814C55.6995 41.0245 56.3381 40.4232 56.9934 39.8541C57.5374 39.3815 57.5609 39.0042 56.8707 38.78C56.116 38.5349 55.3111 38.4398 54.5235 38.3058C54.4184 38.288 54.2532 38.3968 54.1727 38.4939C52.5322 40.4762 50.902 42.4669 49.263 44.4502C49.0973 44.6506 48.908 44.8442 48.695 44.9906C47.3587 45.9094 45.906 46.5928 44.3507 47.0463C43.8471 47.1931 43.3212 47.2638 42.8421 47.3617C43.5703 46.6715 44.3093 46.0206 44.9898 45.3134C45.8129 44.4581 46.5757 43.5449 47.3846 42.6754C48.3816 41.6039 49.3656 40.5192 50.7103 39.8448C51.2484 39.575 51.2505 39.0836 50.6937 38.8395C50.0502 38.5575 49.3473 38.41 48.6686 38.2104C48.4226 38.1381 48.2449 38.2084 48.0533 38.4132C47.1529 39.3757 45.3502 39.3755 44.4436 38.4379C44.0488 38.0295 44.0171 38.0306 43.6883 38.4926C43.5276 38.7183 43.3675 38.9448 43.2161 39.1768C41.8787 41.2277 40.4485 43.1967 38.5125 44.745C37.4397 45.6028 36.3833 46.4815 35.1127 47.0382C34.9311 47.1179 34.6907 47.0633 34.4775 47.071C34.4971 46.8586 34.4815 46.6348 34.5456 46.437C34.6134 46.2283 34.7419 46.0334 34.8711 45.8519C35.223 45.3578 35.5486 44.8365 35.9573 44.3931C37.252 42.9884 38.5565 41.5908 39.9064 40.2397C40.4453 39.7003 40.4791 39.3394 39.7456 39.1115C38.9974 38.8791 38.2052 38.7845 37.4284 38.6532C37.3385 38.6379 37.1968 38.753 37.1242 38.8438C36.8647 39.1678 36.6247 39.5074 36.3653 39.8574C35.9254 38.9783 35.7503 38.7068 35.2049 38.5366C34.699 38.3788 34.1496 38.2641 33.6245 38.2819C32.1118 38.333 30.7892 38.9674 29.5776 39.8241C27.6516 41.186 26.1806 42.9718 24.9191 44.9444C24.8141 45.1087 24.7041 45.2894 24.5514 45.4C23.9003 45.8714 23.2395 46.3308 22.5664 46.7702C22.3155 46.9338 22.029 47.0554 21.7432 47.148C21.5996 47.1945 21.3824 47.1852 21.2727 47.1025C21.2009 47.0484 21.2191 46.8001 21.2727 46.6696C21.392 46.3789 21.5204 46.0774 21.7122 45.8334C22.6819 44.6003 23.6399 43.3554 24.6678 42.1719C25.383 41.3485 26.1751 40.5845 26.9886 39.8564C27.5293 39.3726 27.5592 39.0167 26.8595 38.7922C26.1011 38.5488 25.2989 38.4377 24.5112 38.2948C24.4079 38.276 24.2513 38.3869 24.1624 38.4791C23.3134 39.3595 22.3284 40.0216 21.1503 40.3726C20.9649 40.4278 20.7617 40.423 20.5668 40.4459C21.7478 38.9334 23.0055 37.5703 24.4944 36.4389C24.5991 36.3594 24.7438 36.3187 24.8222 36.2215C25.0032 35.9969 25.3069 35.7263 25.2762 35.516C25.2446 35.2992 24.9036 35.0631 24.6477 34.9593C24.3012 34.8187 23.9071 34.7946 23.5329 34.7233C23.2741 34.674 23.0971 34.7786 22.9234 34.9797C21.6986 36.3979 20.4572 37.8018 19.2306 39.2185C18.9988 39.4863 18.7899 39.7794 18.6065 40.0826C18.3401 40.5231 18.2064 40.9832 18.6663 41.4534C17.7509 42.5716 16.8737 43.6941 15.9425 44.7699C13.8373 47.2021 11.5658 49.4588 8.85432 51.2266C7.81125 51.9066 6.72187 52.4971 5.48423 52.746C3.87918 53.0687 2.96951 52.2532 3.10427 50.6239C3.10967 50.5582 3.11939 50.4927 3.12763 50.4273C3.26711 49.3141 3.65801 48.2785 4.13316 47.2745C5.61128 44.1513 7.64544 41.3921 9.7837 38.7037C9.86539 38.601 10.0425 38.538 10.1822 38.5231C11.7024 38.3617 13.2352 38.2844 14.7426 38.0458C17.1191 37.6698 19.382 36.9219 21.4002 35.5643C22.7139 34.6808 23.8305 33.6106 24.381 32.0736C25.0665 30.16 24.1504 28.5419 22.16 28.1541C20.9908 27.9264 19.8482 28.1134 18.7268 28.459C16.4883 29.1488 14.5351 30.3674 12.6805 31.7602C10.7016 33.2465 8.90455 34.9355 7.21633 36.7408C7.00326 36.9686 6.80383 37.0245 6.52324 36.9429C5.92522 36.7692 5.4691 36.4078 5.12911 35.8973C4.53027 34.998 4.27237 33.9905 4.34596 32.9275C4.38444 32.3712 4.14545 32.0838 3.70635 31.8809C3.45655 31.7654 3.1969 31.6544 2.92982 31.5963C2.05161 31.4052 1.54162 31.8534 1.68043 32.7374C1.79034 33.4378 1.93225 34.1443 2.16355 34.8122C2.73471 36.4608 3.86689 37.5408 5.58685 37.9596C5.7559 38.0008 5.92643 38.0353 6.15287 38.0852C5.95438 38.3148 5.80802 38.482 5.66395 38.6514C3.93117 40.6885 2.36784 42.8401 1.23835 45.2791C0.506381 46.86 -0.0437112 48.4935 0.00273747 50.2654C0.06971 52.8163 1.7979 54.309 4.31612 53.9218C5.23092 53.7811 6.15098 53.5198 7.00353 53.1595C9.45654 52.1225 11.4949 50.4657 13.4071 48.6478C15.547 46.6134 17.4206 44.348 19.1642 41.9703C19.2607 41.8386 19.4368 41.685 19.5798 41.6809C20.2949 41.6606 20.9565 41.4652 21.5973 41.169C21.6954 41.1237 21.8004 41.0934 21.9022 41.0563C21.8509 41.2294 21.7586 41.3388 21.6715 41.452C20.3855 43.125 19.1034 44.8009 17.8131 46.4708C17.413 46.9884 17.3982 47.5707 17.5078 48.1672C17.6179 48.7654 18.0255 49.1686 18.6299 49.2319C19.017 49.2724 19.423 49.252 19.807 49.1831C21.3049 48.9141 22.5346 48.0943 23.729 47.2117C23.8037 47.1566 23.8849 47.1106 23.9651 47.0592C23.9651 47.319 23.9611 47.5421 23.9658 47.7651C23.9832 48.5813 24.4319 49.1064 25.2371 49.2265C25.482 49.2631 25.7387 49.2732 25.9843 49.2453C27.4057 49.0829 28.6019 48.3926 29.7515 47.6024C30.0625 47.3887 30.3618 47.1582 30.6489 46.9482C30.6489 47.2529 30.6277 47.5428 30.6528 47.8286C30.7311 48.7183 31.2737 49.2098 32.1673 49.2158C32.3381 49.2168 32.5097 49.2003 32.68 49.1823C33.6993 49.0749 34.6235 48.6898 35.4786 48.1524C37.7884 46.7011 39.7592 44.8588 41.5449 42.8093C42.3249 41.914 43.1038 41.0178 43.8806 40.1198C44.0558 39.9171 44.2099 39.8315 44.4797 40.0181C44.6875 40.1618 44.962 40.2215 45.2156 40.2831C45.488 40.3492 45.7707 40.3742 46.1127 40.427C44.3542 42.4684 42.7122 44.5221 40.608 46.1305C40.3271 46.3452 40.0218 46.5535 39.6947 46.6754C39.2947 46.8242 39.1613 47.1124 39.0954 47.4766C38.9286 48.3989 39.4226 49.1019 40.3482 49.2382C40.5932 49.2742 40.8493 49.2765 41.0962 49.253C43.2802 49.0449 45.2601 48.2469 47.1314 47.1414C47.257 47.0673 47.3826 46.9934 47.5587 46.8895C47.5325 47.0367 47.52 47.1003 47.5101 47.1643C47.2674 48.7137 48.0072 49.4591 49.5549 49.2248C49.6329 49.2129 49.7107 49.1978 49.7877 49.1798C51.1904 48.8519 52.3888 48.1128 53.5534 47.306C53.7197 47.1908 53.8842 47.0726 54.0496 46.956C54.0701 46.9838 54.0906 47.0117 54.1112 47.0395C53.6278 47.7625 53.1507 48.4898 52.6565 49.2052C52.5333 49.3838 52.373 49.5494 52.198 49.6775C51.0063 50.55 49.7692 51.3646 48.6155 52.2844C45.6362 54.66 42.9998 57.3637 40.9782 60.6208C40.3297 61.6657 39.7518 62.7513 39.534 63.9815C39.3258 65.1581 39.9142 65.6435 41.039 65.2457C41.1135 65.2194 41.1915 65.1965 41.2585 65.1565C41.8686 64.7921 42.5109 64.4707 43.0788 64.0493C45.2639 62.4285 47.1707 60.4974 48.8927 58.4109C51.1087 55.7258 53.1954 52.934 55.3445 50.1934C55.4687 50.035 55.6313 49.8696 55.812 49.7981C58.6937 48.6564 61.1496 46.8876 63.3393 44.7224C63.4417 44.6211 63.5767 44.5131 63.6055 44.3875C63.6382 44.2445 63.6168 44.0343 63.5277 43.936C63.4603 43.8615 63.2309 43.8731 63.1076 43.9257C62.9574 43.99 62.8388 44.1334 62.7131 44.2497C61.2779 45.5779 59.6664 46.6432 57.9013 47.4791C57.7186 47.5656 57.5323 47.6443 57.3476 47.7265C57.3855 47.5542 57.4544 47.4426 57.5316 47.337C58.2712 46.3251 59.0145 45.3157 59.7523 44.3026C60.9517 42.6556 62.2431 41.0923 63.8129 39.7774C64.2467 39.414 64.2153 39.0902 63.7069 38.8362ZM14.6406 33.8235C15.9318 32.6931 17.3307 31.6998 18.8837 30.9496C19.8142 30.5002 20.7717 30.1218 21.8375 30.2128C22.8074 30.2956 23.3294 30.9878 23.1238 31.9391C23.0524 32.2693 22.9319 32.599 22.7764 32.8991C22.3693 33.6847 21.761 34.307 21.0711 34.8486C19.3394 36.2082 17.3334 36.9286 15.1988 37.3366C13.7071 37.6217 12.2007 37.7181 10.6854 37.6701C10.6576 37.6242 10.6298 37.5782 10.602 37.5321C11.9459 36.2933 13.2657 35.0271 14.6406 33.8235ZM30.1083 46.1399C29.6193 46.4891 29.0753 46.7705 28.5305 47.0275C28.3508 47.1123 28.0887 47.0227 27.8643 47.013C27.8743 46.7996 27.8128 46.5454 27.9072 46.3801C28.245 45.7879 28.5912 45.1903 29.015 44.6592C30.1355 43.255 31.3768 41.9586 32.8097 40.869C33.295 40.5 33.849 40.1917 34.4158 39.9683C34.9955 39.74 35.3497 40.0608 35.3977 40.7134C35.3227 40.8892 35.2786 41.0879 35.1679 41.2373C33.7522 43.15 32.0386 44.7608 30.1083 46.1399ZM45.9987 58.0213C44.9346 59.2749 43.745 60.4232 42.5905 61.5978C42.3467 61.8458 42.0098 62.0023 41.7157 62.2012C41.6675 62.1627 41.6192 62.1242 41.571 62.0858C41.6418 61.8756 41.6748 61.6415 41.7902 61.4598C42.1995 60.8153 42.6001 60.1598 43.0699 59.56C45.3987 56.5863 48.144 54.027 51.0252 51.6061C51.0607 51.6362 51.0961 51.6662 51.1314 51.6963C49.425 53.8085 47.7554 55.9519 45.9987 58.0213ZM132.218 35.912C132.317 35.5606 132.436 35.2007 132.624 34.8917C133.042 34.2058 133.501 33.5451 133.961 32.8862C134.028 32.7887 134.212 32.6816 134.307 32.7074C135.026 32.9031 135.766 33.0654 136.442 33.3675C137.072 33.6493 137.055 34.079 136.461 34.4327C135.511 34.9982 134.552 35.5508 133.581 36.0792C133.287 36.2394 132.939 36.3014 132.731 36.3703C132.302 36.3605 132.137 36.1975 132.218 35.912ZM98.0822 36.488C94.9014 40.6163 91.7194 44.7436 88.5353 48.8692C87.2029 48.8675 85.7947 48.9481 84.3323 49.1119C86.9589 45.7247 91.3921 40.1479 93.5082 37.455C93.6155 37.3183 93.6982 37.162 93.7923 37.0149C93.7626 36.9688 93.7327 36.9226 93.703 36.8765C93.4594 36.961 93.1885 37.0025 92.9769 37.1374C91.9549 37.7891 90.9203 38.4265 89.9437 39.1422C88.2168 40.4077 86.6076 41.8156 85.1632 43.4011C84.7823 43.8193 84.4217 44.2611 84.0964 44.7234C82.9356 46.3734 81.7811 48.0278 80.6327 49.6864C79.1908 49.9711 77.7158 50.3314 76.2245 50.7699C75.9303 50.8565 75.6389 50.9458 75.3493 51.0365C75.3606 51.0244 75.371 51.0131 75.3825 51.0009C77.9092 47.8014 80.4454 44.6092 82.9595 41.3995C84.1632 39.8626 85.3305 38.2968 86.4982 36.7319C86.6224 36.5655 86.6376 36.3175 86.7033 36.1074C86.4717 36.1247 86.1869 36.0615 86.0177 36.1731C85.2058 36.7099 84.381 37.2421 83.6419 37.8711C81.5382 39.6614 79.615 41.6228 77.9303 43.8296C75.6712 46.7891 73.3322 49.6876 71.0285 52.6131C68.4158 53.7109 66.0782 54.9746 64.1137 56.3218C66.0817 53.7643 68.8948 50.1282 69.379 49.5049C72.6488 45.2953 75.9345 41.0982 79.1993 36.8847C80.2426 35.5382 81.2279 34.1442 81.8439 32.5397C82.0291 32.057 82.1427 31.5221 82.1623 31.0063C82.1921 30.2177 81.7351 29.8788 80.9585 30.0202C80.0154 30.192 79.1963 30.6453 78.4346 31.1998C75.8931 33.0503 74.3004 35.5646 73.4075 38.5399C73.1508 39.395 73.0115 40.2863 72.8358 41.1644C72.7259 41.714 72.4945 41.9118 71.9371 41.873C71.1923 41.8212 70.311 41.1896 70.1279 40.4728C70.0428 40.1395 70.0587 39.7199 70.1862 39.4024C71.0668 37.2082 72.5035 35.391 74.1723 33.7518C76.2784 31.683 78.611 29.9247 81.3783 28.8314C82.0788 28.5547 82.8459 28.3772 83.5963 28.3106C84.9377 28.1916 85.6262 28.9037 85.5833 30.2441C85.5479 31.3478 85.1993 32.3849 84.6924 33.339C83.8151 34.9903 82.8497 36.5947 81.9199 38.2181C81.8558 38.3301 81.7808 38.4357 81.6862 38.5826C82.948 37.4168 84.1554 36.2552 85.4136 35.1515C86.7052 34.0186 88.0942 33.0107 89.6428 32.2462C90.3776 31.8835 91.1285 31.5535 91.9711 31.5464C92.8385 31.539 93.1722 32.0265 92.7199 32.7603C92.119 33.7349 91.4574 34.6766 90.7645 35.5889C89.536 37.2062 88.2645 38.7907 87.0251 40.4161C87.1184 40.3297 87.2122 40.2439 87.3049 40.1568C89.2159 38.3597 91.2517 36.7341 93.6289 35.5828C94.6188 35.1033 95.6416 34.7075 96.7481 34.6216C97.1469 34.5907 97.57 34.6259 97.9554 34.7298C98.576 34.897 98.7551 35.4008 98.4467 35.9715C98.3474 36.1555 98.2107 36.3212 98.0822 36.488ZM145.159 38.8336C143.791 38.3133 142.383 37.9413 141.024 38.822C139.698 39.6811 138.415 40.6076 137.114 41.505C137.02 41.5695 136.931 41.6394 136.839 41.7068C136.814 41.6736 136.789 41.6406 136.764 41.6074C137.401 41.0172 138.028 40.4152 138.679 39.8404C139.205 39.3757 139.193 38.9924 138.523 38.7844C137.761 38.5482 136.959 38.4378 136.171 38.2986C136.066 38.2801 135.899 38.3842 135.82 38.4803C134.577 39.9864 133.317 41.4794 132.116 43.0187C130.841 44.6526 129.215 45.8443 127.467 46.8989C127.288 47.0068 127.089 47.0962 126.887 47.1447C126.733 47.1819 126.5 47.2021 126.413 47.1167C126.329 47.0349 126.341 46.7891 126.396 46.6477C126.504 46.3673 126.634 46.0805 126.818 45.8467C127.798 44.6049 128.765 43.3509 129.801 42.1567C130.507 41.3426 131.289 40.5873 132.093 39.8673C132.65 39.368 132.683 39.0045 131.966 38.7684C131.212 38.5201 130.407 38.4217 129.62 38.2849C129.517 38.2671 129.355 38.3846 129.273 38.4831C127.886 40.1444 126.468 41.7814 125.14 43.489C124.036 44.9086 122.62 45.9124 121.121 46.8328C120.867 46.9889 120.574 47.0989 120.285 47.1779C119.951 47.2693 119.784 47.0966 119.9 46.7718C120.014 46.4524 120.164 46.1356 120.354 45.855C121.785 43.7363 123.559 41.9019 125.251 40C125.332 39.9088 125.501 39.8783 125.635 39.8556C125.986 39.7963 126.346 39.7842 126.69 39.7037C127.227 39.5783 127.933 38.8022 127.974 38.3126C127.603 38.3299 127.234 38.3469 126.865 38.364C126.846 38.3274 126.828 38.2908 126.809 38.2542C127.546 37.5087 128.258 36.7363 129.029 36.0274C129.535 35.5624 129.573 35.2121 128.93 34.9927C128.204 34.7449 127.429 34.6311 126.667 34.5047C126.506 34.478 126.26 34.6032 126.142 34.7365C125.263 35.7208 124.4 36.7195 123.548 37.727C123.359 37.9497 123.188 38.0336 122.906 37.9238C122.776 37.8733 122.55 37.8464 122.473 37.9196C121.989 38.3801 121.5 38.8444 121.083 39.3631C120.824 39.684 120.951 39.8794 121.356 39.9555C121.413 39.9661 121.468 39.9835 121.565 40.0079C121.444 40.1562 121.356 40.2677 121.264 40.3764C120.474 41.3153 119.632 42.2157 118.905 43.2012C117.814 44.6811 116.37 45.7238 114.853 46.6907C114.555 46.8803 114.224 47.0258 113.892 47.1472C113.752 47.1982 113.53 47.1861 113.422 47.1032C113.349 47.0475 113.367 46.7988 113.421 46.6678C113.54 46.377 113.667 46.0731 113.862 45.8324C115.066 44.3479 116.271 42.8642 117.515 41.4134C118.001 40.846 118.56 40.3316 119.136 39.8531C119.696 39.3874 119.71 39.0174 119.009 38.7924C118.251 38.5488 117.449 38.4375 116.661 38.2946C116.558 38.2759 116.401 38.3867 116.312 38.4789C115.472 39.3482 114.5 40.0073 113.337 40.3607C113.14 40.4207 112.924 40.4196 112.717 40.4468C113.899 38.9349 115.152 37.5674 116.643 36.4386C116.759 36.3513 116.916 36.305 117.003 36.1982C117.177 35.9841 117.459 35.7208 117.429 35.5162C117.399 35.306 117.079 35.0706 116.835 34.9738C116.475 34.8309 116.07 34.799 115.683 34.7235C115.425 34.673 115.246 34.7771 115.073 34.9782C113.839 36.4064 112.589 37.8202 111.355 39.2477C111.098 39.5456 110.868 39.872 110.656 40.2044C110.402 40.6027 110.278 41.0224 110.712 41.4679C109.65 42.4791 108.621 43.482 107.567 44.4578C106.509 45.4375 105.375 46.3244 104.069 46.9541C103.832 47.0683 103.422 47.1687 103.275 47.0494C102.988 46.8159 103.258 46.4746 103.412 46.2426C103.879 45.5411 104.352 44.8367 104.891 44.1908C106.108 42.7326 107.35 41.2941 108.834 40.0884C109.22 39.7749 109.18 39.4666 108.749 39.2131C108.602 39.1271 108.443 39.0436 108.279 39.0093C107.687 38.8852 107.087 38.7987 106.497 38.6656C106.139 38.5847 105.936 38.721 105.755 39.0096C105.568 39.3058 105.337 39.5743 105.098 39.8927C104.824 38.8823 104.136 38.4438 103.219 38.304C102.935 38.2607 102.64 38.2545 102.352 38.2719C101.011 38.353 99.8059 38.8504 98.7082 39.5847C96.3557 41.1585 94.5838 43.2642 93.2682 45.7528C93.0085 46.2441 92.8559 46.8114 92.7525 47.3622C92.553 48.4251 93.1219 49.1399 94.1901 49.2527C94.3719 49.2719 94.5596 49.2676 94.7418 49.2479C95.9548 49.117 97.0098 48.5803 98.0166 47.9369C98.4999 47.628 98.9585 47.2801 99.4313 46.9477C99.4313 47.2794 99.4057 47.5945 99.4363 47.9041C99.5151 48.6988 100.021 49.171 100.815 49.211C101.012 49.2208 101.211 49.2084 101.408 49.1877C102.635 49.0579 103.718 48.5454 104.715 47.8589C107.173 46.1661 109.308 44.1073 111.333 41.9269C111.438 41.8136 111.589 41.7132 111.737 41.6734C112.393 41.4962 113.057 41.3458 113.716 41.1794C113.83 41.1507 113.937 41.0911 114.047 41.0457C113.996 41.2255 113.906 41.3372 113.82 41.4508C112.498 43.1793 111.154 44.8918 109.867 46.6455C109.419 47.2561 109.491 47.9892 109.852 48.6367C110.195 49.2534 110.812 49.312 111.446 49.258C112.537 49.165 113.516 48.751 114.434 48.1855C115.003 47.8354 115.548 47.4465 116.156 47.0397C116.145 47.181 116.138 47.2589 116.133 47.337C116.028 48.7879 116.665 49.3973 118.11 49.2382C119.324 49.1045 120.378 48.5743 121.38 47.9201C121.786 47.6555 122.175 47.367 122.59 47.0771C122.59 47.3797 122.563 47.6537 122.594 47.9206C122.706 48.8615 123.259 49.3208 124.208 49.2715C124.457 49.2585 124.707 49.2259 124.953 49.18C126.409 48.9076 127.611 48.1253 128.773 47.2651C128.867 47.1954 128.962 47.1263 129.057 47.0569C128.885 47.4166 128.673 47.7179 128.46 48.0193C128.091 48.545 128.164 48.8838 128.792 49.0417C129.384 49.1906 130.011 49.221 130.626 49.2517C130.797 49.2602 131.028 49.1265 131.144 48.9859C131.691 48.3263 132.144 47.5776 132.748 46.9784C134.188 45.5481 135.662 44.1471 137.186 42.808C138.064 42.0371 139.064 41.4034 140.019 40.7234C140.198 40.5963 140.428 40.542 140.634 40.4542C140.664 40.4924 140.693 40.5309 140.723 40.5691C140.627 40.7135 140.544 40.8678 140.435 41.0007C139.387 42.2746 138.333 43.5431 137.285 44.8167C136.644 45.5957 136.087 46.4291 135.78 47.3998C135.36 48.7295 135.898 49.38 137.292 49.2688C138.23 49.1942 139.097 48.9006 139.917 48.4547C141.759 47.4536 143.276 46.0439 144.756 44.5901C144.803 44.5446 144.87 44.4853 144.869 44.4332C144.867 44.2532 144.892 44.0338 144.8 43.9093C144.748 43.8396 144.453 43.8763 144.323 43.9556C144.114 44.0835 143.954 44.2912 143.766 44.4566C142.694 45.3994 141.583 46.2911 140.31 46.953C140.019 47.104 139.631 47.3944 139.385 47.0954C139.263 46.9466 139.447 46.4515 139.609 46.1836C139.948 45.6212 140.337 45.0821 140.755 44.5746C142.166 42.8642 143.613 41.1858 145.325 39.7594C145.745 39.4102 145.704 39.0407 145.159 38.8336ZM98.528 46.3822C98.1512 46.6409 97.7334 46.8528 97.3094 47.0239C97.1177 47.1013 96.8644 47.0262 96.639 47.0203C96.6466 46.8063 96.5881 46.5595 96.6747 46.3847C96.9014 45.9274 97.1517 45.4708 97.4634 45.0684C98.7838 43.3641 100.256 41.8037 102.018 40.5454C102.366 40.297 102.768 40.0985 103.174 39.9637C103.775 39.7641 104.108 40.0483 104.157 40.7026C104.095 40.8694 104.068 41.0622 103.966 41.1994C102.451 43.2379 100.618 44.9482 98.528 46.3822ZM56.3018 20.4221C56.2565 20.1528 56.2323 19.8806 56.2293 19.6076C56.2841 15.4848 61.6275 12.9754 61.6275 12.9754V9.34588C61.7774 4.21047 65.9827 0.125136 71.1191 0.125001H79.0544C84.1925 0.12284 88.4003 4.20885 88.5503 9.34588V12.8005C87.0048 15.8014 71.0111 20.87 61.6018 16.4555C61.6018 16.4555 61.6681 18.9692 61.5098 20.0779C62.7766 21.5034 69.4275 22.7706 75.8435 21.7557C82.2596 20.7409 85.5795 19.2859 88.5502 16.5877V13.5255L90.4885 13.5839C94.9224 14.059 93.8139 17.2268 91.1219 19.4443C75.7615 30.0566 62.618 25.78 60.4012 24.9881C57.866 24.0824 56.5466 21.9068 56.3018 20.4221ZM150.119 32.4001C148.486 32.4001 147.183 33.6685 147.183 35.2499C147.183 36.866 148.486 38.1347 150.119 38.1347C151.769 38.1347 153.038 36.866 153.038 35.2499C153.038 33.6684 151.769 32.4001 150.119 32.4001ZM150.136 37.5265C148.851 37.5265 147.912 36.5185 147.912 35.2499C147.912 33.9986 148.851 32.9735 150.119 32.9735C151.387 32.9735 152.308 33.9988 152.308 35.2674C152.308 36.5187 151.387 37.5265 150.136 37.5265ZM150.779 35.3368V35.3022C151.127 35.1979 151.37 34.9546 151.37 34.6417C151.37 34.3638 151.248 34.1377 151.092 34.0161C150.884 33.8944 150.64 33.8075 150.102 33.8075C149.633 33.8075 149.268 33.8423 149.007 33.8944V36.7444H149.667V35.5973H149.98C150.345 35.5973 150.519 35.7365 150.571 36.0492C150.658 36.3794 150.71 36.64 150.797 36.7442H151.509C151.439 36.64 151.387 36.4663 151.301 36.0319C151.214 35.6495 151.057 35.4411 150.779 35.3368ZM149.997 35.1282H149.685V34.3115C149.754 34.2942 149.876 34.2767 150.05 34.2767C150.467 34.2767 150.658 34.4505 150.658 34.7111C150.658 35.0065 150.362 35.1282 149.997 35.1282Z" fill="black"/>
</svg>
